<?xml version="1.0" encoding="utf-8"?>
<!-- Generator: Adobe Illustrator 22.1.0, SVG Export Plug-In . SVG Version: 6.00 Build 0)  -->
<svg version="1.1" id="Layer_1" xmlns="http://www.w3.org/2000/svg" xmlns:xlink="http://www.w3.org/1999/xlink" x="0px" y="0px"
	 viewBox="0 0 1443.7 1069.9" style="enable-background:new 0 0 1443.7 1069.9;" xml:space="preserve">
<style type="text/css">
	.st0{fill:#FFFFFF;}
</style>
<g>
	<g>
		<path class="st0" d="M660,559.1c2.4-5.1,5.3-10.4,8.9-15.9c3.6,3.9,8.7,7.5,13.6,10.7c1.3-0.3,2.6-0.6,3.9-0.9
			c0,0-0.1-0.1-0.1-0.1c-5.9-3.9-12.6-8.2-16.4-13l-1.2-1.6l-1.1,1.7c-4.6,6.9-8.3,13.5-11.1,19.9
			C657.6,559.7,658.8,559.4,660,559.1z"/>
		<path class="st0" d="M741,543.2c4.4-4.5,9.2-9.5,12.1-14.6c4,3.9,7.5,7.8,10.6,11.6c1.1-0.1,2.3-0.2,3.4-0.4
			c-3.8-4.9-8.2-9.8-13.3-14.7l-1.4-1.4l-0.9,1.8c-2.6,5.5-8.2,11.2-13.2,16.2c-0.7,0.7-1.3,1.4-2,2
			C737.9,543.7,739.4,543.4,741,543.2z"/>
		<path class="st0" d="M1142.8,999.4c2,3.7,3.9,7.3,5.8,10.8c9.5,17.5,17,31.3,17,42.2c0,4.7-5.5,7.6-10.1,9.2
			c-29.4,10.3-86.8,0.4-97.9-13.4c-7.3-9.1-12.5-18.9-15.5-29.3c-1-0.1-1.9-0.2-2.9-0.3c3.1,11.3,8.5,21.8,16.2,31.4
			c9.3,11.7,41.9,18.4,69.7,18.4c12.2,0,23.4-1.3,31.4-4.1c10-3.5,12-8.4,12-12c0-11.6-7.7-25.7-17.4-43.6c-1.9-3.4-3.8-7-5.8-10.7
			C1144.6,998.5,1143.7,998.9,1142.8,999.4z"/>
		<path class="st0" d="M916.6,899.3c21,3.4,46.5,6.8,75.9,8.7c19.1,1.2,36.1,1.6,51,1.9c25.5,0.5,47.6,1,69.2,5.6
			c8,1.7,16,22.1,23.7,41.8c4.7,12,9.6,24.4,14.9,34.1c-21.7,14.3-75.8,29.7-118.1,23.6c-0.2-14.3-3.2-34-6.3-52.9l-0.2-1l-1-0.2
			c-54.7-11.8-128.1-31.7-162.3-46.8c-1.4-0.6-2.7-1.2-4-1.8c-1.6,0.2-3.2,0.5-4.8,0.7c2.2,1.2,4.7,2.5,7.6,3.8
			c34.2,15.1,107.1,34.9,161.9,46.8c3.1,19,6.2,38.7,6.2,52.7v1.2l1.2,0.2c2.5,0.4,5.1,0.7,7.8,0.9c1,0.1,1.9,0.2,2.9,0.3
			c3.7,0.3,7.4,0.4,11.2,0.4c32.7,0,68-9.5,89.4-19.9c0.9-0.4,1.7-0.8,2.6-1.3c3.3-1.7,6.2-3.4,8.6-5.1l1.1-0.7l-0.6-1.1
			c-5.5-9.8-10.5-22.6-15.4-34.9c-8.8-22.3-16.3-41.5-25.8-43.6c-21.9-4.7-44.1-5.1-69.8-5.6c-14.9-0.3-31.9-0.6-50.9-1.9
			c-26.8-1.7-50.4-4.7-70.3-7.8C920.5,898,918.5,898.6,916.6,899.3z"/>
		<path class="st0" d="M591,1021c-2.9,10.1-7.8,19.6-14.8,28.4c-12,15.4-68.7,21.5-92.7,13.2c-4.6-1.6-10-4.4-10-9.1
			c0-10.5,7.2-24,16.2-41c1.8-3.4,3.6-6.8,5.5-10.4c-0.9-0.4-1.7-0.9-2.6-1.3c-1.9,3.6-3.7,7.1-5.5,10.4
			c-9.3,17.4-16.6,31.1-16.6,42.3c0,3.5,2.1,8.4,11.9,11.8c7.7,2.7,18.4,3.9,29.9,3.9c26.4,0,57.1-6.6,66-18
			c7.3-9.3,12.4-19.5,15.4-30.5C592.9,1020.8,592,1020.9,591,1021z"/>
		<path class="st0" d="M761.6,919c-0.1,0.1-0.2,0.1-0.4,0.2c-32.6,14.7-102.4,34-154.6,45.5l-1,0.2l-0.2,1c-3,18.4-5.9,37.4-6,51.4
			c-40.2,6-91.7-9.1-112.4-22.9c5.1-9.5,9.7-21.5,14.2-33.2c7.4-19.2,15-39,22.6-40.6c20.6-4.5,41.6-4.9,65.9-5.4
			c14.3-0.3,30.4-0.6,48.6-1.8c12.9-0.8,24.9-2,36.2-3.3c-3-0.6-6-1.2-8.9-1.9c-8.7,0.9-17.9,1.7-27.5,2.3
			c-18.1,1.2-34.3,1.5-48.5,1.8c-24.5,0.5-45.6,0.9-66.5,5.5c-9.1,2-16.3,20.7-24.6,42.4c-4.6,12-9.4,24.4-14.6,33.9l-0.6,1.1l1,0.7
			c2.3,1.6,5.1,3.3,8.2,4.9c0.8,0.4,1.7,0.9,2.6,1.3c20.4,10.1,54,19.3,85.2,19.3c3.6,0,7.1-0.1,10.6-0.4c1-0.1,1.9-0.2,2.9-0.3
			c2.5-0.2,4.9-0.5,7.3-0.9l1.2-0.2v-1.2c0-13.6,2.9-32.7,5.9-51.2c52.2-11.5,121.6-30.8,154.2-45.4c2-0.9,3.8-1.8,5.5-2.7
			C765.8,919.1,763.7,919,761.6,919z"/>
		<path class="st0" d="M459.1,746.3c-4.5-11.8-6.7-22.2-6.5-29.9c0.5-16.4,15-32.1,33.3-46.5c0.2-1.4,0.4-2.8,0.6-4.2
			c-20.2,15.4-36.2,32.1-36.8,50.5c-0.3,8.7,2.5,20.7,8,34.2c0.5,0.3,1.1,0.5,1.6,0.8C459.2,749.6,459.1,747.9,459.1,746.3z"/>
		<path class="st0" d="M801.3,540c8.7-0.4,17.2-0.7,25.6-0.7c1.1-1,2.3-1.9,3.4-2.9c-9.3,0-18.9,0.2-28.7,0.7
			C801.5,538.1,801.4,539.1,801.3,540z"/>
		<path class="st0" d="M642.9,566.9C642.9,566.9,642.9,566.9,642.9,566.9c4-1.4,8.1-2.6,12.3-3.7c43.7-10.9,85.2-18.2,123.4-21.6
			c0.2-0.4,0.3-0.9,0.5-1.3c0.2-0.5,0.4-1.1,0.6-1.6c-4.2,0.4-8.4,0.8-12.6,1.2c-1.1,0.1-2.2,0.2-3.4,0.4c-7.4,0.8-15,1.8-22.7,2.9
			c-1.6,0.2-3.1,0.4-4.7,0.7c-16.2,2.5-32.9,5.5-50,9.1c-1.3,0.3-2.6,0.6-3.9,0.9c-7.4,1.6-14.9,3.4-22.5,5.2
			c-1.2,0.3-2.3,0.6-3.5,0.8c-0.7,0.2-1.3,0.3-2,0.5c-4.7,1.2-9.2,2.6-13.6,4.1C641.6,565.3,642.2,566.1,642.9,566.9z"/>
		<path class="st0" d="M945.7,558.7c7.1,2.4,14.4,5,22.1,7.7c0.4,0.1,0.9,0.3,1.3,0.5c1.3-0.5,2.6-1.1,3.9-1.7
			c-1.4-0.5-2.9-1-4.3-1.5c-8.9-3.1-17.3-6.1-25.5-8.8C944.1,556.1,944.9,557.4,945.7,558.7z"/>
		<path class="st0" d="M1014.9,582.2c14.9,4.7,31.8,9.7,51.2,14.9c2.9,0.8,5.6,1.6,8.3,2.4c0.2-0.9,0.4-1.9,0.6-2.8
			c-2.6-0.8-5.3-1.6-8.1-2.4c-20.9-5.5-38.5-10.8-54.1-15.8C1013.5,579.8,1014.2,581,1014.9,582.2z"/>
		<path class="st0" d="M883.6,543.1c6.2,0.9,12,2,17.7,3.1c1.5-0.7,2.9-1.3,4.3-2c-7.4-1.6-15.1-3.1-23.3-4.2
			C882.7,541,883.1,542,883.6,543.1z"/>
		<path class="st0" d="M603.6,586c6-3.8,12.2-7.3,18.6-10.5c-0.4-0.9-0.8-1.7-1.2-2.6c-7.3,3.6-14.3,7.7-21,12
			C601.2,585.3,602.4,585.7,603.6,586z"/>
		<path class="st0" d="M513.2,650.7c3.4-2.2,6.7-4.4,10-6.5c0.1-0.1,0.2-0.2,0.4-0.2c0.2-1.3,0.3-2.5,0.5-3.8
			c-0.8,0.5-1.6,1.1-2.4,1.6c-4.5,2.9-9,5.9-13.6,8.9C509.7,650.7,511.4,650.7,513.2,650.7z"/>
		<path class="st0" d="M506.5,653.5c4.9,0.2,10.3,0.1,16-0.2c0.1-0.9,0.2-1.9,0.3-2.9c-3.2,0.1-6.5,0.2-9.6,0.3c-1.8,0-3.5,0-5.1,0
			c-3.4-0.1-6.4-0.3-9-0.8c1.3,0.6,2.5,1.2,3.7,1.8C504.1,652.3,505.3,652.9,506.5,653.5z"/>
		<path class="st0" d="M486,669.9c-1.9,13.2-3.3,27-0.4,35.6c0.8-0.6,1.6-1.3,2.4-1.9c-2.4-8.4-0.7-22.6,1.1-35.2
			c-0.3-1.2-0.6-2.4-0.9-3.7c-0.3-1.1-0.6-2.4-0.9-3.7l-0.2,1.6c-0.2,1-0.3,2.1-0.5,3.1C486.4,667.1,486.2,668.5,486,669.9z"/>
		<path class="st0" d="M488.2,664.7c0.3,1.3,0.6,2.5,0.9,3.7c0.7,2.7,1.5,5.1,2.7,7.1h0c1.7,2.9,4.9,4.8,8.8,5.3
			c0.7,0.1,1.4,0.1,2.1,0.1c3.8,0,7.5-1.4,10-3.8c3.5-3.3,5.5-7.7,5.3-11.8c-0.1-3-1.5-5.6-3.8-7.4c-2-1.5-4.5-2.9-7.5-4.4
			c-1.2-0.6-2.4-1.2-3.8-1.8c-1.2-0.6-2.4-1.2-3.7-1.8c-4.6-2.3-10-5-15.8-8.8c-0.5-0.3-1.2-0.3-1.7,0.1c-0.5,0.4-0.6,1.1-0.4,1.7
			c3.2,7.5,4.8,13.3,6.1,18.2C487.6,662.3,487.9,663.5,488.2,664.7z M501.5,654.2c4.7,2.2,8.3,4,10.8,5.9c1.7,1.4,2.6,3.1,2.7,5.3
			c0.1,3.2-1.6,6.8-4.4,9.6c-2.4,2.3-6.1,3.4-9.7,2.9c-3-0.4-5.4-1.9-6.7-4h0c-1.5-2.4-2.2-5.6-3.3-9.9c-1.1-4.5-2.5-10.5-5.5-18.2
			C491.5,649.4,497,652.1,501.5,654.2z"/>
		<path class="st0" d="M545.6,619.6c1.8,0.1,3.7,0.2,5.6,0.2c-0.2-1-0.4-1.9-0.5-2.9c-4.7-0.1-9.1-0.4-12.5-1.1
			c1.3,0.6,2.5,1.3,3.6,1.8C543.2,618.4,544.5,619,545.6,619.6z"/>
		<path class="st0" d="M523.5,644c-0.3,2.2-0.5,4.3-0.8,6.5c-0.1,1-0.2,1.9-0.3,2.9c-0.7,9.7-0.1,18.2,3.6,22.7
			c0.8-0.6,1.5-1.2,2.3-1.8c-5.4-6.5-3.1-24.5-0.5-40.1c-0.3-1.2-0.6-2.4-0.8-3.7c-0.3-1.2-0.5-2.4-0.8-3.7l-0.3,1.6
			c-0.7,3.8-1.3,7.8-1.9,11.8C523.8,641.5,523.7,642.7,523.5,644z"/>
		<path class="st0" d="M527.9,634.1c0.7,2.8,1.4,5.1,2.5,7.1c1.7,2.9,4.8,4.9,8.7,5.5c0.8,0.1,1.6,0.2,2.4,0.2
			c3.7,0,7.2-1.3,9.8-3.6c2.6-2.4,4.4-5.3,5.2-8.3c-1.7-3.5-3.1-7.5-4.2-11.6c-1.8-1.3-3.9-2.6-6.5-3.9c-1.2-0.6-2.4-1.2-3.7-1.9
			c-1.1-0.6-2.4-1.2-3.6-1.8c-4.6-2.4-9.9-5.2-15.6-9.1c-0.5-0.4-1.2-0.3-1.7,0.1c-0.5,0.4-0.7,1.1-0.4,1.6c3,7.6,4.6,13.4,5.7,18.3
			c0.3,1.3,0.6,2.5,0.8,3.7C527.3,631.8,527.6,633,527.9,634.1z M549.3,641.2c-2.4,2.2-6.2,3.2-9.7,2.7c-3-0.5-5.4-2-6.6-4.1
			c-1.4-2.5-2.1-5.6-3.1-10c-1-4.6-2.3-10.6-5.1-18.3c6,3.7,11.4,6.5,15.8,8.7c4.6,2.3,8.3,4.2,10.7,6.1c1.7,1.4,2.6,3.2,2.6,5.4
			C554,634.9,552.2,638.6,549.3,641.2z"/>
		<path class="st0" d="M551.3,619.8c0.3,1.2,0.6,2.5,0.9,3.7c1.1,4.1,2.5,8,4.2,11.6c1.9,4,4.1,7.5,6.6,10.1
			c0.6,0.7,1.3,1.3,1.9,1.8c0.8-0.6,1.6-1.1,2.5-1.7c-0.9-0.7-1.6-1.4-2.3-2.1c-8.3-8.9-13.6-27.4-12.4-42.2
			c-0.7-1.1-1.6-2.4-2.4-3.8c-1,6-0.7,12.9,0.5,19.7C550.9,617.9,551.1,618.9,551.3,619.8z"/>
		<path class="st0" d="M576.8,583.1c1.5,0.3,3.1,0.6,4.7,0.9c17.3,3.2,38.9,7.3,38.9,19.9c0,4.3-0.8,8.3-2.2,12.1
			c1.2-0.5,2.3-1.1,3.5-1.6c0.9-3.3,1.5-6.8,1.5-10.5c0-9.2-8.6-14.4-19.6-17.8c-1.2-0.4-2.4-0.7-3.6-1.1c-5.9-1.6-12.1-2.8-18-3.8
			c-2.7-0.5-5.3-1-7.8-1.5C575.1,581,576,582.1,576.8,583.1z"/>
		<path class="st0" d="M552.7,601c1.5,2.2,2.6,3.7,2.7,3.7c6,7.3,12.7,14.4,20.7,14.4c3.4,0,7-1.3,10.8-4.4c3.3-2.7,5-6,5-9.6
			c0-8.3-8.8-16.8-14-21c-0.3-0.3-0.7-0.6-1-1c-0.8-0.9-1.7-2.1-2.6-3.4c-0.4-0.6-0.9-1.3-1.3-2c-0.2-0.2-0.3-0.5-0.5-0.7
			c-0.1,1.5-0.2,3-0.5,4.4c1.4,2.1,2.7,3.8,4.1,5c3.9,3.2,12.9,11.4,12.9,18.8c0,2.8-1.3,5.3-4,7.4c-9.8,8-17.5,2.5-27.4-9.6
			c-1.9-2.4-4.7-6.4-7-10.9c-1.4-0.5-2.8-1.2-4.1-1.9c1.2,2.6,2.5,5,3.8,7.2C551.1,598.7,552,600,552.7,601z"/>
		<path class="st0" d="M550.6,592c4.5,1.7,8.9,2.2,12.4,0.7c5.2-2.1,7.9-6.3,8.9-11.4c0.3-1.4,0.5-2.9,0.5-4.4
			c0.3-6.9-1.4-14.8-3.4-22c-5.5-19.8-40.6-14.7-40.8,7c-0.1,11.6,8.6,22.7,18.2,28.1C547.8,590.9,549.2,591.5,550.6,592z
			 M534.7,559.2c-1.5-2.7,1.2-6.7,6.2-9c4.9-2.3,10.2-2,11.7,0.7c1.5,2.7-1.2,6.7-6.2,9C541.5,562.2,536.2,561.9,534.7,559.2z"/>
		<path class="st0" d="M969,566.8c-3.4,1.4-7,2.8-10.3,4.1c-1.8,0.7-3.6,1.4-5.2,2.1c0.4,0.9,0.8,1.8,1.1,2.6c1.7-0.7,3.5-1.4,5.2-2
			c8.8-3.5,17.8-7,24.6-10.7c0.4-0.4,0.8-0.8,1.3-1.2c1.3-1.2,2.7-2.5,4.1-3.8l-0.9-0.3c-0.4-0.2-0.9-0.1-1.3,0.2
			c-3.6,2.5-8.8,5-14.4,7.5C971.7,565.7,970.4,566.2,969,566.8z"/>
		<path class="st0" d="M1005.5,572.3c10.3,16.4,21.3,35.7,12.1,41.6c-0.1,0.1-0.2,0.1-0.3,0.2c1,0.4,2,0.9,3.1,1.3
			c7.3-6.3,2.2-19.4-5.6-33.2c-0.7-1.2-1.4-2.4-2.1-3.7c-2.3-3.9-4.7-7.7-7.1-11.4C1005.6,569,1005.6,570.8,1005.5,572.3z"/>
		<path class="st0" d="M985.6,561.7c-0.4,0.4-0.8,0.8-1.3,1.2c-3.6,3.4-6.5,6.2-7.9,9c-1.5,2.8-1.6,5.8-0.5,8.7
			c1.5,3.9,5.3,7.2,10.1,8.9c1.4,0.5,3,0.7,4.5,0.7c2.9,0,5.9-0.8,8.5-2.4c3.4-2.1,5.6-5.3,6-8.8c0.2-2,0.4-4.1,0.5-6.6
			c0.1-1.6,0.1-3.3,0.1-5.2c0-5-0.1-11.3-0.4-20l-0.1-3.8c0-0.6-0.4-1.2-1-1.3c-0.6-0.2-1.2,0.1-1.6,0.6c-4,6.1-8.6,11-12.9,15.2
			C988.2,559.2,986.9,560.5,985.6,561.7z M1002.4,547.8c0.4,16.7,0.6,24.4-0.2,30.8c-0.3,2.6-2,5-4.7,6.7c-3.2,2-7.3,2.6-10.5,1.4
			c-3.9-1.4-7.2-4.2-8.4-7.3c-0.8-2.1-0.7-4.3,0.3-6.3c1.4-2.6,4.7-5.8,8.6-9.4C992.1,559.5,997.5,554.4,1002.4,547.8z"/>
		<path class="st0" d="M901.3,546.2c-3.6,1.6-7.4,3.2-10.9,4.8c-1.3,0.5-2.5,1.1-3.7,1.6c0.2,0.9,0.5,1.9,0.7,2.8
			c1.4-0.6,2.8-1.2,4.2-1.8c5.6-2.4,11.3-4.9,16.5-7.4c0.1-0.1,0.1-0.2,0.1-0.3c0.7-1.4,1.6-2.8,2.6-4.2c-1.6,0.8-3.3,1.7-5.1,2.5
			C904.2,544.9,902.7,545.6,901.3,546.2z"/>
		<path class="st0" d="M936.9,550.6c9.8,14.5,20.3,31.4,15.8,39.2c1,0.3,1.9,0.5,2.9,0.8c1.9-3.9,1.2-9.2-1.1-15
			c-0.3-0.9-0.7-1.8-1.1-2.6c-2-4.5-4.8-9.4-7.8-14.3c-0.8-1.3-1.6-2.6-2.4-3.8c-2.3-3.5-4.7-7-7-10.4
			C936.7,546.7,936.9,548.7,936.9,550.6z"/>
		<path class="st0" d="M908.1,545.9c-0.1,0.1-0.1,0.2-0.1,0.3c-1.2,2.7-1.3,5.6-0.1,8.3c1.7,3.9,5.5,7.1,10.4,8.6
			c1.3,0.4,2.7,0.6,4.1,0.6c3,0,6.2-0.9,8.9-2.7c3.3-2.2,5.4-5.5,5.8-9c0-0.5,0-1,0-1.5c0-1.9-0.3-3.9-0.7-6.1
			c-0.3-1.3-0.5-2.6-0.9-4.1c-1.3-5.8-2.9-13-3.5-23.7c0-0.6-0.5-1.2-1.1-1.3c-0.6-0.2-1.2,0.1-1.6,0.6c-4.8,7.9-9.6,14-13.4,18.8
			c-2,2.5-3.7,4.8-5.2,6.8C909.6,543.2,908.7,544.6,908.1,545.9z M929.4,521.2c0.8,8.7,2.2,15,3.2,19.8c1,4.6,1.7,7.9,1.5,10.8
			c-0.2,2.6-1.9,5.1-4.5,6.8c-3.2,2.1-7.2,2.8-10.5,1.8c-4-1.3-7.3-3.9-8.6-7c-0.9-2.1-0.9-4.2,0.1-6.3c1.4-2.9,4.1-6.3,7.4-10.5
			C921.4,532.5,925.3,527.5,929.4,521.2z"/>
		<path class="st0" d="M826.8,539.3c-12,10.3-22.9,21.8-17.1,31.5c1.6,2.6,3.6,5.1,6.1,7.3c1.3-0.1,2.7-0.2,4-0.2
			c-3.1-2.4-5.7-5.3-7.7-8.6c-5.9-9.9,11.1-23.6,24.7-34.7c2.5-2.1,5-4,7.2-5.9c0.1-0.1,0.1-0.2,0.2-0.3c0.6-1.1,1.2-2.9,1.9-4.9
			c-0.3,0-0.7,0.1-0.9,0.3c-2.9,2.6-6.4,5.5-10.2,8.6c-1.6,1.3-3.2,2.6-4.9,4C829.1,537.4,828,538.3,826.8,539.3z"/>
		<path class="st0" d="M875,532.7c8.2,12.1,12.7,30.1,10.2,41.7c-0.4,1.6-1,3.5-2,5.1c1,0.1,2.1,0.2,3.1,0.3c0.7-1.4,1.3-3,1.7-4.9
			c1.2-5.6,0.9-12.5-0.6-19.6c-0.2-0.9-0.4-1.9-0.7-2.8c-0.8-3.2-1.9-6.4-3.1-9.5c-0.4-1-0.9-2.1-1.3-3.1c-1.8-3.9-3.9-7.6-6.2-10.8
			C875.7,530.5,875.3,531.6,875,532.7z"/>
		<path class="st0" d="M844.3,528.4c0,0.1-0.1,0.2-0.2,0.3c-2.5,5.1-6.4,18.6-2.5,27.6c1.7,4,4.7,6.6,8.9,7.7
			c1.7,0.5,3.3,0.7,4.7,0.7c10.5,0,13.8-12,17.3-24.6l0.5-1.8c0.2-0.8,0.5-1.8,0.9-2.9c0.3-0.8,0.6-1.7,0.9-2.7
			c0.3-1.1,0.7-2.3,1-3.5c0.7-2.4,1.3-5.1,1.6-7.7c-1.1,1-2.2,1.9-3.4,2.8c-0.8,3.9-2,7.6-2.9,10.3c-0.4,1.2-0.7,2.2-1,3.1l-0.5,1.8
			c-4.5,16-7.6,25-18.5,21.9c-3.4-0.9-5.7-2.9-7.1-6.1c-3.4-7.8,0-20.4,2.6-25.4c0.8-1.5,1.6-3.7,2.5-6.3c0.4-1.2,0.9-2.6,1.4-4
			c-0.6-1.2-1.1-2.6-1.5-4c-1,2.4-1.9,4.9-2.6,7c-0.1,0.4-0.3,0.7-0.4,1.1C845.5,525.6,844.9,527.3,844.3,528.4z"/>
		<path class="st0" d="M850.7,519.5c2.1,4.4,5.5,7.6,10.8,8.6c4,0.7,8.5-0.8,12.7-3.8c1.2-0.8,2.3-1.7,3.4-2.8
			c8-7.4,13.9-19.8,11.4-30.9c-4.7-21.2-40.2-18.7-41.4,1.7c-0.5,7.8-0.5,16.3,1.5,23.1C849.6,516.9,850.1,518.2,850.7,519.5z
			 M863,485c0.9-2.9,6-4.4,11.3-3.2c5.3,1.2,8.8,4.5,7.9,7.5c-0.9,2.9-6,4.4-11.3,3.2C865.6,491.3,862,487.9,863,485z"/>
		<path class="st0" d="M635.4,608.4C635.5,608.4,635.5,608.4,635.4,608.4c-2.8-5.4-5.1-14.3-5.9-21.3c0,0-0.1-0.1-0.1-0.1
			c-0.9-0.8-2-2.1-3-3.6c0.2,7.7,2.7,19.1,6.4,26.1C633.8,609.1,634.6,608.7,635.4,608.4z"/>
		<path class="st0" d="M674.8,597.3c0.9-0.2,1.9-0.4,2.8-0.6c-0.4-3.2-2-6.3-4.7-8.7c-5.2-4.6-13.5-11.3-26.8-17.6
			c1,1.1,1.8,1.9,2.4,2.5c1.3,1.1,2.2,2.3,2.8,3.3c9,4.9,15.1,9.8,19.6,13.9C673.2,592.1,674.5,594.6,674.8,597.3z"/>
		<path class="st0" d="M622.2,575.6c1.4,3,2.9,5.7,4.3,7.8c1,1.6,2.1,2.8,3,3.6c0,0,0.1,0.1,0.1,0.1c0.5,0.4,1,0.9,1.5,1.5
			c2.1,2.1,5,5,9.3,5c1.7,0,3.7-0.5,6-1.7c3.6-2,6.2-5.4,6.6-9c0.2-1.7,0-4-1.6-6.5c-0.7-1.1-1.6-2.2-2.8-3.3
			c-0.6-0.6-1.5-1.4-2.4-2.5c-0.9-1-2-2.3-3.2-3.6c0,0,0,0,0,0c-0.7-0.8-1.4-1.6-2.1-2.3c-5.7-6.4-10.9-11.8-15.3-14.5
			c0.9,1.9,1.5,3.4,1.7,4.7c4.7,3.9,10,10,13.6,14c2.5,2.9,4.5,5.1,5.9,6.3h0c2.6,2.3,3.8,4.8,3.5,7.4c-0.3,2.7-2.3,5.3-5.1,6.9
			c-5.9,3.2-8.9,0.1-11.8-2.8c-0.6-0.6-1.2-1.2-1.8-1.7c-3.7-3.1-9.4-15.5-11.7-24.5c-1-1-2.2-2.8-3.8-5.4c0.2,4.8,2.3,11.7,5.1,18
			C621.4,573.8,621.8,574.7,622.2,575.6z"/>
		<path class="st0" d="M619.7,560.3c0.3,0.3,0.6,0.6,0.9,0.7c0.4,0.2,0.8,0.3,1.1,0.3c0.3,0,0.5-0.1,0.7-0.1c2-0.8,4.1-1.7,4.8-3.9
			c0.2-0.7,0.3-1.5,0.1-2.5c-0.2-1.3-0.7-2.8-1.7-4.7c-1.1-2.2-2.6-4.9-4.8-8.3c-14.8-23.4-33.2-69.5-44.2-97
			c-10.7-26.7-10.8-26.7-12.6-26.2c-1.5,0.4-1.2,2.1-1,3.4c4.2,26.4,38.9,109.5,53,132.9C617.4,557.5,618.7,559.3,619.7,560.3z
			 M573.9,445.8c11.7,29.4,29.5,73.9,44.4,97.5c3.1,5,6.7,10.9,6,13.1c-0.2,0.8-1.2,1.3-2.7,1.9c-6.6-5.4-44.1-90.1-54-128
			C569.4,434.6,571.6,440,573.9,445.8z"/>
		<path class="st0" d="M757,574.5c-1.6,3-2,6.2-1.5,9.2c0.9-0.1,1.9-0.2,2.8-0.4c-0.5-2.5-0.1-5.1,1.1-7.6c2.6-5,6.2-11.2,12.1-18.3
			c0.6-1.7,1.5-3.6,2.9-5.8c0.5-0.7,1-1.9,1.6-3.4C765.9,558.8,760.5,567.7,757,574.5z"/>
		<path class="st0" d="M799.2,579.3c1-0.1,1.9-0.2,2.9-0.2c0.6-7.8-1-18.4-3.3-25.2c-0.5,1.7-1,3.2-1.5,4.3c0,0.1-0.1,0.1-0.1,0.2
			C798.8,564.8,799.8,573.2,799.2,579.3z"/>
		<path class="st0" d="M779.1,540.3c-0.2,0.5-0.3,0.9-0.5,1.3c-0.9,2.5-1.8,4.9-2.5,6.8c-0.6,1.4-1.1,2.6-1.6,3.4
			c-1.4,2.2-2.3,4.1-2.9,5.8c-0.8,2.4-0.8,4.3-0.1,5.9c1.4,2.9,5,3.8,8,4.2c0.9,0.1,1.8,0.2,2.6,0.2c7.7,0,12.8-4.9,15-9.5
			c0-0.1,0.1-0.1,0.1-0.2c0.5-1.1,1-2.6,1.5-4.3c1.1-3.8,2-8.7,2.5-13.8c0.1-1,0.2-1.9,0.3-2.9c0.6-7.3,0.3-14.5-1.7-18.7
			c-0.4,2.4-0.8,4.5-1.3,6.2c1.2,9.5-0.9,25.6-4,32.3c-2,4.3-7,8.9-14.7,7.9c-3.4-0.5-5.2-1.3-5.8-2.6c-0.8-1.7,0.2-4.8,2.8-9
			c1.4-2.2,3-6.7,4.9-12c1.7-4.9,3.8-10.7,6-15.4c-0.1-1.7,0-3.9,0.5-6.8c-3.2,4.6-6,12.3-8.6,19.6
			C779.5,539.2,779.3,539.7,779.1,540.3z"/>
		<path class="st0" d="M787.8,525.9c0.1,1.7,0.5,2.9,1.2,3.7c1.4,1.8,3.7,1.9,5.8,2c0,0,0,0,0.1,0c0.4,0,1-0.1,1.6-0.8
			c0.7-0.8,1.4-3,2.2-6.1c0.4-1.8,0.8-3.9,1.3-6.2c2.4-13.3,4.6-35,6.1-54.8c3-39.6,3.2-71.3,0.4-84.8c-0.2-1.1-0.6-2.8-2.2-2.8
			c-2.1,0.1-2.4,0.2-4.9,38.3c-2,31.2-4.8,74-9.9,98.6c-0.5,2.4-0.9,4.4-1.1,6.2C787.9,522,787.7,524.2,787.8,525.9z M794.5,528.7
			c-1.6-0.1-2.7-0.2-3.2-0.8c-1.4-1.8-0.2-8.6,1-14.4c5.2-24.9,8-67.7,10-99c0.8-11.9,1.5-23.3,2.2-30.1
			C809.1,421.6,798.7,521.6,794.5,528.7z"/>
		<path class="st0" d="M1004.7,849.2c-7.6,5.2-15.3,10.1-22.8,15c-44.3,28.4-85.6,44.9-176.9,50.8c-89.8,5.8-148.7-10.2-201.1-27.4
			c-1.6,0.5-3.2,0.9-4.8,1.4c0.8,0.3,1.7,0.6,2.5,0.9c20,6.6,41,13,64.2,18.1c2.9,0.7,5.9,1.3,8.9,1.9c25.6,5.2,54,8.6,87,9.1
			c2.1,0,4.2,0.1,6.3,0.1c0.1,0,0.3,0,0.4,0c11.7,0,23.9-0.4,36.8-1.2c18.4-1.2,34.8-2.8,49.6-4.9c1.6-0.2,3.3-0.5,4.8-0.7
			c22.1-3.3,40.6-7.6,57.1-13c2-0.6,3.9-1.3,5.8-2c22.7-8,41.6-18.2,61-30.7c8.7-5.6,17.4-11.1,26.1-17.2
			C1007.9,849.4,1006.3,849.3,1004.7,849.2z"/>
		<path class="st0" d="M506.8,693.6c6.8-4.7,13.8-9.6,20.3-14.7c32.2-25.4,64.8-49.7,109.4-67.9c33.3-13.5,139.2-30.9,208.8-30.9
			c12.1,0,23.2,0.5,32.5,1.7c8.3,1,15.7,1.8,22.8,2.5c22,2.1,41,4,69.1,13.9c17.5,6.2,35.6,13.9,56.5,22.9
			c11.9,5.1,24.2,10.4,37.7,15.9c0.5-0.7,1.1-1.4,1.6-2.1c0-0.1,0.1-0.2,0.1-0.3c-13.7-5.6-26.2-11-38.2-16.1c-2.4-1-4.7-2-7-3
			c-1-0.4-2.1-0.9-3.1-1.3c-16.8-7.2-31.8-13.4-46.6-18.6c-5.3-1.9-10.3-3.5-15.1-4.8c-1-0.3-2-0.5-2.9-0.8
			c-19.2-5.2-34.6-6.7-51.7-8.4c-4.7-0.5-9.6-0.9-14.7-1.5c-1-0.1-2-0.2-3.1-0.3c-1.6-0.2-3.2-0.4-4.9-0.6c-15.6-2-36-2.1-58.3-1
			c-1.3,0.1-2.7,0.1-4,0.2c-4.5,0.2-9.1,0.5-13.8,0.9c-0.9,0.1-1.9,0.2-2.9,0.2c-13.4,1-27.2,2.4-40.9,4.1c-1,0.1-1.9,0.2-2.8,0.4
			c-28.1,3.5-55.5,8.1-77.9,13c-0.9,0.2-1.9,0.4-2.8,0.6c-16.8,3.7-30.5,7.5-39.3,11.1c0,0,0,0-0.1,0c-0.9,0.3-1.7,0.7-2.5,1.1
			c-3.8,1.6-7.6,3.2-11.2,4.9c-1.2,0.5-2.3,1.1-3.5,1.6c-18.7,8.8-35.3,18.8-50.8,29.4c-0.8,0.6-1.6,1.1-2.5,1.7
			c-12.6,8.7-24.6,17.9-36.5,27.2c-0.8,0.6-1.5,1.2-2.3,1.8c-0.3,0.2-0.5,0.4-0.8,0.6c-6.4,5-13.4,9.9-20.2,14.6
			c-5.9,4.1-11.8,8.2-17.2,12.3c-0.8,0.6-1.6,1.3-2.4,1.9c-14.9,11.7-26.2,24.3-26.4,40.8c0,1.6,0.1,3.3,0.3,5c1,0.5,2.1,1,3.1,1.5
			C458.3,727.3,481.9,710.9,506.8,693.6z"/>
		<path class="st0" d="M575,764.6c7.6-0.4,15.6-0.8,23.9-1.1c19-0.9,35.6-3.1,50.2-5.2c37.5-5.1,64.5-8.9,98.6,14.1l1.6,1.1l0.6-1.8
			c14.7-45.6,73.9-45.5,131.2-45.4l8.5,0c17.7,0,42.4-0.9,69.3-2.5c1.5-1,3-2,4.6-3.1c-3.6,0.2-7.3,0.5-10.9,0.7
			c0.1,0.3,0.3,0.6,0.4,1l-2.7,1c-0.2-0.6-0.5-1.2-0.8-1.8c-21.9,1.2-42.7,1.9-59.9,1.9l-8.5,0c-17.4,0-34.9-0.1-51.4,1.2l-0.3,1.7
			c-1.4-0.3-2.6-0.8-3.8-1.4c-36.3,3.2-66.9,13.2-77.8,44.1c-34.2-22.5-61.5-18.7-99-13.6c-2.4,0.3-4.8,0.7-7.3,1
			c-0.6,0.5-1.3,1-2,1.4l-0.6-1.1c-12.1,1.6-25.4,3.1-40.2,3.8c-8.4,0.4-16.3,0.8-23.9,1.1c-8.2,0.4-15.9,0.8-23.3,1.1
			c-0.3,0.3-0.6,0.6-0.8,0.9l-0.9-0.8c-26.1,1.1-47.9,1.4-67.8-0.8c2.6,1.2,5.3,2.4,7.9,3.6C513.9,767.6,541,766.3,575,764.6z"/>
		<path class="st0" d="M572.8,749.5c2.8-0.6,7.6,0.2,12.7,1c12.4,1.9,29.5,4.5,35.6-9.2c3.3-7.3-1.2-23.2-5.9-40
			c-4.1-14.6-8.3-29.8-7.1-38.5c-0.5-0.2-1.1-0.4-1.6-0.7l1.1-2.6c0.4,0.2,0.8,0.3,1.2,0.5c4.4-12.9,28.1-23.6,70.6-31.8
			c7.6,2.7,11,13.3,15,25.5c0.8,2.6,1.7,5.2,2.6,7.9c0.6-0.1,1.3-0.2,1.8-0.2l0.2,2.9c-0.3,0-0.7,0.1-1.1,0.1
			c5.3,14.2,12.9,27.5,30.3,30l0.2-1.4l-1.4,0.2c-0.1-0.6-0.2-1.4-0.4-2c-18.4-3.8-24.4-22.1-29.7-38.3
			c-3.4-10.6-6.7-20.8-13.3-25.4c-0.5,0.5-1,1-1.4,1.5l-2.4-1.6c0.3-0.5,0.7-0.9,1.1-1.4c-0.4-0.2-0.8-0.4-1.3-0.5l-0.3-0.1
			l-0.4,0.1c-45.2,8.7-70,20.6-73.6,35.2c-2.3,9.1,2.4,25.6,6.8,41.6c4.4,15.5,8.9,31.6,6,38c-5.3,11.8-20.4,9.4-32.6,7.6
			c-5.6-0.9-10.4-1.6-13.7-0.9c-12.3,2.4-19.7,10.7-23.7,15.1l1.2,1.1l0.9,0.8c0.2-0.3,0.5-0.6,0.8-0.9
			C555.4,758.5,562.1,751.6,572.8,749.5z"/>
		<path class="st0" d="M646.6,732.2c-1.7-8.1-3.3-16.3-4.8-24.3c-2.2-11.7-4.1-21.9-6-28.8c-0.7-2.6-2-4.8-3.6-6.6
			c-3.1-1.1-6.1-2.2-9-3.3c4.7,2.5,8.5,5.8,9.8,10.7c1.9,6.9,3.9,17.4,6,28.6c1.5,8,3.1,16.2,4.8,24.3c2.2,10.3-0.1,19.6-5.7,22.6
			l0.8,1.5l0.6,1.1c0.7-0.4,1.4-0.9,2-1.4C646.8,752,648.8,742.7,646.6,732.2z"/>
		<path class="st0" d="M611.4,661.1c0.6,0.3,1.3,0.6,2.1,0.9c2.9,1.3,6.7,2.9,10.9,4.5c-3.6-1.9-7.5-3.4-11.3-4.8
			C612.5,661.5,612,661.3,611.4,661.1z"/>
		<path class="st0" d="M608,662.7l1-2.6c0,0-0.1,0-0.1,0c-0.4-0.2-0.8-0.3-1.2-0.5l-1.1,2.6c0.5,0.2,1.1,0.4,1.6,0.7
			c0.7,0.3,1.5,0.6,2.2,0.9C609.4,663.3,608.6,663,608,662.7z"/>
		<path class="st0" d="M698.9,661.3c-0.6,0-1.2,0.1-1.8,0.2c-11.1,1.2-26.6,6.2-39.2,10.2c-2.5,0.8-5,1.6-7.3,2.3
			c-8.5-1.1-18.2-4.4-26.3-7.5c-4.2-1.7-8-3.3-10.9-4.5c-0.8-0.3-1.4-0.6-2.1-0.9c-1-0.4-1.8-0.8-2.4-1l0,0.1l-1,2.6
			c0.6,0.2,1.4,0.6,2.4,1c0.6,0.3,1.2,0.5,2,0.8c2.9,1.3,6.7,2.9,10.9,4.6c2.8,1.1,5.9,2.3,9,3.3c6.1,2,12.5,3.8,18.3,4.5l0.3,0
			l0.3-0.1c2.4-0.7,4.9-1.6,7.6-2.4c12.7-4.1,28.5-9.1,39.3-10.1c0.3,0,0.7-0.1,1.1-0.1L698.9,661.3z"/>
		<path class="st0" d="M680.2,627.2l2.4,1.6c0.4-0.5,0.8-1,1.4-1.5c4.8-4.4,16.4-7.7,24.8-5.5c5,1.3,7.8,4.4,8.2,9.2
			c1.1,13.3,4.3,30,7.1,44.8c1.1,5.5,2.1,10.8,2.8,15.3c0.1,0.7,0.2,1.4,0.4,2l1.4-0.2l-0.5-1.4c0.6-0.2,1-0.4,1.6-0.6
			c-0.8-4.6-1.8-9.9-2.9-15.6c-2.8-14.7-6-31.3-7.1-44.5c0-0.1,0-0.2,0-0.3l-2.8,0.6c-0.5-2.5-0.4-4.8,0.4-7c-1.8-2.4-4.4-4.1-7.8-5
			c-9-2.4-22.6,1-28.1,6.8C680.9,626.3,680.5,626.8,680.2,627.2z"/>
		<path class="st0" d="M910.7,699.8c-3,0.3-8,2.2-14.3,4.6c-15.6,5.9-39.3,14.8-46.7,3.6c-3-4.5-3.9-20.8-4.6-36.5
			c-1-19.9-2-40.5-7.2-49.2c-9.4-15.7-45.3-12.1-80.1-8.5l-1.5,0.2l-0.3,0.2c-0.8,0.6-1.6,1.3-2.3,2c0,0,0.1,0.1,0.1,0.1l-1.8,2.2
			c0,0,0,0,0,0c-4,6.6-4.1,16.9-4.3,27.7c-0.2,18.6-0.5,37.8-17.9,44.8c-0.5,0.2-1,0.4-1.6,0.6l0.5,1.4l0.5,1.4
			c18-6,20.7-22.9,21.3-39.6c-0.5,0.1-1,0.2-1.5,0.3l-0.6-2.8c0.7-0.2,1.4-0.3,2.2-0.4c0-1.8,0.1-3.7,0.1-5.5
			c0.1-12.7,0.3-24.7,6.7-29.5l0.8-0.1c31.5-3.2,67-6.8,76.6,6.1c0.4-0.3,0.8-0.6,1.1-0.8l1.7,2.3c-0.4,0.3-0.8,0.6-1.3,1.1
			c4.2,8.9,5.2,28.8,6,46.4c0.9,17.5,1.6,32.7,5.1,37.9c8.7,13.1,33.6,3.7,50.1-2.5c5.9-2.2,11-4.1,13.6-4.4
			c20.2-2,34.3,10.5,38.6,19c0.3,0.6,0.6,1.2,0.8,1.8l2.7-1c-0.1-0.3-0.3-0.6-0.4-1C948,710.7,931.5,697.7,910.7,699.8z"/>
		<path class="st0" d="M818.9,706.9c-0.7-8.3-1.6-16.6-2.4-24.6c-1.2-11.3-2.3-22-2.5-29.2c-0.2-8.7,7.8-14.9,15.7-20.9
			c1.6-1.2,3.2-2.5,4.7-3.7l-0.9-1.1c-4.1,3.3-10.5,8.4-17.5,13.2c-3,3.6-5,7.7-4.8,12.6c0.2,7.2,1.3,17.5,2.5,29.4
			c0.9,8,1.7,16.3,2.4,24.6c0.8,9.2,4,15.1,9.5,17.9c1.2,0.6,2.4,1.1,3.8,1.4l0.3-1.7l0.2-1.1C823.4,722.2,819.8,716.7,818.9,706.9z
			"/>
		<path class="st0" d="M798.1,650.7l0.3,0l0.3-0.1c5.5-2.4,11.6-6.1,17.3-10c7-4.8,13.4-9.9,17.5-13.2c0.4-0.3,0.8-0.7,1.2-1
			c0.5-0.4,1-0.8,1.4-1.2c0.5-0.4,1-0.8,1.3-1.1l-1.7-2.3c-0.3,0.2-0.7,0.5-1.1,0.8c-0.5,0.4-1.1,0.9-1.8,1.4
			c-6.7,5.4-22.4,18.1-35,23.6c-13.6-0.1-33.7,1.2-47.4,3.9c-0.7,0.1-1.5,0.3-2.2,0.4l0.6,2.8c0.5-0.1,1-0.2,1.5-0.3
			C763.9,651.9,784.3,650.6,798.1,650.7z"/>
		<path class="st0" d="M716.9,631.1l2.8-0.6l0,0c-1-4.7,0.8-8.4,5.2-11.2c8.1-5,22.1-4.7,27-0.9c0,0,0,0,0,0l1.8-2.2
			c0,0-0.1-0.1-0.1-0.1c-6.3-4.9-21.7-4.5-30.2,0.7c-3.1,1.9-5.1,4.4-6.1,7.2C716.5,626.3,716.3,628.6,716.9,631.1z"/>
		<path class="st0" d="M603.8,887.6c7.6-2.2,14.4-4.4,20-6.6c6.3-2.5,10.3-9.7,9-16.5c-0.9-4.7-4.1-8-8.9-9.6
			c-1.7,0.6-3.6,1.3-5.7,1.9c6.6,0.2,10.9,3.2,11.8,8.2c1,5.4-2.2,11.4-7.3,13.4c-48.6,18.8-190.5,41.2-207.7,39.8
			c-5.1-0.4-9.1-2.3-12.4-4.9c-1.2,0.2-2.4,0.4-3.7,0.6c3.9,3.7,9.1,6.6,15.9,7.2c0.6,0,1.2,0.1,2,0.1c21,0,123-15.7,182.2-32.1
			C600.6,888.5,602.2,888.1,603.8,887.6z"/>
		<path class="st0" d="M390.4,866.6c0.3-0.9,0.7-1.7,1.2-2.3c0.1-0.1,0.2-0.2,0.2-0.3c-1.1-0.1-2.1-0.3-3.2-0.4
			c-0.5,0.9-0.9,1.9-1.3,3C388.4,866.6,389.4,866.6,390.4,866.6z"/>
		<path class="st0" d="M402.6,913.3c14.8-2.5,24.5-6.7,28.7-12.8c2.8-4.1,3.2-8.9,1.2-14.3c-3.6-9.6-12.6-15.8-26.7-18.3
			c-4.9-0.9-10.1-1.3-15.4-1.3c-1,0-2,0-3,0c-20,0.5-39.7,6.2-43.5,10.5c-4.2,4.8-6.2,15.8-2,25c0.2,0.4,0.5,0.8,0.7,1.3
			c-0.1-2.9,0-5.6,0.2-8.1c-1.1-6.5,0.4-13,3.2-16.3c3.2-3.7,24.2-9.6,44.5-9.6c5.1,0,10.1,0.4,14.8,1.2
			c13.1,2.4,21.4,7.9,24.6,16.5c1.7,4.6,1.4,8.4-0.9,11.7c-3.6,5.1-13.6,11.1-40.2,13.2c0.2,0.9,0.3,1.9,0.4,2.8
			c3.5-0.3,6.7-0.6,9.8-1.1C400.2,913.7,401.4,913.5,402.6,913.3z"/>
		<path class="st0" d="M388.7,912.1c-0.4-2.1-0.8-4.2-1.4-6.3c-1.9-6.9-18.2-22.7-30.1-25.5c-5.4-1.3-8.5,0.6-10.1,2.3
			c-2.5,2.8-3.9,7.2-4.4,12.7c-0.2,2.5-0.3,5.2-0.2,8.1c0.6,20.4,8.4,48.7,12.8,63.1c8.5,27.5,39.9,88.8,47.1,88.8
			c0.7,0,1.3-0.3,1.7-0.9c1.1-1.5,0.2-4.3-2.6-12.6c-3.9-11.5-10.5-30.7-12.5-54.8c-1.5-17.6-0.6-31.6,0.1-44
			c0.6-10.6,1.1-19.5,0.1-28C389,914,388.9,913,388.7,912.1z M386.2,942.7c-0.7,12.5-1.5,26.6-0.1,44.4c2,24.5,8.7,43.9,12.7,55.5
			c1.2,3.5,2.4,7,2.8,8.9c-6.9-6.9-33.7-54.1-43.5-86c-12.9-41.8-16.2-72.9-8.8-81.1c1.6-1.7,4-2.2,7.3-1.5
			c11.2,2.6,26.5,18,28,23.5C387.6,917.4,387,928.6,386.2,942.7z"/>
		<path class="st0" d="M391.8,864c31.1,4.2,66.2,7.6,95.4,7.7c0.1,0,0.3,0,0.4,0c55.6,0,105.4-7.1,130.5-14.8c2.1-0.6,4-1.3,5.7-1.9
			c0.3-0.1,0.7-0.2,1-0.4c4-1.5,5.9-5.1,5.1-9.8c-0.6-4.1-3.2-8.5-7-12.1c-0.4,0.9-0.8,1.8-1.3,2.6c3.1,3.2,5,6.9,5.5,9.9
			c0.4,2.3,0.1,5.4-3.3,6.7c-21.7,8.4-75.5,16.9-136.2,16.9c-0.1,0-0.3,0-0.4,0c-47.8,0-111.3-9.3-147.3-15.7
			c-0.1,0.9-0.3,1.9-0.4,2.8c13.3,2.4,30.4,5.1,49.1,7.7C389.7,863.7,390.7,863.9,391.8,864z"/>
		<path class="st0" d="M296.6,809.8c0.5-8.8,3.5-17.5,10.9-22.5c0.4-0.3,1.1-0.4,2.1-0.4c6.4,0,24.5,5.4,42,10.7
			c20.1,6.1,45.1,13.6,67.5,18c31.6,6.2,62.3,10.5,88.1,12.5c-7.2-1.5-14.6-3.2-22-5c-20.4-2.3-42.7-5.8-65.6-10.3
			c-22.3-4.4-47.2-11.9-67.2-18c-27.8-8.4-42.5-12.7-46.5-10c-11.2,7.5-13.4,22.4-11.7,34.7C294.9,816,295.7,812.7,296.6,809.8z"/>
		<path class="st0" d="M339.9,853.1c2-14,3.1-27.1,2.4-35.8c-0.5-6-3.8-11.9-9.1-16.1c-6.2-5-14.2-7.1-22.7-5.9
			c-7.8,1.1-11.5,6.3-14,14.6c-0.9,2.9-1.7,6.2-2.4,9.9c-0.4,1.9-0.8,3.8-1.2,5.9c-2.4,12.6-5.5,28.3-13.3,46.1
			c-6.3,14.5-13.4,26-19.1,35.2c-9.5,15.5-15.8,25.7-9.3,35.1c1.7,2.5,4.7,4.8,8.3,6.7c-0.5-1.4-0.9-2.8-1.2-4.1
			c-2.1-1.4-3.7-2.9-4.7-4.3c-5.4-7.8,0.1-16.9,9.4-31.9c5.7-9.3,12.9-20.9,19.3-35.6c7.9-18.1,11-33.9,13.4-46.7
			c3.2-16.6,5.2-26.7,15.2-28.1c1.4-0.2,2.8-0.3,4.1-0.3c6.1,0,11.8,1.9,16.3,5.6c4.6,3.7,7.6,9,8,14.1c1.4,17.6-4.6,53.1-10.7,78.6
			c-5.2,21.6-11.2,32.4-18.3,43.5c0.7,0.8,1.3,1.6,1.8,2.5c7.6-11.6,13.9-22.6,19.3-45.3c2.9-12.3,5.8-26.9,7.9-40.8
			C339.7,855,339.8,854,339.9,853.1z"/>
		<path class="st0" d="M310.5,939.5c-1.5-1.9-3.3-3.7-5.4-5.4c-5.4-4.5-28.2-10.8-39.9-7.1c-3.9,1.2-6.3,3.4-7.1,6.5
			c-0.9,3.1-0.7,6.9,0.3,11.1c0.3,1.3,0.7,2.7,1.2,4.1c4.7,13.4,17.2,31.2,36.5,51.2c22.9,23.8,82.2,55.3,91.8,55.3
			c0.4,0,0.7-0.1,0.9-0.2c0.6-0.3,0.9-0.8,1-1.4c0.3-1.8-1.8-3.9-9.8-11.5c-13-12.3-37.2-35.3-52.4-64.9c-4-7.7-6.3-14.1-8.3-19.7
			c-2.1-5.8-3.9-10.9-7-15.6C311.7,941.1,311.1,940.3,310.5,939.5z M386.1,1052.2c-10.9-3-64.7-30-88-54.3
			c-26.7-27.8-40.6-51.6-37.3-63.6c0.6-2.1,2.3-3.6,5.2-4.5c2.2-0.7,4.9-1,7.8-1c11,0,25.4,4.3,29.4,7.6c7.7,6.3,10.1,13,13.4,22.2
			c2,5.7,4.4,12.2,8.4,20.1c15.4,30,39.9,53.2,53,65.6C381.4,1047.4,384.5,1050.4,386.1,1052.2z"/>
		<path class="st0" d="M507.1,828.2c39.5,8.4,75.1,13.2,96,13.2c4,0,7.5-0.2,10.3-0.5h0c3.4-0.4,6.3-2.6,8.2-5.6
			c0.5-0.8,1-1.7,1.3-2.6c0.6-1.6,1-3.3,1-5.1c0-1.8-0.2-3.8-0.9-5.7c0,0.1,0,0.2,0,0.3c-0.1,1.8-0.8,3.4-2,4.7c0,0.2,0,0.4,0,0.6
			c-0.1,5.5-3.6,10-8.1,10.6c-27.2,3.5-112.7-10.3-186.4-34c-66-21.2-117.3-41.5-133.9-53.1c-3.9-2.7-6.9-5.8-9.2-9.2
			c-1.1,0-2.3,0-3.5-0.1c2.6,4.3,6.1,8.2,11,11.6c16.8,11.7,68.4,32.2,134.7,53.4c19.4,6.2,39.5,11.7,59.3,16.5
			C492.6,825,499.9,826.6,507.1,828.2z"/>
		<path class="st0" d="M283.6,741.7c0.9,0,1.9,0.1,2.8,0.1c2.9,0,5.6-0.2,8.1-0.5c-1.3-0.8-2.7-1.7-4-2.5c-8.9,0.6-20-0.8-31.8-2.3
			c-4.6-0.6-9.2-1.2-13.9-1.7c-14.2-1.5-25.9-1.4-37.2-1.2c-8.6,0.1-16.7,0.2-25.4-0.4c-1.3-0.1-2.5-0.2-3.6-0.4
			c-1.3,0.7-2.7,1.3-4.2,2c2.3,0.7,4.8,1.1,7.6,1.3c8.9,0.6,17,0.5,25.7,0.4c11.2-0.2,22.8-0.3,36.9,1.2c0,0,0,0,0,0
			c4.7,0.5,9.3,1.1,13.9,1.7c7.7,1,15,1.9,21.8,2.3C281.4,741.7,282.5,741.7,283.6,741.7z"/>
		<path class="st0" d="M165.3,693.7c8.8-10.9,35.1-10.9,62.9-7.8c-1-1.1-2-2.1-3.1-3.2c-30.3-3.1-56.8-2.1-64,12.1
			C162.6,694.4,164,694.1,165.3,693.7z"/>
		<path class="st0" d="M178.5,732.8c6.9-3.5,12.3-7,15.8-10c4.3-3.7,5.6-9.6,3.7-16.3c-2.2-7.6-8-14.2-13.3-15
			c-5.5-0.9-11.9,0.3-19.5,2.2c-1.3,0.3-2.7,0.7-4.1,1.1c-1.8,0.5-3.7,1-5.7,1.6c-14.2,4.1-31.9,9.1-55.3,10.4l-0.7,0
			c-38.7,2.2-75.4,4.2-90.4,0c-4.5-1.3-7.2-1.2-8.5,0.3c-0.5,0.6-1,1.8-0.2,3.6c4.3,9.3,49.7,38.8,104.8,38.8
			c27.7,0,52.1-7,69.1-14.8C175.8,734.1,177.2,733.5,178.5,732.8z M2.8,709.1c0.1-0.1,1.2-0.6,5.5,0.6c15.5,4.3,50.6,2.4,91.3,0.1
			l0.7,0c23.7-1.3,41.6-6.4,55.9-10.5c11.6-3.3,20.8-5.9,28-4.8c4.1,0.6,9.1,6.6,11,13c0.9,3.3,1.8,9.3-2.8,13.3h0
			c-9.8,8.5-44.1,26-87.2,26c-50.2,0-91.9-24.7-100.8-35C3,709.9,2.9,709.1,2.8,709.1z"/>
		<path class="st0" d="M400.7,274.9c-9.5,6.5-17.8,12.1-20.5,14.5l-0.7,0.6l0.2,0.9c1,3.7,1.9,12.3,1.9,16.3
			c-1.8-1.8-4.4-4.8-5.9-6.6c-2.5-2.8-2.6-2.9-2.9-3.1l-0.9-0.6l-0.8,0.8c-11.8,11.2-22,22.3-31,34l-0.5,0.7l0.3,0.8
			c1.8,4.2,3.6,11.1,3.7,14.2c-0.1-0.1-0.3-0.2-0.4-0.3c-2.5-1.9-6.3-4.7-8.8-5.9l-1.1-0.5l-0.7,1c-9.5,13.6-17.5,27.8-24.4,43.3
			l-0.2,0.5l0.4,1.1c3,8.1,4.1,11.8,4.5,13.3c-0.6-0.2-1.4-0.4-2-0.5c-2.5-0.7-5.3-1.4-7.1-1.3l-0.9,0.1l-0.3,0.9
			c-3.5,9.7-6,19.7-8.2,28.6c-1,3.8-1.9,7.5-2.9,11c1.3-1.2,2.6-2.4,4-3.7c0.6-2.1,1.1-4.3,1.7-6.6c2.3-8.9,4.6-18.1,7.8-27.4
			c1.4,0.1,3.6,0.7,5.2,1.2c3.6,1,5.2,1.4,5.8-0.2c0.2-0.7,0.6-1.6-4.8-16.3c6.5-14.8,14.1-28.3,23.1-41.3c2.2,1.2,5.3,3.5,7.2,5
			c2.5,1.9,3.2,2.4,4.1,1.3c2.5-2.9-1.6-14.7-2.8-17.9c8.6-11,18.1-21.5,29.2-32c0.4,0.5,0.9,1.1,1.5,1.8c7.9,9,8.2,9,9.2,8.9
			l0.8-0.1l0.4-0.6c1.4-2.3-0.2-15-1.2-19.7c3.1-2.6,11.1-8,19.5-13.7c10.6-7.2,19.3-13.1,25.2-17.6c0.2-0.4,0.4-0.9,0.7-1.4
			c0.6-1.3,1.2-2.4,1.7-3.5c-0.4,0.2-0.9,0.3-1.3,0.5C421.8,260.7,409.7,268.9,400.7,274.9z"/>
		<path class="st0" d="M376.8,297.1c0.2,0,0.4,0,0.6-0.1c0.4-0.1,0.9-0.4,1.2-1.3c0.7-2.1,0-10-2.2-15.6c-0.8,0.6-1.6,1.1-2.4,1.7
			c1.4,4.1,2,9.4,2,11.9c-0.7-0.5-1.6-1.2-2.4-1.8c-1.8-1.4-4.1-3.2-6.7-4.8c-0.8,0.6-1.6,1.2-2.4,1.9c2.8,1.7,5.3,3.6,7.3,5.2
			C374.2,296.1,375.6,297.1,376.8,297.1z"/>
		<path class="st0" d="M277.6,433.8c0.7,0,1.2-0.2,1.6-0.5c0.3-0.2,0.7-0.8,0.5-1.8c-0.5-2.3-7-11.5-13.4-16.8
			c-0.4,0.9-0.8,1.9-1.1,2.8c4.6,4.1,9.4,10.4,11.1,13.3c-0.8-0.2-1.9-0.5-2.9-0.8c-3.2-0.9-7.4-2-12-2.4c-0.3,0.9-0.7,1.8-1,2.8
			c4.6,0.3,9,1.5,12.2,2.4C275,433.4,276.5,433.8,277.6,433.8z"/>
		<path class="st0" d="M301.2,386.5c0.4,0,0.7-0.1,1-0.3c0.3-0.1,0.9-0.6,0.9-1.6c-0.1-2.8-5.8-13.6-11.5-19.3
			c-0.5,0.8-1,1.7-1.5,2.5c4.2,4.4,8.5,11.9,9.8,15.3c-0.8-0.3-1.8-0.8-2.7-1.2c-3.2-1.5-7.7-3.5-12.6-4.6c-0.5,0.9-1,1.8-1.5,2.6
			c5,1,9.6,3.1,12.9,4.6C298.6,385.8,300.1,386.5,301.2,386.5z"/>
		<path class="st0" d="M334.9,338.7c0.3,0,0.6-0.1,0.8-0.2c0.3-0.1,0.9-0.5,1-1.6c0.2-2.4-3.3-11-7.5-17.3c-0.7,0.7-1.4,1.4-2.1,2.1
			c3,4.7,5.6,10.6,6.5,13.5c-0.8-0.4-1.7-0.9-2.6-1.4c-2.7-1.6-6.4-3.6-10.6-5.2c-0.7,0.8-1.4,1.5-2.1,2.3c4.4,1.5,8.4,3.8,11.3,5.4
			C332.2,337.9,333.7,338.7,334.9,338.7z"/>
		<path class="st0" d="M219.7,396.5c12-24.6,38.7-64.5,79.9-96c40.7-31.1,86.4-50.3,110.5-53.3c4.1-0.5,7.7-0.7,10.9-0.7
			c7.2,0,11.9,1.1,13.6,2c0.6-0.4,1.3-0.5,2-0.4c0.6,0.1,1.1,0.4,1.6,1c0-0.4-0.1-0.8-0.2-1c-1.8-4.4-15.8-5.2-28.1-3.7
			c-24.5,3-70.8,22.5-111.9,53.9c-41.3,31.5-68.1,71.5-80.5,96.5l1.1,0.2C219.2,395.1,219.5,395.2,219.7,396.5z"/>
		<path class="st0" d="M392.1,267.3c-21.4,10.1-66,47-91.4,79.6c-16.7,21.4-41.7,69.3-47.8,99.7c0.9,0.3,1.8,0.5,2.8,0.8
			c1-5.2,2.6-11,4.7-17c0.3-0.9,0.6-1.8,1-2.8c1.2-3.3,2.5-6.7,3.9-10.1c0.4-0.9,0.8-1.9,1.1-2.8c4.8-11.6,10.7-23.7,16.7-34.6
			c0.5-0.9,1-1.8,1.5-2.6c1.8-3.3,3.7-6.5,5.5-9.6c0.5-0.9,1-1.7,1.5-2.5c4-6.5,7.9-12.2,11.4-16.7c4.5-5.8,9.7-11.8,15.2-17.7
			c0.7-0.8,1.4-1.5,2.1-2.3c2.2-2.3,4.5-4.6,6.8-6.9c0.7-0.7,1.4-1.4,2.1-2.1c11.5-11.3,23.9-22.1,35.2-30.8
			c0.8-0.6,1.6-1.3,2.4-1.9c2.4-1.8,4.8-3.6,7.1-5.3c0.8-0.6,1.6-1.1,2.4-1.7c6.4-4.5,12.3-8,16.9-10.2c12.8-6,24.8-10.6,32.7-13.6
			c1-0.4,1.9-0.7,2.7-1c0.5-0.2,0.9-0.3,1.3-0.5c0.8-1.6,1.5-2.9,2.3-4c-1.8,0.7-4.4,1.7-7.3,2.8C417,256.7,404.9,261.3,392.1,267.3
			z"/>
		<path class="st0" d="M195.3,611c-5.9-24.4-9.8-51.7-12.3-75.4c-4.9-45.1,4.3-109.4,12.7-122.6c6.4-10.1,15.8-12.9,20.3-14.2
			c0.4-0.1,0.8-0.2,1.1-0.3c0,0.7,0.1,1.6,0.1,2.4c0.8,14.9,2.3,30.8,7.5,35.4c10.4,9,43,21.2,56.2,14c14.8-8,36-33.7,56.6-58.6
			c7.5-9.1,14.5-17.6,21.2-25.2c20.1-22.9,56-77.7,70.5-103.4c0.5-0.9,1.1-2.2,1.8-3.6c1.2-2.5,3.9-8.3,5-8.6c0.2,0.1,1.5,1.3,2,11
			c1.2,23.6-9.2,57-13.6,71.3l-0.1,0.5c-4.5,14.4-24.9,52-44.7,88.4c-14.5,26.7-28.3,51.9-35.7,68c-14.2,30.5-18,52.7-21.5,77.2
			c1.1-0.9,2.2-1.8,3.2-2.7l0.1-0.1c3.3-23.1,7.4-44.5,20.8-73.3c7.4-16,21.1-41.2,35.6-67.8c19.9-36.5,40.4-74.2,44.9-88.9l0.1-0.5
			c4.5-14.4,15-48.1,13.7-72.3c-0.4-7-1.2-11-2.7-12.7c-0.5-0.5-1-0.8-1.6-1c-0.7-0.1-1.3,0-2,0.4c-0.8,0.4-1.5,1.2-2.3,2.3
			c-0.7,1.1-1.5,2.4-2.3,4c-0.5,1.1-1.1,2.2-1.7,3.5c-0.2,0.5-0.4,0.9-0.7,1.4c-0.4,0.8-0.7,1.5-1,2
			c-14.4,25.7-50.2,80.2-70.1,102.9c-6.7,7.6-13.8,16.2-21.3,25.3c-13.6,16.5-27.5,33.3-39.5,45c-1.3,1.3-2.7,2.6-4,3.7
			c-4.4,4-8.6,7.2-12.3,9.2c-5.2,2.8-14.3,2-23.7-0.4c-0.9-0.2-1.8-0.5-2.8-0.8c-10.9-3.2-21.6-8.3-26.4-12.5
			c-5-4.3-6.1-25.4-6.5-33.3c-0.1-2.2-0.2-3.5-0.3-4.3c-0.2-1.2-0.5-1.4-1.2-1.6l-1.1-0.2l0,0l-0.3,0.7c-0.4,0.2-1.2,0.4-1.9,0.6
			c-4.8,1.4-14.9,4.4-21.9,15.4c-9.4,14.8-17.7,81.7-13.1,124.4c2.5,23.6,6.4,50.8,12.3,75.2C193.3,611.1,194.3,611.1,195.3,611z"/>
		<path class="st0" d="M228.2,685.9c19.3,20.3,41.1,39.2,62.3,52.9c1.3,0.9,2.7,1.7,4,2.5c4.9,3,9.8,5.7,14.6,8.1
			c12.2,6,166.8,60,207.1,67.9c4.6,0.9,9.6,1.9,14.7,3c25.7,5.3,53.7,11,72.1,11c7.8,0,13.9-1,17.2-3.6c0.4-0.3,0.7-0.6,1-0.9
			c1.2-1.3,1.9-2.9,2-4.7c0-0.1,0-0.2,0-0.3c0.5-17.3-29.5-23.6-61.2-30.2l-2.1-0.4c-17.9-3.7-43.3-13.3-70.1-25.4
			c-2.6-1.2-5.2-2.4-7.9-3.6c-6.4-3-12.9-6.1-19.4-9.3c-1-0.5-2.1-1-3.1-1.5c-0.5-0.3-1.1-0.5-1.6-0.8
			c-41.5-20.8-80.7-44.5-95.5-58.9c-14-13.7-25.6-77.5-32.6-115.5c-0.7-3.8-1.4-7.4-2-10.7l-0.5-2.6l-1.8,1.7l-0.1,0.1
			c-1,1-2.1,1.8-3.2,2.7c-14.7,12.2-33.6,19.7-53.6,27.4l-5.6,2.2c-22.5,8.8-48.9,13-67.7,14.1c-1,0.1-1.9,0.1-2.9,0.2
			c-7.5,0.3-13.6,0.2-17.3-0.4l-2.8-0.4l1.3,2.5c10.5,20.5,29.3,46,51.6,69.9C226.2,683.8,227.2,684.8,228.2,685.9z M177.4,613.9
			c15.9,1.4,54.5-1.8,86.6-14.4l5.6-2.2c20.9-8.1,40.6-15.8,55.9-29c0.5,2.6,1,5.3,1.5,8.2c7,38.4,18.8,102.7,33.4,117.1
			c29.1,28.4,145,89,199,100.3l2.1,0.4c30.7,6.4,59.7,12.5,58.9,27.6c-0.1,1.4-0.7,2.6-1.9,3.5c-10.1,7.8-54.5-1.3-87-8
			c-5.1-1.1-10.1-2.1-14.7-3c-40.1-7.9-194.2-61.7-206.4-67.7C260,722.1,200.6,657.7,177.4,613.9z"/>
		<path class="st0" d="M1268.7,909.9c4.9,12.4,5,45.3-12.3,78.5c-15.9,30.5-49.2,69.2-56,73c0.5-2.1,2.6-7.1,4.7-11.9
			c5.7-13.2,15.4-35.4,18.4-58.8c1.4-10.8,2.3-20,3.2-28.8c1.2-12.6,2.3-23.6,4.5-36.3c-1.1,0.2-2.1,0.3-2.9,0.3
			c-2.1,12.5-3.3,23.8-4.4,35.7c-0.9,8.8-1.8,18-3.1,28.7c-3,23-12.5,44.9-18.2,58c-4.4,10-5.7,13.3-4.7,15.1c0.3,0.6,0.8,0.9,1.4,1
			c0.1,0,0.2,0,0.2,0c6.9,0,44.1-45.3,59.5-74.8c17.5-33.5,18.2-68,12.2-81.7C1270.4,908.7,1269.6,909.3,1268.7,909.9z"/>
		<path class="st0" d="M1216,810.7c40.3,28.1,55.6,81.7,57.5,88.7c0.5,1.9-1.5,4.6-5.7,7.7c-12.7,9.4-37.6,17.3-41.1,15.9
			c-1.6-13.8-8.3-53.7-34.6-86c-0.8,0.5-1.7,0.9-2.6,1.4c26.2,32,32.8,71.8,34.3,85.2c0.1,0.9,0.7,1.7,1.7,2
			c0.5,0.2,1.3,0.3,2.2,0.3c0.2,0,0.3,0,0.5,0c0.9,0,1.8-0.1,2.9-0.3c9.7-1.6,27.5-8.6,37.6-15.7c0.9-0.6,1.6-1.2,2.4-1.8
			c0.3-0.3,0.7-0.6,1-0.8c3.5-3.1,4.9-6,4.2-8.6c-1.9-7.2-17.6-62-59-90.6c-0.1,0.3-0.2,0.5-0.3,0.8
			C1216.6,809.5,1216.3,810.1,1216,810.7z"/>
		<path class="st0" d="M1172.3,796.7c21.7-0.4,38.4,1,42.1,6.4c0.5,0.8,1.1,2.1,0,4.5c-12.4,26.2-32.7,34.1-61.3,38.4
			c-16.2,2.4-180.9,4-242-7.5c-9.5-1.8-9.8-9.4-9.5-12.5c0.6-6.8,5.5-14.3,11.5-16c-0.9-0.7-1.6-1.4-2.3-2.2
			c-6.6,2.7-11.4,10.7-12.1,18c-0.8,8.2,3.7,14.1,11.8,15.6c21.9,4.1,57.2,6.6,94.2,7.9c1.6,0.1,3.2,0.1,4.8,0.2
			c25.4,0.8,51.4,1.2,74.2,1.2c35.6,0,63.5-0.8,69.7-1.7c13.9-2.1,25.9-5.1,36.1-10.4c0.9-0.5,1.7-0.9,2.6-1.4
			c9.8-5.7,17.7-14,23.9-26.3c0.3-0.6,0.6-1.2,0.9-1.8c0.1-0.3,0.2-0.5,0.3-0.8c0.9-2.5,0.8-4.7-0.5-6.6c-3.6-5.2-15.5-7.4-33.6-7.6
			C1179.6,794.8,1176,795.8,1172.3,796.7z"/>
		<path class="st0" d="M1205.7,781.2c-2.1,1.9-4.5,3.5-7.3,4.5c-81.1,30.5-252.7,28.3-276.2,24.8c-10-1.5-11.7-7.5-11.3-12.3
			c0.4-4.6,2.8-9.6,6-13.6c-0.8-0.6-1.5-1.2-2.2-1.9c-3.6,4.4-6.3,9.9-6.7,15.3c-0.3,3.9,0.7,7.2,2.8,9.7c0.7,0.8,1.4,1.6,2.3,2.2
			c2.2,1.7,5.1,2.8,8.7,3.3c7,1.1,27,2,53.9,2c54.8,0,137.8-3.9,196.6-18.6c3.7-0.9,7.3-1.9,10.8-2.9c5.8-1.7,11.2-3.5,16.3-5.4
			c3.2-1.2,6.1-3.1,8.6-5.5C1207.2,782.3,1206.4,781.8,1205.7,781.2z"/>
		<path class="st0" d="M1106.1,752.9c27-6.4,52.1-13.3,72.2-18.8c16.4-4.5,29.3-8,37.6-9.8c2.4-0.5,3.7,2.3,4.4,4.7
			c0.1,0.5,0.2,1.1,0.3,1.6c1,0.1,2,0.2,3,0.3c-0.2-1-0.4-1.9-0.6-2.7c-2-6.9-5.7-7.1-7.8-6.7c-8.4,1.8-21.4,5.3-37.8,9.8
			c-12.1,3.3-25.9,7.1-40.9,11C1126.9,746,1116.7,749.5,1106.1,752.9z"/>
		<path class="st0" d="M1220.7,730.6c-5.9-0.4-11.5,0.3-16.8,2.8c-14.3,6.6-17.4,21.3-14.3,32.2c1.3,4.5,7.6,9.7,16.1,15.7
			c0.8,0.5,1.6,1.1,2.4,1.6c2.6,1.8,5.4,3.6,8.2,5.5c10.4,7,21.2,14.2,27.3,20.8c19.4,21,36.4,43.5,46.6,61.7c1,1.8,2.4,3.4,4.2,4.6
			c0.3-1,0.5-2.1,0.8-3.1c-1-0.8-1.8-1.8-2.5-2.9c-10.4-18.4-27.5-41.1-47-62.3c-6.3-6.9-17.2-14.2-27.8-21.2
			c-11.8-7.9-24-16-25.5-21.2c-2.8-9.8,0-23,12.8-28.8c28.1-12.9,71.4,26.1,84,38.4c17.6,17.2,48.5,49.3,56.9,71.3
			c2,5.3,1.3,9.5-1.4,13.3c0.3,1.2,0.4,2.5,0.5,3.9c4.2-4.7,6.5-10.5,3.5-18.2c-8.6-22.4-39.8-54.9-57.6-72.3
			c-13-12.7-41.7-37.8-67.4-41.4C1222.7,730.8,1221.7,730.7,1220.7,730.6z"/>
		<path class="st0" d="M1344.7,859c-0.2-1.1-0.5-2.2-0.9-3.3c-2-5.5-13.1-6.1-16.4-6.2c-11.2-0.3-24.8,3.1-28.1,11
			c-1.6,3.8-3,7.8-4.1,12c-0.3,1-0.6,2-0.8,3.1c-4.8,19.3-5.6,43.1-2.5,73.6c5.5,52.6,23.4,99.9,45.7,120.3c0.5,0.4,0.9,0.6,1.3,0.6
			c0.4,0,0.6-0.1,0.8-0.2c1.7-0.9,1.5-3.2-0.8-20.8c-3.1-23.1-8.7-66-5.5-105.3c1.6-18.8,4.9-35.1,7.6-48.1
			c2.8-13.6,4.9-24.3,4.3-32.7C1345.1,861.5,1344.9,860.2,1344.7,859z M1338.1,894.9c-2.7,13.1-6,29.5-7.6,48.5
			c-3.3,39.6,2.4,82.7,5.5,105.9c0.9,7,1.8,13.2,1.9,16.4c-21.1-20.8-37.9-66.3-43.2-117c-4-38.4-1.7-66.1,7.2-87.2
			c2.6-6.3,15.2-9.5,25.4-9.2c7.2,0.2,12.9,1.9,13.8,4.3C1344.2,865.1,1341.6,877.6,1338.1,894.9z"/>
		<path class="st0" d="M1121.1,690.9c23.3-11.6,40-22.4,53.2-30.8c17.7-11.4,29.4-18.9,42.1-18.9c0.4,0,0.7,0,1.1,0
			c0.7-0.9,1.3-1.8,2-2.8c-1.1-0.1-2.1-0.1-3.1-0.1c-13.6,0-25.5,7.7-43.7,19.3c-4.2,2.7-8.9,5.7-14,8.9
			C1146.8,674.7,1133.9,683.1,1121.1,690.9z"/>
		<path class="st0" d="M1254.5,668.4c-1.1,6.2-5.9,12.7-14.2,19.2c-14.5,11.3-71.2,43.6-145.4,65.8
			c-64.4,19.2-128.3,30.7-170.8,30.7c-4.8,0-9-3.7-9.6-8.3c-0.2-1.4-0.1-4.7,2.9-8.3c-0.4-0.5-0.7-1.1-0.9-1.7
			c-0.1-0.4-0.2-0.8-0.3-1.2c-4.7,4.8-4.7,9.5-4.5,11.5c0.3,2.5,1.5,4.8,3.1,6.6c0.7,0.7,1.4,1.4,2.2,1.9c2.1,1.4,4.5,2.3,7.2,2.3
			c42.8,0,107-11.5,171.6-30.9c3.5-1,7-2.1,10.4-3.2c10.6-3.4,20.8-6.9,30.5-10.6c54.1-20.2,93.6-43.2,105.4-52.5
			c12-9.4,15.5-17.7,15.6-24.1C1256.6,666.7,1255.6,667.6,1254.5,668.4z"/>
		<path class="st0" d="M1336.9,520.2c6.4,13.1-15.5,49-38.7,86.9c-24.3,39.8-50.1,75.3-75,66.5c-7.1-2.5-11.1-5.6-12.3-9.3
			c-2.1-6.9,5.4-17,15-29.8c6.3-8.5,13.4-18.1,20-29.4c15.8-27.4,21.5-47.4,26-63.5c1.1-3.9,2.1-7.6,3.2-11.2
			c2.7-8.6,8.3-12.8,15.1-14.8c0.1-1,0.1-2,0.2-3c-8,2.1-14.8,6.7-18,17c-1.1,3.6-2.2,7.3-3.3,11.3c-4.5,15.9-10,35.7-25.7,62.8
			c-6.5,11.2-13.5,20.7-19.8,29.1c-1.4,1.9-2.8,3.7-4.1,5.5c-0.7,1-1.4,1.9-2,2.8c-7,9.8-11.3,17.5-9.3,24.1
			c1.4,4.7,5.9,8.2,14,11.1c3,1.1,6.1,1.6,9.1,1.6c7.7,0,15.4-3.4,23.1-9.6c1-0.8,2.1-1.7,3.1-2.6c13.6-12,27.7-32,43-57.1
			c25-40.9,46.6-76.2,38.5-90.4c-0.3-0.5-0.6-0.9-0.9-1.3C1337.8,518.1,1337.4,519.2,1336.9,520.2z"/>
		<path class="st0" d="M1442.2,373.6c-8.5-2.6-81.7,16.3-116.1,58.6c-21.6,26.6-33.3,53.1-35.6,80.6c-0.1,1-0.1,2-0.2,3
			c-0.2,3.3-0.3,6.7-0.2,10c0.1,2.2,1.3,5.3,7.2,7.5c4.2,1.6,10.2,2.5,15.9,2.5c7.2,0,14.1-1.4,16.9-4.3c2.9-3.1,5-6.8,6.9-11.3
			c0.4-1.1,0.9-2.2,1.3-3.3c1.2-3.4,2.4-7.1,3.8-11.3c4.1-13,9.2-29.1,20.8-49.6c19.2-34,58.1-67.3,77.7-77.4c2-1,3.4-2,3.2-3.4
			C1443.7,374.9,1443.5,374,1442.2,373.6z M1339.3,504.8c-3.6,11.3-6.2,19.4-11.3,24.8c-3.7,3.9-20.7,4.6-29.7,1.1
			c-2.4-0.9-5.3-2.5-5.4-4.9c-0.8-31.5,10.8-61.5,35.3-91.7c31.8-39,97-57.1,110.8-57.8c-17,8.8-57.4,40.7-78.8,78.5
			C1348.6,475.3,1343.4,491.7,1339.3,504.8z"/>
		<path class="st0" d="M1092,258c0.2,0.1,0.4,0.2,0.8,0.2c-0.5-0.4-1.1-0.8-1.6-1.2l0.2,0.7L1092,258z"/>
		<path class="st0" d="M1145.3,384.6l-0.1-0.8l-0.7-0.3c-0.6-0.3-1.5-0.4-2.5-0.4c-2,0-4.8,0.4-8.1,1c-0.8,0.1-1.8,0.3-2.6,0.4
			c1.2-2.2,3.9-6.3,8-12.3c0.7-1,1.2-1.7,1.3-1.9l0.2-0.4l0-0.5c-1.5-21.4-5.3-39.5-12.2-56.8l-0.4-1.1l-1.1,0.2
			c-2.8,0.4-7.2,2.4-10.1,3.7c-0.2,0.1-0.3,0.1-0.5,0.2c0.9-3.6,5-11.3,7.8-15.4l0.4-0.6l-0.2-0.7c-1.8-5.5-3.4-11.1-5-16.5
			c-0.5-1.9-1.1-3.9-1.7-5.8c-1.3-0.9-2.5-1.9-3.8-2.8c0.9,3.1,1.9,6.3,2.7,9.4c1.5,5.2,3,10.7,4.8,16c-1.8,2.9-9.3,15.1-7.8,19
			l0.2,0.6l0.6,0.2c0.7,0.3,1,0.1,3.7-1c2.3-1,5.8-2.6,8.3-3.2c6.5,16.8,10.1,33.7,11.5,54.4c-0.2,0.3-0.6,0.8-1,1.5
			c-8.7,12.7-9.3,14.4-9.3,15.4l0.1,0.7l0.5,0.4c0.8,0.7,1.9,0.5,6.1-0.2c2.3-0.4,6.4-1.1,8.2-1c1.7,14.6,0.5,30.1-0.6,43.9
			c-0.2,2.9-0.5,5.8-0.7,8.6c0.9,1.2,1.8,2.3,2.6,3.4c0.2-3.7,0.5-7.7,0.9-11.7C1145.9,415.8,1147.2,399.7,1145.3,384.6z"/>
		<path class="st0" d="M1098.8,239.5c0.5-1.2,1-2.4,1.4-3.2l0.2-0.4l-0.1-0.5c-3.6-20.5-14.5-38.7-21.7-50.7c-1.2-2-2.3-3.9-3.3-5.6
			c-3.2-2.9-4.9-4.5-5.5-5.5c-0.1-0.1-0.1-0.2-0.2-0.3c0.4,2.5,2.9,6.7,6.5,12.8c7,11.8,17.7,29.5,21.3,49.3c-0.3,0.6-0.7,1.4-1,2.4
			C1097.2,238.4,1098,239,1098.8,239.5z"/>
		<path class="st0" d="M1105.7,239.9c0.2,1,0.8,1.3,1.1,1.4c0.2,0.1,0.5,0.1,0.8,0.1c1.3,0,3-1,6.2-2.9c2.9-1.7,6.6-3.9,10.7-5.6
			c-0.5-0.8-1.1-1.7-1.6-2.5c-4.1,1.8-7.7,3.9-10.5,5.6c-1.3,0.8-2.8,1.7-3.7,2.1c0.4-3.6,3.2-13.7,7.2-18c-0.6-0.8-1.2-1.6-1.7-2.3
			C1108.8,223.1,1105.1,236.8,1105.7,239.9z"/>
		<path class="st0" d="M1165.1,428.3c-0.5,0.8-0.5,1.6-0.2,2.2c0.8,1.5,3,1.6,7.3,1.8c3.4,0.2,7.9,0.4,12.6,1.4c0-1,0-2,0-2.9
			c-4.6-1-9-1.2-12.4-1.4c-1.6-0.1-3.4-0.2-4.4-0.2c2-2.5,9.5-8.9,16.3-12.5c0-1-0.1-2-0.2-3.1
			C1175.9,417.6,1166.7,425.5,1165.1,428.3z"/>
		<path class="st0" d="M1154,364.5c-0.4,1,0,1.7,0.3,2c0.5,0.6,1.3,0.8,2.5,0.8c1.1,0,2.6-0.2,4.6-0.5c4.6-0.7,11.4-1.6,17.9-0.2
			c-0.2-1-0.3-2-0.5-3c-2.3-0.4-4.6-0.6-6.8-0.6c-4.2,0-8.1,0.6-11.1,1c-1.3,0.2-2.7,0.4-3.7,0.5c2.4-3.8,12.2-14.7,18.6-16.8
			c-0.2-0.9-0.4-1.9-0.6-2.8C1167,347.4,1155.1,361.1,1154,364.5z"/>
		<path class="st0" d="M1135.3,299.3c0.4,0.4,1,0.6,1.7,0.6c1.1,0,2.7-0.4,4.9-1.1c1.3-0.4,2.9-0.8,4.6-1.2c-1-0.7-2-1.4-3.1-2.2
			c-0.8,0.2-1.6,0.4-2.3,0.6c-1,0.3-2.2,0.6-3.1,0.8c0.5-0.9,1.2-2.2,2.2-3.7c-0.7-0.5-1.5-1.1-2.3-1.7c-1.7,2.6-2.9,4.8-3.2,5.8
			C1134.7,298.4,1135,298.9,1135.3,299.3z"/>
		<path class="st0" d="M1075.3,179.1c0.9,0.8,1.9,1.7,3,2.7c6.8,6,17,15.2,27.6,26.2c2.5,2.6,5.2,5.9,8.2,9.8
			c0.6,0.8,1.1,1.5,1.7,2.3c2.3,3.1,4.6,6.5,7.1,10.3c0.5,0.8,1.1,1.6,1.6,2.5c7.9,12.3,16.4,27.2,24.2,42.9c1.8,1.3,3.5,2.5,5,3.6
			c-15.4-31.6-33.8-61.1-45.7-73.4c-10.6-11.1-20.9-20.3-27.7-26.3c-4.1-3.7-7.4-6.6-8-7.6c-0.5-0.7-0.6-1.3-0.5-1.5
			c1.3-1.5,10.9-0.7,24.5,6.2c21.9,11.1,65.3,45.6,95.4,95.2c22.5,37,39.9,87.7,47.7,121.6c0.6-1,1.2-1.4,1.9-1.5c0.2,0,0.5,0,0.7,0
			c-7.8-33.8-24.8-83.6-47.9-121.6c-30.4-50-74.4-85-96.6-96.2c-10.9-5.6-24.4-9.4-27.9-5.6c-0.6,0.7-1.4,2.2,0,4.7
			c0.1,0.1,0.1,0.2,0.2,0.3C1070.4,174.6,1072.1,176.2,1075.3,179.1z"/>
		<path class="st0" d="M1173.1,326c-2.4-7.2-5.3-14.7-8.4-22.2c-0.8,0.7-1.6,1.1-2.5,1.4c3.1,7.4,5.9,14.7,8.2,21.7
			c1.7,5.2,3.3,11.2,4.8,17.9c0.2,0.9,0.4,1.9,0.6,2.8c1.1,5,2.1,10.4,3,15.9c0.2,1,0.3,2,0.5,3c2.3,15.1,4,31.5,4.9,47
			c0.1,1,0.1,2,0.2,3.1c0.2,4.8,0.4,9.6,0.4,14.1c0,1,0,2,0,2.9c0,5.9-0.1,11.6-0.4,16.7c1-0.3,2-0.7,2.9-1.1
			C1189.1,413.3,1182.9,355.3,1173.1,326z"/>
		<path class="st0" d="M1044.1,218.1C929.4,132,769.5,10,768.4,9c-0.9-0.9-1.3-1.8-1.2-2.6c0.2-1.2,1.6-2.3,2.7-2.9
			c13.5,11.1,149.5,109.6,259.2,189.1c5.9,4.2,11.6,8.4,17.3,12.6c0.2-1,0.5-2,0.7-3c-5.4-3.9-10.8-7.8-16.4-11.9
			C918.4,108.8,778.5,7.5,771.1,0.6L770.4,0l-0.9,0.4c-0.5,0.2-4.4,2.1-5.1,5.4c-0.2,1.2-0.1,3.1,2,5.2c1,1,162.4,124.2,277.3,210.5
			C1043.9,220.4,1043.9,219.2,1044.1,218.1z"/>
		<path class="st0" d="M1069.3,221.7c51.5,37.3,90.8,65.8,93.2,67.9c4,3.4,3.2,8.8,1.1,11.4c-0.8,1-3.1,3-6.4,0.3
			c-6.7-3.9-40.2-28.6-84.9-62c0.2,1.4,0.5,2.8,0.8,4.2c6.3,4.7,12.4,9.3,18.2,13.6c0.5,0.4,1.1,0.8,1.6,1.2
			c7.6,5.6,14.7,10.9,21.1,15.7c1.3,1,2.6,1.9,3.8,2.8c7.8,5.8,14.7,10.8,20.4,14.9c0.8,0.6,1.6,1.1,2.3,1.7
			c1.1,0.8,2.1,1.5,3.1,2.2c1.1,0.8,2.1,1.5,3.1,2.2c4.2,3,7.2,5,8.8,5.9c1.6,1.3,3.3,1.9,4.9,1.9c0.6,0,1.2-0.1,1.8-0.3
			c0.9-0.3,1.7-0.7,2.5-1.4c0.3-0.3,0.7-0.6,1-1c3.4-4,3.6-11.2-1.4-15.4c-0.7-0.6-4.5-3.4-10.7-7.9c-1.5-1.1-3.2-2.3-5-3.6
			c-11.5-8.4-28.8-20.9-49.9-36.3c-0.8-0.6-1.6-1.2-2.4-1.7c-8.7-6.3-17.9-13-27.7-20.1C1068.9,219,1069.1,220.3,1069.3,221.7z"/>
		<path class="st0" d="M1108.7,530.9c-1-4.2-1.9-8.8-2.9-13.7c-1.9-9.8-4.1-20.9-7.7-32.9l-3.6-12c-7.8-25.6-13.4-44.1-22.9-80.9
			l-0.9-3.4c-15.8-60.9-30.7-118.5-23.7-169.6c3.8-28,12.5-39.9,15.3-41.5c-0.7,36.4,19.1,135.7,41.3,191.6
			c17.1,43.3,37.3,89.1,60.7,89.1c0.7,0,1.4,0,2.1-0.1c48.4-5.6,66.3-43.2,73-57.4c1-2.1,2-4.3,2.6-5c0,0,0,0,0,0
			c1,0,2.1,0.5,3.1,1.4c5.5,4.8,9.4,19.3,10.3,38.8c1.5,32.7,1,65.4-11.9,85.1c1.8-1.1,3.6-2.4,5.4-3.6c9.8-19,10.9-46.7,9.3-81.5
			c-0.9-20.6-5.1-35.5-11.3-40.8c-1.6-1.3-3.3-2-4.9-2c-0.2,0-0.5,0-0.7,0c-0.7,0.1-1.3,0.5-1.9,1.5c-0.7,1-1.4,2.6-2.6,5.1
			c-5.4,11.4-18.4,38.6-49.5,50.6c-1,0.4-1.9,0.7-2.9,1.1c-5.6,1.9-11.7,3.3-18.4,4.1c-7.5,0.9-15-4.3-22-12.7
			c-0.9-1.1-1.8-2.2-2.6-3.4c-14.4-19.1-27-50.8-35.1-71.1c-13.2-33.4-25.6-82.3-33.3-123.9c-0.3-1.4-0.5-2.8-0.8-4.2
			c-1.1-6-2-11.9-2.9-17.5c-0.2-1.3-0.4-2.7-0.6-4c-2.4-16.8-3.8-31.2-3.6-41c0-2.1-1.1-2.9-2.2-3c-0.1,0-0.1,0-0.2,0
			c-3.7,0-10.9,9.3-15.6,28.4c-0.2,1-0.5,2-0.7,3c-0.9,3.9-1.7,8.1-2.3,12.7c0,0.1,0,0.2,0,0.3c-0.1,1.1-0.2,2.2-0.4,3.4
			c-5.9,50.8,8.7,107.3,24.2,167.1l0.9,3.4c9.5,36.9,15.2,55.4,22.9,81l3.6,12c3.6,11.8,5.7,22.9,7.6,32.6c0.9,4.3,1.7,8.4,2.5,12.2
			C1106.5,530.3,1107.6,530.6,1108.7,530.9z"/>
		<path class="st0" d="M1074.4,599.5c-3,14.2-6,27.1-8.7,35.1c0,0.1-0.1,0.2-0.1,0.3c-0.5,0.7-1.1,1.4-1.6,2.1
			c-23.1,31.2-67.1,61.7-100.4,83.8c-1.6,1-3.1,2.1-4.6,3.1c-1.8,1.2-3.5,2.3-5.2,3.4c-20,13.2-30.5,20.2-32.6,24.2l-0.8,1.5
			c-2.8,5.3-4.7,8.7-4.2,11.7c0.1,0.4,0.2,0.8,0.3,1.2c0.2,0.6,0.5,1.1,0.9,1.7c1.4,1.8,4,3.4,8.4,5.1c0.7,0.3,1.6,0.4,2.8,0.4
			c22.2,0,127.2-46.2,159.1-63c10.3-5.5,21.8-12,33.5-19.2c12.7-7.8,25.7-16.1,37.7-24.4c25.1-17.2,45.9-33.8,51.6-42.7
			c9.3-14.7,37.2-77.3,47.2-110.7c0.2-0.6-0.1-1.3-0.6-1.6c-0.5-0.3-1.2-0.3-1.7,0.1c-2.1,1.8-4.3,3.4-6.5,4.9
			c-1.8,1.3-3.6,2.5-5.4,3.6c-21.7,13.6-45.5,17-80.4,18c-22.6,0.6-41.5-3.3-54.3-7.2c-1.1-0.3-2.2-0.7-3.2-1
			c-9.8-3.2-15.4-6.2-15.5-6.2c-0.4-0.2-0.9-0.2-1.3,0c-0.4,0.2-0.7,0.6-0.8,1.1c-0.1,0.6-6.2,39.1-13,71.9
			C1074.8,597.6,1074.6,598.6,1074.4,599.5z M1253.5,516.7c-10.9,34.1-36.7,91.6-45.5,105.6c-10.3,16.2-77.3,61.8-121.7,85.2
			c-40.5,21.4-148.3,66.9-159.5,62.5c-4.7-1.9-7.1-3.4-7.7-5.1c-0.8-2.1,1-5.5,3.8-10.6l0.8-1.5c1.8-3.5,15-12.1,31.7-23.1
			c34.9-23,87.5-57.7,112.7-93.3c0.1-0.1,0.1-0.2,0.2-0.4c8.3-24.1,20.2-96.2,22.3-108.9c7.1,3.3,34.7,15,72.6,13.9
			C1203.2,539.9,1228.7,535.7,1253.5,516.7z"/>
		<path class="st0" d="M685.9,833.2c1.3,9.9,2.8,18.8,2.8,18.8s44.4-17.7,59.7-30.8c-0.9-2.2-1.7-4.8-2.6-7.6
			C729.8,822.3,703.6,829.5,685.9,833.2z"/>
		<path class="st0" d="M659.5,811.8c6.5,23.9,7.1,24,8.6,24.1c0.1,0,0.3,0,0.4,0c2.5,0,9-1,17.4-2.7c17.6-3.7,43.8-10.8,60-19.6
			c-0.3-1-0.6-2.1-0.9-3.2c-22.4,12.4-67.4,22-76,22.3c-2.4-5.4-11.9-41.7-13.9-50.6c1.8-2,18.8,0.4,32.4,2.3
			c16.7,2.3,37.1,5.1,54,4.9c0-1.3,0.2-2.3,0.4-3.2c-16.8,0.3-37.3-2.5-54-4.9c-21.8-3-32.4-4.4-35.2-1.3c-0.7,0.7-0.9,1.7-0.7,2.7
			C653,786.7,656.2,799.4,659.5,811.8z"/>
		<path class="st0" d="M783.7,809c0.2,3.2,0.2,6.4-0.1,9.1c19.2,7.2,68.6,8.6,68.6,8.6s-1.4-8.9-3.4-18.8
			c-11.7,1.4-27.4,2.6-41.8,2.6C798.4,810.4,790.3,810,783.7,809z"/>
		<path class="st0" d="M780.2,788.1l-0.5-3c16.6-5,36.1-14.9,51.9-22.8c12.3-6.2,27.6-13.9,29.9-12.7c1.1,9.1,3.7,46.6,3.2,52.4
			c-8.2,2.4-56,7.8-81.2,3.7c0.1,1.1,0.2,2.2,0.3,3.3c6.6,1,14.8,1.4,23.3,1.4c14.5,0,30.1-1.2,41.8-2.6c8.9-1.1,15.6-2.2,17.7-3.1
			c1.4-0.6,2-0.8,0.4-25.5c-0.8-12.9-1.9-25.9-2.4-30c-0.1-1-0.7-1.9-1.6-2.3c-3.7-2-13.3,2.7-32.9,12.6c-16,8-35.8,18-52.4,22.9
			C778.7,783.8,779.5,785.8,780.2,788.1z"/>
		<path class="st0" d="M741.7,789.3c0,0.1,0,0.1,0,0.2c-0.1,5.1,1.4,13.4,3.4,20.9c0.3,1.1,0.6,2.1,0.9,3.2c0.8,2.8,1.7,5.5,2.6,7.6
			c1.2,3,2.3,5.1,3.3,5.7c1.4,1,4.6,1.3,8.4,1.3c5.8,0,12.9-0.9,17.2-2.2c2.7-0.8,4.1-1.7,4.7-2.8c0.8-1.2,1.3-3,1.6-5.3
			c0.3-2.7,0.3-5.8,0.1-9.1c-0.1-1.1-0.2-2.2-0.3-3.3c-0.3-3.4-0.8-6.7-1.3-9.1c-0.5-2.7-1.2-5.7-2-8.5c-0.7-2.3-1.5-4.3-2.4-5.8
			c-0.6-1-1.3-1.8-2-2.3c-7.1-4.3-26.7,0.1-31.8,3.3c-0.9,0.5-1.4,1.5-1.8,2.8C741.9,787,741.7,788,741.7,789.3z M745.6,786
			c4.8-3,23-6.6,28.5-3.2c1.3,0.8,3.4,5.6,5,14.4c2.2,12.1,2,22.3,0.4,24.4l-0.2,0.3c-1.9,2.4-22.7,4.5-25.6,2.5
			c-2.2-1.8-8.9-23.7-8.7-34.7C744.9,786.6,745.6,786,745.6,786z"/>
	</g>
</g>
</svg>
