<?xml version="1.0" encoding="utf-8"?>
<!-- Generator: Adobe Illustrator 22.1.0, SVG Export Plug-In . SVG Version: 6.00 Build 0)  -->
<svg version="1.1" id="Layer_1" xmlns="http://www.w3.org/2000/svg" xmlns:xlink="http://www.w3.org/1999/xlink" x="0px" y="0px"
	 viewBox="0 0 1920 1080" style="enable-background:new 0 0 1920 1080;" xml:space="preserve">
<style type="text/css">
	.st0{fill:#FFFFFF;}
</style>
<g>
	<g>
		<g>
			<path class="st0" d="M467.7,954.3c-9.6,8.8-18.3,17.9-24,29.6c-1.4,2.9-3.9,8.2-1.3,12.8c2.5,3.1,9.9,0.1,14.1-1.7
				c17.2-7.7,36.8-25.8,42.8-33.1c0.1-0.1,0.3-0.1,0.4,0c0.2,0.1,0.3,1.3,0.2,1.4c-6.5,8.1-21.3,23.2-43.1,34
				c-4.4,1.9-11.9,5-15.3,2c-4.1-3.5-3.5-10.7-0.2-17c4.6-8.9,13.4-21,22.2-27.8C463.8,953.9,468,953.8,467.7,954.3z"/>
		</g>
		<g>
			<path class="st0" d="M400.5,984.7c-1.5,2.8-2.9,5.7-3.5,8.7c-0.3,1.4-0.4,3.2-0.1,4c0.3,0.8,0.9,1.9,2.2,1.7
				c2.5-0.2,4.9-2.6,7-4.7c2.1-2.2,3.7-4.9,5.1-7.8c3.6-6.8,5.1-21.5,5.3-22.5c0.1-0.4,0.2-1.1,0.3-1.2c0.3-0.5,0.9,0.2,2,0.7
				c4,2,9.9,3.5,12.7,3.6c12.1,1,22.4-4.4,31.9-12.8l0.4,0.4c-4.5,4.6-9.3,8.6-14.8,11.3c-5.5,2.7-11.8,3.9-17.8,3.1
				c-3-0.3-5.9-1.1-8.8-2.1c-1.4-0.6-2.8-1.1-4.2-2.1c-0.3-0.2-0.4-0.3-0.5-0.1c0,0.8,0,11.6-4.7,22.3c-1.3,3.2-3.2,6-5.4,8.7
				c-2.2,2.5-4.6,4.9-8.1,5.7c-0.9,0.2-1.8,0.2-2.9-0.2c-1-0.4-2-1.4-2.4-2.6c-0.8-2.4-0.5-4.3-0.2-6.2c0.7-3.7,2.1-7,3.7-10
				c3.3-6,7.4-11.2,11.6-16c4.3-4.8,11-11.8,12.8-12.9c0.2-0.1,0.3-0.1,1-0.1c0.8,0,1,0.1,0.8,0.3
				C423.5,954.6,406.8,973.5,400.5,984.7z"/>
		</g>
		<g>
			<path class="st0" d="M848.6,991.7c5.6-6.4,9.7-9,15.2-14.1c5.6-5,11.5-9.7,17.8-13.6c3.2-1.9,6.5-3.6,10.2-4.5
				c1.8-0.3,3.8-0.7,6,0.5c1.1,0.6,2,1.9,2.4,3.3c0.4,1.4,0.4,2.7,0.3,4c-0.5,4.9-2.2,8.9-3.9,12.7c-1.8,3.7-3.8,7.3-6.1,10.6
				c-2.3,3.3-4.9,6.3-7.8,8.7c-1.5,1.2-3.1,2.3-4.8,3c-1.7,0.6-3.7,1.2-5.7,0c-1-0.6-1.8-2-1.8-3.3c-0.1-1.4,0.3-2.6,0.7-3.6
				c1-2.1,2.4-3.5,3.9-4.8c3-2.6,6.6-3.6,10.1-4c6.9-0.7,13.6-0.4,20.4-1.3c6.7-0.8,13.5-2.5,20.1-4.7c0.3-0.1,0.6,0.1,0.6,0.4
				c0.1,0.3-0.1,0.7-0.4,0.8c-6.6,2.4-13.4,4.2-20.2,5.2c-6.8,1.1-13.7,0.9-20.3,1.7c-3.3,0.4-6.6,1.4-9.1,3.8
				c-1.3,1.1-2.5,2.5-3.2,4c-0.7,1.6-0.7,3.1,0.4,3.7c1,0.6,2.7,0.4,4.1-0.3c1.4-0.7,2.8-1.7,4.1-2.9c2.5-2.5,4.8-5.5,6.7-8.8
				c2-3.2,3.8-6.7,5.5-10.3c1.6-3.6,3.3-7.3,3.8-10.9c0.2-1.8,0-3.1-0.9-3.7c-1-0.7-2.6-0.7-4.2-0.4c-3.2,0.7-6.4,2.3-9.5,4
				c-6.2,3.6-12,8-17.7,12.8c-5.7,4.6-11,9-16.5,14.6C848.3,994.3,848.5,991.8,848.6,991.7z"/>
		</g>
		<g>
			<path class="st0" d="M1492.1,960.3c0.2-0.7,0.5-2.9-0.5-3.8c-0.9-0.8-2.1-1.1-3.3-1.1c-2.5,0-5,0.9-7.3,1.9
				c-4.8,2.1-9.3,5-13.6,8.2c-8.5,6.5-16.6,14.4-22.3,24.1c-1.3,2.4-2.5,5.2-2.4,7.4c0.1,0.9,0.2,1.9,1.2,2.2
				c0.9,0.2,2.4,0.2,3.6-0.2c4.8-1.5,9.2-5,14-8.2c9.1-6,20.6-15.3,26.6-22l-1.8,3.2c-7.5,8.2-14.7,14.3-23.7,20.9
				c-4.6,3.1-9,6.5-14.4,8.4c-1.4,0.4-2.8,0.8-4.5,0.6c-0.8-0.1-1.8-0.5-2.6-1.3c-0.8-0.8-1.2-2-1.3-3c-0.2-4.1,1.2-6.9,2.5-9.7
				c2.8-5.5,6.4-9.9,10.2-14.3c3.8-4.4,8.3-8.2,12.9-11.5c4.7-3.2,9.4-6.2,14.8-7.7c2.7-0.7,5.4-1.2,8.3-0.8c1.4,0.2,2.9,0.8,4,2.1
				c1,1.5,0.9,3.6,0.5,4.8C1492.6,961.4,1491.8,961.3,1492.1,960.3z"/>
		</g>
		<g>
			<path class="st0" d="M1488.5,997c-1.9,1.2-6.8,3.9-11.6,4.3c-3.7,0.2-4.8-7.3,2.1-18.1c2.8-5.3,6.1-10,9.2-14.9
				c1.6-2.4,7.1-10.5,7.4-10.9c0.3-0.4,2.6-1.1,1.9,0.2c-5.6,9.2-12,19.9-17,29.8c-2.6,5-5.7,11.9-3,11.8c3.4-0.1,8.8-3.3,10.7-4.5
				c18.5-11.5,44.4-38.5,45.8-39.7c2.3-2,3.3-0.4,3.2,0.5c-0.3,4.3-20.1,38.4-24.5,46.1c-0.1,0.2-0.4,0.5-0.9,0.4
				c-0.4-0.1-2.1,0.3-2.6-0.1c-0.5-0.4-0.6,0-0.1-0.8c5.6-8.8,27.3-43.5,26.3-44.8C1534.5,955,1512.4,982.6,1488.5,997z"/>
		</g>
		<g>
			<path class="st0" d="M585.8,959.2c0.2-0.7,0.3-2.9-0.7-3.7c-2.4-1.8-7.5-0.2-9.8,0.9c-4.8,2.2-9.3,5.1-13.5,8.4
				c-8.4,6.6-16.5,14.6-22,24.4c-1.3,2.4-2.4,5.3-2.3,7.4c0.1,0.9,0.2,1.9,1.2,2.2c0.9,0.2,2.4,0.1,3.6-0.2
				c4.8-1.5,9.1-5.1,13.9-8.4c9-6.1,20.4-15.5,26.4-22.3l-1.4,3.6c-7.4,8.3-15,14-23.9,20.7c-4.5,3.2-9,6.6-14.3,8.6
				c-1.4,0.4-2.8,0.8-4.5,0.6c-0.8-0.1-1.8-0.5-2.6-1.3c-0.8-0.8-1.2-2-1.4-3c-0.3-4.1,1.2-6.9,2.4-9.8c2.7-5.6,6.3-9.9,10-14.4
				c3.8-4.5,8.2-8.3,12.8-11.6c4.6-3.2,9.4-6.3,14.7-7.8c2.7-0.7,5.4-1.2,8.2-0.8c1.4,0.2,2.9,0.7,4,2.1c1,1.4,1,3.6,0.6,4.8
				C586.9,960.2,585.5,960.2,585.8,959.2z"/>
		</g>
		<g>
			<path class="st0" d="M592.9,995.6c-11,5.8-15.7,6.4-18.7,5.5c-7.4-1.6-1.9-14.4-0.5-18.1c1.4-3.7,14.4-25.3,15.6-27.1
				s3.4-0.9,2.7,0.3c-5,8.9-12.4,21.5-16.1,30c-1.9,4.3-4.4,12.1-0.3,12.3c4.5,0.3,9.9-1,16.3-4.8c19.6-11.4,32.8-26.6,38.8-36.3
				c0.5-0.9,1.8-0.6,1.3,0.5C625.2,970.9,608.3,987.6,592.9,995.6z"/>
		</g>
		<g>
			<path class="st0" d="M1022.3,965c-3.9,5.8-7.7,11.7-10.7,17.9c-1.5,3.1-7.8,14.8-2.8,18.3c3.5,2.5,10.4,0.4,15.4-2.2
				c18.2-9.5,35.9-26.4,39.4-30.3c0.5-0.5,0.2-1.2-0.5-0.5c-3.8,3.2-22.4,20.3-39.2,28.9c-4.8,2.4-11.1,4.5-13.4,2.1
				c-3.9-3.9,7.9-21.7,11.3-27.6c3.5-5.9,7.1-10.3,10.6-15.8c0.6-1.1-2.3-0.9-2.8-0.4c-7.3,7.4-14.7,15-22.4,22.1
				c-7.7,7-15.7,13.5-24.1,19.4c-2.1,1.5-4.1,2.5-6.4,3.1c-2.3,0.6-4.1,0.2-3.8-2.8c0.6-4.8,2.8-9.6,5.2-14.1
				c3.7-7.8,14.9-21.8,17.3-26.1c0.7-1.2-2.8-1.5-3.5-0.7c-0.7,0.8-2.8,3.9-3.4,4.8c-1.7,2.5-3.1,4.3-4.6,6.6c-3,4.6-5.8,9.1-8.3,14
				c-1.3,2.5-2.5,4.9-3.4,7.7c-0.9,2.8-1.7,5.4-1.5,8.5c0.2,3.2,2.3,5.4,6,4.2c2.2-0.7,4.9-2,7.1-3.4c8.5-5.9,16.7-12.7,24.3-19.8
				C1013,974.3,1017.5,969.6,1022.3,965z"/>
		</g>
		<g>
			<path class="st0" d="M324.4,963.4c-3.9,5.8-20.5,33.9-23.6,40.1c-1.5,3.1,19.5-27.6,23-33.5c3.5-5.9,7.1-10.2,10.6-15.8
				c0.6-1.1-3-1.3-3.7-0.4c-7.3,7.3-13.9,15-21.5,22c-7.7,7-15.7,13.5-24.2,19.3c-2.1,1.4-4.1,2.4-6.4,3.1c-2.3,0.6-4.1,0.1-3.7-2.8
				c0.6-4.8,2.8-9.6,5.2-14.1c3.8-7.8,15-21.8,17.4-26.1c0.7-1.2-2.8-1.6-3.5-0.7c-0.7,0.8-2.8,3.9-3.4,4.8
				c-1.7,2.5-3.1,4.2-4.6,6.5c-3,4.6-5.8,9.1-8.3,13.9c-1.3,2.5-2.5,4.9-3.4,7.7c-0.9,2.8-1.8,5.4-1.6,8.5c0.2,3.2,2.3,5.4,6,4.3
				c2.2-0.7,4.9-1.9,7.1-3.4c8.6-5.9,16.8-12.7,24.4-19.7C315,972.7,319.5,968.1,324.4,963.4z"/>
		</g>
		<g>
			<path class="st0" d="M924,981c6-1.5,15.9-4.8,23.3-9.7c13.6-9.1,7.8-15.1,2.4-12.8c-3.8,1.5-6.3,3.5-9.1,6.1
				c-2.8,2.7-5.5,5.5-7.9,8.5c-4.8,6-9.4,13.8-11.8,20.9c-1.3,3.4-2.2,7.6,1.4,7.8c1.7,0.2,3.6-0.3,5.4-1c1.8-0.5,3.6-1.4,5.4-2.2
				c7-3.4,13.6-7.8,20-12.3c12.9-9,26.1-19.3,38.4-29.4l0,2.5c-12.2,10.1-24.5,19.2-37.4,28.3c-6.5,4.5-13.1,8.9-20.2,12.6
				c-1.8,0.8-3.6,1.8-5.5,2.4c-1.9,0.6-3.8,1.4-6.1,1.3c-1.1,0-2.4-0.2-3.5-1.2c-1.1-0.9-1.7-2.2-1.9-3.4c-0.4-2.4,0-4.6,0.6-6.6
				c2.8-8,7.4-15.9,12.5-22.1c5.2-6.1,10-10.9,17.9-14.1c3.4-1.3,6.7-1,8.6,0.9c3.5,4.9,0,9.8-7.6,14.9c-8.9,6-19.6,8.8-25,10.3
				L924,981z"/>
		</g>
		<g>
			<path class="st0" d="M1171.7,962.9c-1.6,2.3-1.8,2.6-3.2,5c-3,4.8-5.7,9.8-8,15.1c-1.1,2.7-2.2,5.4-2.9,8.4
				c-0.3,1.5-0.6,3.1-0.6,4.8c0,1.7,0.8,3.9,2.4,4.8c3.2,1.4,5.6,0.4,8.2-0.3c2.5-0.8,4.9-1.8,7.3-3c9.4-4.8,17.9-11.2,26.3-17.9
				c4.2-3.3,8-7.2,8.2-7.4c0.2-0.3,0.1-0.5,0.1-0.6c-0.1-0.1-0.3-0.2-0.6,0.1c-8.9,7.6-24.5,19.1-34.6,24c-2.3,1.1-4.7,2.1-7.1,2.7
				c-1.2,0.3-5,1.3-6.7,0c-1.4-0.8-1.1-3.8-0.4-6.3c0.7-2.6,1.8-5.2,3-7.7c2.3-5.1,4.8-9.1,7.9-14.7s5.7-8.9,9.6-14.4
				c0.5-0.8-1.6-0.8-1.6-0.8c-0.7,0-1.3,0.2-1.6,0.5c-7,7.6-13.9,14.3-21.2,21.3c-7.4,6.8-14.8,13.9-22.9,19.4
				c-2,1.3-4.1,2.7-6.3,3.4c-1.1,0.3-2.2,0.6-3.1,0.3c-0.8-0.2-1.1-0.9-1.4-2c-0.5-2.2,0.3-4.8,1-7.3c0.8-2.5,1.6-4.5,2.7-6.8
				c4.3-9.6,10.1-16.9,14.8-26.8c0.2-0.4,0.2-0.9,0.1-1.4c-0.1-0.6-0.7-0.9-1.1-1c-1.5-0.2-4.1,1.6-4.9,2.1c-1.5,1-3,2.1-4.5,3.2
				c-2.9,2.2-5.8,4.6-8.6,7c-5.6,4.9-11,10-16,15.7c-0.1,0.1-0.1,0.3,0,0.4c0.1,0.1,0.3,0.1,0.4,0c5.1-5.4,10.6-10.4,16.3-15
				c2.8-2.3,5.7-4.5,8.7-6.6c1.5-1,2.9-2,4.1-2.8c1.1-0.7,2.8-1.7,2.7-1.5c-0.1,0.2-5.7,8.3-7.1,10.6c-2.9,4.5-5.3,9.3-7.5,14.3
				c-1.1,2.5-2,5.1-2.7,7.9c-0.6,2.8-1.3,5.7-0.4,8.9c0.2,0.8,0.5,1.5,1,2.3c0.6,0.8,1.4,1.2,2.2,1.3c1.5,0.2,2.8-0.2,4-0.7
				c2.4-0.9,4.5-2.2,6.6-3.6c8.3-5.8,15.8-12.6,23-19.8C1162.1,973,1171.7,962.9,1171.7,962.9z"/>
		</g>
		<g>
			<path class="st0" d="M881.8,939.8l-5.8,7.8c-3.8,5.2-7.6,10.5-11.3,15.8c-7.4,10.7-14.6,21.5-21.5,32.7
				c-6.9,11.2-13,22.9-19.2,34.6l-9.2,17.5c0,0-5.2,9.6-6.6,11.9c-1.1,1.7-1.4,2.3-1.8,2.9c-0.4,0.5-0.7,0.7-0.9,0.2
				c-0.2-0.5-0.9-2.1-0.9-8.1c0.2-4.3,1.3-8.3,2.7-11.9c2.9-7.2,7.1-13.7,11.7-19.8c4.6-6.1,9.3-11.1,14.5-16.6
				c5.1-5.6,15.6-15.1,15.6-15.1c0.1-0.1,0-2.3,0-2.2c-5.8,4.6-11,10.2-16.3,15.5c-5.2,5.4-10.3,11.1-15,17.2
				c-4.7,6.1-9,12.6-12.2,20c-1.5,3.7-2.7,7.7-3.1,12c-0.5,4.2,0,9,2.3,12.8c0.7,1.1,2.4,1.3,2.9,0.9c0.5-0.4,1.5-1.9,1.7-2.3
				c0.5-0.7,1-1.4,1.4-2.2l2.5-4.3l4.8-8.7l9.2-17.5c6.1-11.7,12-23.4,18.8-34.6c6.7-11.1,13.9-22,21.1-32.7l11-16l8.3-11.9l1.4-2
				c0.4-0.7,2.1-2.6,0.3-2.7c-0.9,0-1.1,0.1-1.6,0.5c0,0-33.9,35.9-53.4,38.8c-4.1,0.8-11.5,1.2-12.9-3.2c-1.5-5.6,6.7-13.2,8.1-8.4
				c0.6,2.1,0.3,3.7-0.1,6.1c-0.4,2.5-1.1,5-1.9,7.3c-1.7,4.8-4,9.2-6.8,13.2c-2.7,4.1-5.9,7.7-9.5,10.8c-3.5,3-7.7,5.9-11.8,5.5
				c-2.1-0.3-2.7-2.4-2.5-4.6c0.2-2.2,0.8-4.7,1.6-6.9c1.7-4.5,4.1-8.8,6.6-13c2.5-4.2,5.3-8.1,8.4-11.9c1.5-1.9,3.2-3.6,4.9-5.2
				c1.7-1.6,3.5-3,5.6-3.3c0,0,0.3,0,0.3-0.3c0-0.3-0.2-0.3-0.2-0.3c-2.5-0.4-4.7,1.1-6.8,2.3c-2,1.3-3.9,2.9-5.8,4.6
				c-3.6,3.4-6.8,7.3-9.8,11.4c-2.9,4.3-5.3,9-6.7,14.3c-0.7,2.7-1.3,5.4-1.1,8.4c0.1,1.5,0.6,3.1,1.6,4.4c1,1.3,2.4,1.9,3.7,2
				c2.6,0.3,4.9-0.7,7-1.8c2.1-1.1,4.1-2.5,6-4c3.8-3.1,7.1-6.8,10-11c2.8-4.2,5.2-8.9,6.8-13.9c0.8-2.5,1.4-5.1,1.8-7.7
				c0.2-2.6,0.5-5-0.2-7c-0.6-1.7-1.4-2.5-2.3-2.9c-1.3-0.5-2.7,0-3.9,0.8c-2.8,2-7.5,6.2-5.5,12c1,2.3,4,5.8,15.5,3.7
				c19-3.4,43.6-29.4,48.2-33.7L881.8,939.8"/>
		</g>
		<g>
			<path class="st0" d="M1357.7,954.4c-0.9,0-16.2,14.5-36.5,17.2c-4.1,0.7-13.6-0.2-15.3-5.4c-1.4-5.6,5.9-13.3,7.3-8.5
				c0.6,2.1,0.3,3.7-0.2,6.1c-0.5,2.5-1.2,4.9-2,7.3c-1.7,4.7-4.1,9.1-7,13.1c-2.8,4-6,7.7-9.6,10.7c-3.5,2.9-7.8,5.7-11.9,5.3
				c-2.1-0.4-2.7-2.5-2.4-4.7c0.2-2.2,0.8-4.6,1.7-6.9c1.8-4.5,4.2-8.7,6.8-12.9c2.5-4.2,5.5-8.1,8.6-11.7c1.6-1.8,3.2-3.6,5-5.1
				c1.7-1.6,3.5-3,5.7-3.3c0,0,0.3,0,0.3-0.3c0-0.3-0.2-0.3-0.2-0.3c-2.5-0.4-4.7,1-6.8,2.2c-2.1,1.3-4,2.8-5.8,4.5
				c-3.7,3.3-7,7.2-10,11.3c-2.9,4.2-5.5,8.9-7,14.2c-0.7,2.7-1.4,5.4-1.2,8.4c0.1,1.5,0.5,3.1,1.5,4.4c1,1.3,2.4,2,3.7,2.1
				c2.6,0.3,4.9-0.6,7-1.7c2.2-1.1,4.2-2.4,6.1-3.9c3.8-3,7.2-6.7,10.2-10.8c2.9-4.2,5.3-8.8,7-13.8c0.8-2.5,1.5-5.1,2-7.7
				c0.3-2.6,0.6-5-0.1-7c-0.6-1.7-1.4-2.5-2.2-2.9c-1.3-0.5-2.7-0.1-3.9,0.7c-2.9,2-6.6,6.3-4.7,12.1c1.3,3.3,6.3,7.5,17.8,6
				c20.3-2.6,34.2-15.8,34.2-15.8"/>
			<path class="st0" d="M1367,937.7"/>
		</g>
		<g>
			<path class="st0" d="M1663.3,955.5c-0.9,0-16.5,12.8-33.2,15.2c-4.1,0.7-12.7,0.1-14.4-5.1c-1.4-5.6,5.9-13.3,7.3-8.5
				c0.6,2.1,0.3,3.7-0.2,6.1c-0.5,2.5-1.2,4.9-2,7.3c-1.7,4.7-4.1,9.1-7,13.1c-2.8,4-6,7.7-9.6,10.7c-3.5,2.9-7.8,5.7-11.9,5.3
				c-2.1-0.4-2.7-2.5-2.4-4.7c0.2-2.2,0.8-4.6,1.7-6.9c1.8-4.5,4.2-8.7,6.8-12.9c2.5-4.2,5.5-8.1,8.6-11.7c1.6-1.8,3.2-3.6,5-5.1
				c1.7-1.6,3.5-3,5.7-3.3c0,0,0.3,0,0.3-0.3c0-0.3-0.2-0.3-0.2-0.3c-2.5-0.4-4.7,1-6.8,2.2c-2.1,1.3-4,2.8-5.8,4.5
				c-3.7,3.3-7,7.2-10,11.3c-2.9,4.2-5.5,8.9-7,14.2c-0.7,2.7-1.4,5.4-1.2,8.4c0.1,1.5,0.5,3.1,1.5,4.4c1,1.3,2.4,2,3.7,2.1
				c2.6,0.3,4.9-0.6,7-1.7c2.2-1.1,4.2-2.4,6.1-3.9c3.8-3,7.2-6.7,10.2-10.8c2.9-4.2,5.3-8.8,7-13.8c0.8-2.5,1.5-5.1,2-7.7
				c0.3-2.6,0.6-5-0.1-7c-0.6-1.7-1.5-2-2.5-2.3c-5.4-0.9-10.2,6.3-8.4,12.2c1.3,3.3,6.3,7.6,17.8,6c17.7-2.4,30-14.1,30-14.1"/>
			<path class="st0" d="M1676.8,937"/>
		</g>
		<g>
			<path class="st0" d="M1259.3,984.5c7.4-8.4,21.6-17.3,26.4-19.8c2.4-1.3,4.8-2.4,7.2-3.6l3.7-1.6l3-1.3l1.3,1.6l-3.8,1.4
				l-3.7,1.5c-2.4,1.1-4.8,2.2-7.2,3.4c-4.8,2.4-19,10.6-26.5,18.9c-0.1,0.1-0.3,0.1-0.4,0C1259.2,984.9,1259.2,984.6,1259.3,984.5z
				"/>
		</g>
		<path class="st0" d="M1355.6,956.5c-1,1.4-0.9,1.2-2.1,2.9c-1.2,1.7-2,3-3.9,5.6c-1.8,2.7-5.1,7.5-7.7,11
			c-2.6,3.5-5.5,7.4-8.4,11.2c-2.9,3.9-6.8,9.2-9.5,13.3c-0.6,0.9-0.8,1,0,1.2c0.8,0.2,3.2,0.3,4.4,0.1c1.1-0.2,0.9-0.3,2-1.6
			c1.1-1.2,2.5-3.2,4.2-5.1c1.7-2,5.6-5.8,7.6-7.9c5.3-5.4,10.1-10.6,15.1-15.6c4.9-5,9.7-9.6,15.1-13.5c2.6-1.9,5.2-3.4,8.4-3.8
			c1.5-0.2,2.9,0.3,3.8,1.7c0.9,1.4,1,2.6,0.9,4.9c0,1.1,0.8,0.9,0.9,0.2c0.2-1.8,0.1-4.1-1-5.8c-1.1-1.7-3-2.5-4.7-2.3
			c-3.5,0.4-6.2,1.9-9,3.8c-5.7,3.8-10.5,8.4-15.5,13.3c-5.1,5-10.1,10.1-15.4,15.3c-0.9,0.9-2.5,2.4-3.5,3.4
			c2.4-3.4,4.9-7.1,7.1-10.5c2.2-3.4,5.5-8.4,7.3-11.3c1.8-2.9,2.3-3.7,3.7-6c1.4-2.3,2.5-4.1,3.9-6.2c0.3-0.4-0.9-0.4-1.1-0.4
			c-0.3,0-0.9-0.1-1.2,0"/>
		<g>
			<path class="st0" d="M1396.3,983.9c0,0-12.7,13.3-22.5,16.3c-9.1,2.7-12.2-0.8-14.6-4.1c-4.6-6.5-5.5-15.5-6.1-19.2
				c-0.1-0.5,0.3-0.9,0.6-1c0.7-0.2,0.8,0.4,0.8,0.5c0,0,1.4,11.9,5.6,17.7c4,4.4,7,6.2,13.5,4.1c9.4-3,22.1-16.1,22.1-16.1
				s15.4-6.8,20.1-9.7c6.7-4.1,13.3-12.3,8.7-15.3c-5.4-3.6-16.9,10.7-19.3,13.6c-2.4,2.9-4.5,6.6-6.3,10.1c-1.8,3.5-3.2,7.6-4,11.5
				c-0.4,1.9-0.6,3.7,0,5.4c0.5,1.7,1.7,2.3,3.3,2.5c1.6,0.3,3.2-0.1,4.8-0.5c1.6-0.5,3.2-0.9,4.9-1.7c6.6-2.9,12.7-6,19-9.9
				c12.6-7.6,25.3-15.9,37.3-24.7c0.2,0.5,0.4,0.9,0.7,1.4c-12,8.9-24.6,17.3-37.4,25.1c-6.3,3.9-12.5,7-19.2,10.1
				c-1.7,0.8-3.2,1.3-5,1.8c-1.8,0.5-3.2,1.1-5.4,0.9c-2.1-0.1-4.2-1.1-5.1-3.4c-0.9-2.3-1.1-5.9-0.7-8.1c0.9-4.7,2.4-9,4.4-13
				s4-7.5,6.8-10.8c5.5-6.6,16.4-16.1,22.1-12.8c7.4,5.5,0.2,14.5-8.3,19.5C1411.6,977.4,1396.3,983.9,1396.3,983.9z"/>
		</g>
		<path class="st0" d="M503.1,956.2c-1,1.4-0.9,1.2-2.1,2.9c-1.2,1.7-2,3-3.8,5.7c-1.8,2.7-5.1,7.6-7.6,11.1
			c-2.5,3.5-5.4,7.4-8.2,11.3c-2.9,3.9-6.7,9.3-9.3,13.4c-0.6,0.9-0.8,1,0,1.2c0.8,0.2,3.2,0.3,4.4,0.1c1.1-0.3,0.9-0.3,2-1.6
			c1.1-1.3,2.4-3.2,4.2-5.2c1.7-2,5.6-5.9,7.5-7.9c5.2-5.4,10-10.7,14.9-15.8c4.8-5,9.6-9.7,15-13.7c2.6-1.9,5.2-3.4,8.3-3.9
			c1.5-0.2,4.4,0.6,4.2,7c0,1.2,1.3,0.8,1.5-0.3c0.3-1.8,0-4.1-1.1-5.8c-1.1-1.7-3-2.5-4.7-2.3c-3.5,0.4-6.2,2-8.9,3.9
			c-5.6,3.9-10.4,8.5-15.4,13.5c-5.1,5-10,10.2-15.2,15.5c-0.9,0.9-2.5,2.5-3.4,3.5c2.3-3.4,4.8-7.1,7-10.6
			c2.2-3.4,5.4-8.5,7.1-11.4c1.7-2.9,2.3-3.7,3.6-6c1.3-2.3,2.5-4.1,3.8-6.3c0.3-0.4-0.9-0.4-1.1-0.4c-0.3,0-0.9-0.1-1.2,0"/>
		<path class="st0" d="M540.9,986.3c-4.4,4.2-12.4,11.2-19.1,13.3c-9.1,2.8-12.2-0.7-14.7-3.9c-4.7-6.5-5.7-15.6-6.3-19.3
			c0-0.3,0.3-0.7,0.8-0.7c0.4,0,0.8,0.2,0.9,0.5c0,0.1,1.2,11.7,5.5,17.4c4,4.3,7.1,6.1,13.6,3.9c6.4-2.1,14.2-8.9,18.6-13"/>
		<g>
			<path class="st0" d="M1570.3,954.6c-0.5,1.6-5.4,9.5-6.3,11.1c-2.4,4.1-5,8.6-7.2,12.4c-2.2,3.8-4.9,9.3-6.4,12.4
				c-2.1,4.2-3,9.3,1.8,8.8c11.6-1,37.7-24.8,45.8-30.2c0.2,0.3,0.4,0.7,0.6,1.1c-8.1,5.6-32.3,29.3-46.5,31.4
				c-6.9,1-7.3-5.9-4.6-12.3c1.4-3.4,4.1-9.1,6.5-13.2c2.3-4,10.9-19.6,12.7-21.8C1567.1,953.8,1570.7,953.9,1570.3,954.6z"/>
		</g>
		<g>
			<path class="st0" d="M1686.5,962.3c6.3,0.7,12.7,0.8,18.9,0.2c6.3-0.6,13.7-2.7,19.5-5.5c0.3-0.1,0.3-0.4,0.2-0.6
				c-0.1-0.2-0.2-0.2-0.4-0.2c-5.8,2.7-12.2,4.2-19.4,4.9c-7.2,0.7-11.4,0.7-19-0.2c-7.9-0.9-18.2-4.2-18.6-4.3
				c-0.4-0.2-0.9-0.3-0.4,1.1c1.2,3.2,2.2,8.1,2,12.1c-0.1,4-1.1,7.9-2.5,11.5c-1.4,3.7-3.3,7.1-5.5,10.1c-2.2,2.9-5,6-8,7.2
				c-1.4,0.6-3,0.4-3.9-0.7c-0.9-1-1.2-3-1.1-4.9c0-3.8,1.1-7.7,2.4-11.4c2.7-7.5,6-14.4,10.2-21c4.1-6.6,8.7-12.9,13.3-19.1
				c4.6-6.2,9.4-12.3,14.3-18.2c9.8-11.9,19.9-23.5,30.5-34.5c5.3-5.5,10.7-10.8,16.4-15.7c2.9-2.4,5.8-4.8,8.8-6.8
				c1.5-1,3.1-2,4.7-2.7c1.5-0.7,3.7-1.1,3.9,0.4c0.3,1.6-0.4,3.7-1.1,5.5c-0.7,1.8-1.6,3.6-2.5,5.4c-1.8,3.5-4,6.8-6.2,10
				c-4.4,6.4-9.2,12.5-14.3,18.2c-5,5.9-10.4,11-16.1,16c-5.6,5-11.4,9.8-17.3,14.3c-11.9,9.1-24.1,17.6-36.7,25.2
				c-0.4,0.2-0.6,0.8-0.4,1.3c0.2,0.5,0.7,0.7,1.1,0.5c13-7.1,25.3-15.5,37.3-24.6c11.9-9.1,23.8-18.7,33.7-30.8
				c4.9-6,9.5-12.4,13.8-19.1c2.1-3.3,4.1-6.8,6-10.3c0.9-1.8,1.8-3.6,2.5-5.5c0.7-1.9,1.5-3.9,1.1-6.4c-0.2-1.4-1.7-2.1-2.6-2
				c-1,0-1.9,0.3-2.8,0.7c-1.8,0.7-3.4,1.6-5,2.6c-3.2,2-6.1,4.3-9.1,6.7c-5.9,4.7-11.7,9.6-17.2,14.9
				c-11.2,10.4-21.8,21.5-31.7,33.5c-9.9,11.9-19.6,24.2-27.8,38c-4.2,6.8-8.2,14.4-10.3,22.5c-1,4.1-2,8.2-1.9,12.7
				c0.1,2.2,0.8,4.7,2.5,6.6c1.7,2,4.3,2.1,6.2,1.2c3.8-1.7,6.4-4.8,8.8-8c2.4-3.3,4.2-6.9,5.7-10.8c2.8-7.3,3.6-16.1,0.7-23.8
				C1669.4,958.4,1677.9,961.2,1686.5,962.3z"/>
		</g>
		<g>
			<path class="st0" d="M1007.5,949.5c3.2-8.7,8.6-16.7,15.6-22.4c6.9-5.8,14.7-9.4,22.3-13.3c7.7-3.6,15.2-7.5,22.2-12.5
				c7-5,13.3-11.4,18.7-18.7c-4.8,7.8-10.2,15.1-17.2,20.5c-7,5.5-14.7,9.4-22.4,13.2c-7.7,3.6-15.3,7.3-22.2,12.6
				C1017.8,934.1,1011.5,941.1,1007.5,949.5z"/>
		</g>
		<path class="st0" d="M242.2,967.5c-3,4.5-5.6,9.5-7.9,14.6c-1.1,2.6-2.1,5.4-2.7,8.4c-0.3,1.5-0.5,3.1-0.4,4.8
			c0.1,1.7,0.7,3.7,2,4.9c0.9,1,2.2,1.7,4.2,1.8c1.9,0.1,4-0.5,4-0.5c2.5-0.7,4.9-1.7,7.2-2.9c17.7-10.6,37.5-30.6,37.5-30.6
			l-0.8-1.2c0,0-25.1,23.2-37.6,29.6c-2.2,1-4.5,2.1-6.7,2.5c0,0-1.6,0.3-3.2,0.2c-1.4-0.1-2-0.4-2.7-1.4c-0.9-1.3-0.8-3.7-0.2-6.2
			c0.6-2.5,1.6-4.9,2.8-7.3c3.9-9.2,10.9-19.6,14-24.3c1.2-1.8,2-3.2,2.3-3.8c0.3-0.7-0.6-0.9-1.4-0.9c-0.8-0.1-0.8-0.1-1.3,0.4
			c-1,0.7-9.3,10.4-9.3,10.4c-3.4,3.6-6.4,7-9.8,10.5c-6.9,6.8-13.9,13.6-21.5,19.3c-1.9,1.4-3.9,2.7-5.9,3.5c-1,0.4-2,0.7-2.8,0.6
			c-0.7-0.2-0.9-0.5-1-1.5c-0.1-1.4,0.8-6,1.2-7.2c0.6-2.5,1.3-4.9,2.1-7.3c1.6-4.8,3.6-9.3,5.9-13.7c1.1-2.2,2.3-4.4,3.4-6.6
			l1.8-3.3c0.3-0.5,1.6-2.9,1.7-3.4c0.1-0.5,0.1-1.1-1.2-1.1c-0.9,0-1.2,0-1.6,0.3c0,0-2.4,1.7-4.6,3.6
			c-5.9,5.4-28.8,29.1-39.6,35.1c-3.7,2.5-10.7,6.4-16.6,5.4c-2-0.5-3.6-1.4-4.6-3.5c-0.7-1.5-1.3-6.6,0.1-11.2
			c0.6-1.9-1.8-1.2-2.3-0.1c-0.7,1.7-1.2,4-1.2,5.6c-0.1,2.5,0.2,4.8,1.3,7.1c1.1,2.3,3.2,3.9,5.4,4.5c2.2,0.4,4.5,0.5,6.7-0.1
			c4.4-1.2,8.8-3.5,12.6-5.9C186.9,987.3,209,964,209,964s-1.5,1.8-4.2,7.4c-2.8,5.8-5.4,16.6-5.9,19.2c-1.1,6-0.3,9.3,0.5,10.5
			c0.6,0.8,1.5,1.2,2.3,1.3c1.5,0.1,2.7-0.4,3.9-0.8c2.3-1.1,4.2-2.4,6.2-3.9c7.7-5.9,14.6-12.9,21.4-19.9
			C236.5,974.2,242.2,967.5,242.2,967.5z"/>
		<path class="st0" d="M767.8,965.8c-3,4.5-5.5,9.5-7.8,14.7c-1.1,2.6-2.1,5.4-2.6,8.4c-0.3,1.5-0.5,3.1-0.4,4.8
			c0.1,1.7,0.8,3.6,2,4.9c0.9,1,2.3,1.7,4.2,1.8s4-0.5,4-0.5c2.5-0.7,4.9-1.7,7.1-2.9c17.7-10.7,37.4-30.7,37.4-30.7L811,965
			c0,0-25,23.3-37.4,29.7c-2.2,1.1-4.4,2.1-6.7,2.5c0,0-1.6,0.3-3.2,0.2c-1.4-0.1-2-0.4-2.7-1.4c-0.9-1.3-0.8-3.7-0.2-6.2
			c0.6-2.5,1.6-4.9,2.7-7.3c3.8-9.2,10.9-19.6,13.9-24.3c1.2-1.8,2-3.2,2.3-3.8c0.3-0.7-0.6-0.9-1.4-0.9c-0.8,0-0.8,0-1.3,0.4
			c-1,0.7-9.3,10.5-9.3,10.5c-3.3,3.6-6.3,7.1-9.8,10.5c-6.9,6.9-13.8,13.7-21.4,19.3c-1.9,1.4-3.9,2.7-5.8,3.6
			c-1,0.4-2,0.7-2.8,0.6c-0.7-0.2-0.9-0.5-1-1.5c-0.1-1.4,0.8-6,1.2-7.2c0.6-2.5,1.3-4.9,2.1-7.3c1.6-4.8,3.6-9.4,5.8-13.8
			c1.1-2.3,2.3-4.4,3.4-6.6l1.8-3.3c0.3-0.5,1.6-2.9,1.7-3.4s0.1-1.1-1.2-1.1c-0.9,0-1.2,0-1.6,0.3l-4.6,3.7l-5.3,4.3l-10.5,8.9
			c-6.9,6-21.4,18.3-27,22c-3.7,2.5-7.5,4.9-11.6,6.2c-2,0.5-3.7,0.5-5.8,0.2c-2-0.5-3.1-1.9-4.1-4c-0.8-1.5-1.1-7,0.3-11.6
			c0.6-1.9-1.8-1.2-2.3-0.1c-0.7,1.7-1.2,4.1-1.2,5.6c0,2.5,0.2,4.8,1.4,7.1c1.1,2.3,3.2,3.9,5.4,4.4c2.2,0.4,4.5,0.4,6.7-0.1
			c4.4-1.2,8.2-3.6,12.1-6c3.8-2.4,2.4-1.7,6-4.5c7.3-5.5,14.3-11.4,21.2-17.5l14.9-12.7c0,0-1.6,1.9-4.3,7.5
			c-2.3,4.7-3.4,8.2-4.9,13.6c-0.7,2.6-1.4,5-1.8,7.7c-1.1,6-0.2,9.3,0.6,10.5c0.6,0.8,1.5,1.2,2.3,1.3c1.5,0.1,2.7-0.4,3.9-0.9
			c2.2-1.1,4.2-2.5,6.2-3.9c7.7-6,14.5-13,21.3-20C762.2,972.6,767.8,965.8,767.8,965.8z"/>
		<path class="st0" d="M1520.8,985.6c0.7-1.7,1.7-3.4,2.9-4.9c1.2-1.5,2.8-2.8,4.6-3.6c3.6-1.7,7.5-2,11.3-2.3
			c3.8-0.2,7.5,0.1,10.9-0.9c3.4-1,6.3-3.4,8.8-6.2c-0.9,1.7-2,3.2-3.3,4.6c-1.4,1.4-3,2.5-4.9,3.2c-3.7,1.5-7.7,1.3-11.3,1.5
			c-3.7,0.2-7.4,0.4-10.7,1.6C1525.7,980,1523.1,982.7,1520.8,985.6z"/>
		<path class="st0" d="M354.8,968.5c-5.8,4.6-11.5,9.7-17.4,14.3c-5.9,4.6-12.1,9-18.4,13.2c-12.6,8.3-26,15.4-39.8,21.6
			c-13.8,6.3-28,11.1-41,18.4c-6.5,3.7-12.8,7.6-18.4,12.4c-2.8,2.4-5.4,5-7.4,8.1c-2,3-3.6,6.6-2.7,9.8c0.4,1.6,1.6,2.8,3.1,3.4
			c1.5,0.7,3.3,0.8,5.1,0.6c3.5-0.5,7.2-1.6,10.6-2.8c7-2.5,13.5-6.1,19.7-10.1c12.4-8.2,23.5-18.3,33.4-29.5
			c4.9-5.6,9.6-11.5,13.9-17.5c4.3-6.1,8.5-12.4,12.6-18.6c8.2-12.6,16.5-25.1,24.5-37.8c0.2-0.4,0.7-0.5,1.1-0.2
			c0.4,0.2,0.5,0.7,0.2,1.1c-7.8,12.9-15.6,25.7-23.8,38.3c-4.1,6.3-8.2,12.6-12.5,18.8c-4.3,6.2-9,12.2-14,17.9
			c-9.9,11.4-21,22-33.8,30.2c-6.4,4.1-13.3,7.5-20.6,9.9c-3.7,1.1-7.3,2.1-11.2,2.5c-2,0.1-4.1,0-6-0.9c-1.9-0.8-3.6-2.6-4.1-4.7
			c-0.6-2.1-0.3-4.2,0.3-6.1c0.6-1.9,1.5-3.7,2.5-5.3c2.1-3.3,4.6-6.2,7.4-8.8c5.6-5.3,11.8-9.7,18.5-13.4c6.6-3.8,13.4-7.1,20.4-10
			l10.5-4.1l5.2-2.1l5.2-2.2c13.7-5.9,27.1-12.8,39.7-20.8c6.3-4,12.5-8.2,18.5-12.8c6-4.5,11.7-9.4,17.7-14
			c0.4-0.3,0.9-0.2,1.1,0.1C355.3,967.7,355.2,968.2,354.8,968.5L354.8,968.5z"/>
		<path class="st0" d="M351.8,968.9c4.5-3.9,9.2-7.7,14.3-10.9c2.6-1.5,5.2-3.1,8.6-3.7c0.9-0.1,1.8-0.1,2.8,0.2
			c0.9,0.3,1.7,0.8,2.4,1.5c1.4,1.4,1.9,3.4,1.9,5.1c0,3.5-1.6,6.5-3.3,9.1c-1.8,2.6-4,4.8-6.5,6.7c-5,3.7-10.6,6-16.3,8.1l0,0
			l-0.4-1.4c2.9-0.4,5.8,0.3,8.2,1.8c1.2,0.8,2.3,1.7,3.3,2.7c0.9,1,1.8,2.2,2.4,3.6c1.2,2.7,1.3,5.7,1,8.5c-0.3,2.8-1.1,5.5-2.1,8
			c-2,5.1-4.8,9.8-7.8,14.2c-3.1,4.4-6.4,8.7-9.9,12.7c-7.2,8-15.3,15.1-24.4,20.8c-2.3,1.4-4.7,2.7-7.2,3.8c-2.5,1-5.2,2-8.2,1.5
			c-1.5-0.3-3-1.4-3.6-2.9c-0.6-1.5-0.6-3-0.3-4.4c0.5-2.8,1.7-5.3,3-7.7c5.5-9.4,14-16.7,23.2-22.2c4.6-2.9,9.5-5.1,14.2-7.4
			c4.8-2.2,9.5-4.6,13.9-7.4c9-5.4,17.1-12.3,25.1-19.2c7.9-7,15.4-14.5,22.8-22.1c0.3-0.3,0.7-0.3,1,0c0.3,0.3,0.3,0.7,0,1l0,0
			c-14.9,15-30,30.2-47.8,42c-4.5,2.9-9.1,5.6-13.9,8c-4.7,2.4-9.4,4.8-13.8,7.6c-4.4,2.8-8.6,5.9-12.6,9.2
			c-3.9,3.4-7.7,7.1-10.5,11.4c-1.4,2.2-2.6,4.5-3,7c-0.2,1.2-0.2,2.5,0.2,3.5c0.4,1,1.3,1.6,2.4,1.8c2.3,0.4,4.8-0.6,7.1-1.6
			c2.3-1.1,4.5-2.5,6.7-4c8.5-6,16-13.6,23-21.3c6.9-7.8,13.4-16.2,17.5-25.7c1-2.4,1.8-4.8,2.2-7.2c0.4-2.4,0.4-4.9-0.5-7.1
			c-0.4-1.1-1.1-2.1-1.8-3.1c-0.8-1-1.7-1.8-2.6-2.5c-2-1.4-4.5-2.2-6.9-2.1l-0.1,0c-0.4,0-0.7-0.3-0.7-0.7c0-0.3,0.2-0.6,0.5-0.7
			l0,0c5.4-2.2,10.5-5.4,14.8-9.1c2.1-1.9,4.1-3.9,5.7-6.3c1.6-2.3,2.8-4.8,3-7.3c0.1-1.2-0.2-2.3-0.8-3.1c-0.3-0.4-0.8-0.7-1.3-0.9
			c-0.4-0.2-1-0.2-1.6-0.2c-2.6,0.3-5.3,1.6-7.8,3c-5,2.9-9.8,6.5-14.3,10.3l0,0c-0.3,0.3-0.9,0.3-1.2-0.1
			C351.4,969.8,351.4,969.2,351.8,968.9z"/>
		<path class="st0" d="M305.2,811.7l1.1,1.8c-19.2,12.8-42.9,20.2-69.5,20.2c-73.8,0-127.3-57.1-127.3-127.3
			c0-70.2,53.6-127.3,127.3-127.3c26.6,0,50.4,7.4,69.5,20.2l-1.1,1.8c-19.5-13.5-44-20.6-68.4-20.6c-66,0-113.1,56.4-113.1,125.9
			c0,69.5,47.2,125.9,113.1,125.9C261.2,832.3,285.7,825.2,305.2,811.7z"/>
		<path class="st0" d="M493.2,708.2h-95.8l-52.1,122.3h-1.4l108.5-255l108.5,255h-15.2L493.2,708.2z M398.2,706.8h94.3l-47.2-110.3
			L398.2,706.8z"/>
		<path class="st0" d="M601.5,830.5l90.1-118.4l-90.1-129.8h17.7L700.8,700l89.4-117.7h1.4l-90.1,118.5l90.1,129.8h-17.7
			l-81.6-117.4l-89.4,117.4H601.5z"/>
		<path class="st0" d="M983,708.2h-95.8l-52.1,122.3h-1.4l108.5-255l108.5,255h-15.2L983,708.2z M888,706.8h94.3l-47.2-110.3
			L888,706.8z"/>
		<path class="st0" d="M1178.4,594l-101.1,236.6h-1.4l108.5-255l108.5,255h-13.1L1178.4,594z"/>
		<path class="st0" d="M1357.3,813.9l161-238.7v255.3h-14.2V598.6l-161,239V582.3h14.2V813.9z"/>
		<path class="st0" d="M1754.2,830.5H1740V705.7h-136.2v124.8h-14.2V582.3h14.2v122H1740v-122h14.2V830.5z"/>
	</g>
	<g>
		<path class="st0" d="M905.3,244.4c1-2.2,2.3-4.5,3.8-6.8c1.5,1.7,3.7,3.2,5.8,4.6c0.6-0.1,1.1-0.3,1.7-0.4c0,0,0,0-0.1,0
			c-2.5-1.7-5.4-3.5-7-5.6l-0.5-0.7l-0.5,0.7c-2,2.9-3.5,5.8-4.7,8.5C904.3,244.6,904.8,244.5,905.3,244.4z"/>
		<path class="st0" d="M940,237.5c1.9-1.9,4-4.1,5.2-6.3c1.7,1.7,3.2,3.3,4.5,5c0.5-0.1,1-0.1,1.4-0.2c-1.6-2.1-3.5-4.2-5.7-6.3
			l-0.6-0.6l-0.4,0.8c-1.1,2.3-3.5,4.8-5.6,7c-0.3,0.3-0.6,0.6-0.8,0.9C938.7,237.7,939.3,237.6,940,237.5z"/>
		<path class="st0" d="M1112.3,433.1c0.8,1.6,1.7,3.1,2.5,4.6c4.1,7.5,7.3,13.4,7.3,18.1c0,2-2.4,3.3-4.3,4
			c-12.6,4.4-37.2,0.2-42-5.8c-3.1-3.9-5.3-8.1-6.7-12.6c-0.4,0-0.8-0.1-1.2-0.1c1.3,4.8,3.6,9.3,6.9,13.5c4,5,18,7.9,29.9,7.9
			c5.2,0,10-0.6,13.4-1.8c4.3-1.5,5.2-3.6,5.2-5.1c0-5-3.3-11-7.5-18.7c-0.8-1.5-1.6-3-2.5-4.6
			C1113,432.7,1112.7,432.9,1112.3,433.1z"/>
		<path class="st0" d="M1015.3,390.2c9,1.5,19.9,2.9,32.5,3.7c8.2,0.5,15.5,0.7,21.9,0.8c10.9,0.2,20.4,0.4,29.7,2.4
			c3.4,0.7,6.9,9.5,10.2,17.9c2,5.1,4.1,10.4,6.4,14.6c-9.3,6.1-32.5,12.8-50.7,10.1c-0.1-6.2-1.4-14.6-2.7-22.7l-0.1-0.4l-0.4-0.1
			c-23.5-5.1-54.9-13.6-69.6-20.1c-0.6-0.3-1.2-0.5-1.7-0.8c-0.7,0.1-1.4,0.2-2.1,0.3c1,0.5,2,1.1,3.3,1.6c14.7,6.5,45.9,15,69.4,20
			c1.3,8.2,2.6,16.6,2.6,22.6v0.5l0.5,0.1c1.1,0.2,2.2,0.3,3.3,0.4c0.4,0,0.8,0.1,1.2,0.1c1.6,0.1,3.2,0.2,4.8,0.2
			c14,0,29.2-4.1,38.3-8.5c0.4-0.2,0.7-0.4,1.1-0.5c1.4-0.7,2.7-1.5,3.7-2.2l0.5-0.3l-0.3-0.5c-2.3-4.2-4.5-9.7-6.6-15
			c-3.8-9.6-7-17.8-11.1-18.7c-9.4-2-18.9-2.2-29.9-2.4c-6.4-0.1-13.7-0.3-21.8-0.8c-11.5-0.7-21.6-2-30.1-3.4
			C1016.9,389.6,1016.1,389.9,1015.3,390.2z"/>
		<path class="st0" d="M875.7,442.4c-1.2,4.3-3.4,8.4-6.3,12.2c-5.2,6.6-29.4,9.2-39.7,5.7c-2-0.7-4.3-1.9-4.3-3.9
			c0-4.5,3.1-10.3,7-17.6c0.8-1.4,1.6-2.9,2.4-4.5c-0.4-0.2-0.7-0.4-1.1-0.6c-0.8,1.5-1.6,3-2.4,4.5c-4,7.4-7.1,13.3-7.1,18.2
			c0,1.5,0.9,3.6,5.1,5.1c3.3,1.1,7.9,1.7,12.8,1.7c11.3,0,24.5-2.8,28.3-7.7c3.1-4,5.3-8.4,6.6-13.1
			C876.5,442.3,876.1,442.3,875.7,442.4z"/>
		<path class="st0" d="M948.8,398.6c-0.1,0-0.1,0-0.2,0.1c-14,6.3-43.9,14.6-66.3,19.5l-0.4,0.1l-0.1,0.4c-1.3,7.9-2.5,16.1-2.6,22
			c-17.3,2.6-39.3-3.9-48.2-9.8c2.2-4.1,4.2-9.2,6.1-14.2c3.2-8.2,6.4-16.7,9.7-17.4c8.8-1.9,17.8-2.1,28.3-2.3
			c6.1-0.1,13-0.3,20.8-0.8c5.5-0.4,10.7-0.9,15.5-1.4c-1.3-0.3-2.6-0.5-3.8-0.8c-3.7,0.4-7.7,0.7-11.8,1
			c-7.8,0.5-14.7,0.7-20.8,0.8c-10.5,0.2-19.6,0.4-28.5,2.4c-3.9,0.8-7,8.9-10.6,18.2c-2,5.2-4,10.5-6.3,14.6l-0.3,0.5l0.4,0.3
			c1,0.7,2.2,1.4,3.5,2.1c0.4,0.2,0.7,0.4,1.1,0.6c8.8,4.3,23.2,8.3,36.5,8.3c1.5,0,3-0.1,4.5-0.2c0.4,0,0.8-0.1,1.2-0.1
			c1.1-0.1,2.1-0.2,3.1-0.4l0.5-0.1v-0.5c0-5.8,1.2-14,2.5-21.9c22.4-5,52.1-13.2,66.1-19.5c0.9-0.4,1.6-0.8,2.3-1.2
			C950.6,398.7,949.7,398.7,948.8,398.6z"/>
		<path class="st0" d="M819.1,324.6c-1.9-5-2.9-9.5-2.8-12.8c0.2-7,6.5-13.8,14.3-19.9c0.1-0.6,0.2-1.2,0.3-1.8
			c-8.7,6.6-15.5,13.8-15.8,21.7c-0.1,3.7,1.1,8.9,3.4,14.7c0.2,0.1,0.5,0.2,0.7,0.3C819.2,326,819.1,325.3,819.1,324.6z"/>
		<path class="st0" d="M965.8,236.2c3.7-0.2,7.4-0.3,11-0.3c0.5-0.4,1-0.8,1.5-1.2c-4,0-8.1,0.1-12.3,0.3
			C965.9,235.4,965.9,235.8,965.8,236.2z"/>
		<path class="st0" d="M898,247.7C898,247.7,898,247.7,898,247.7c1.7-0.6,3.5-1.1,5.3-1.6c18.7-4.7,36.5-7.8,52.9-9.3
			c0.1-0.2,0.1-0.4,0.2-0.6c0.1-0.2,0.2-0.5,0.2-0.7c-1.8,0.2-3.6,0.3-5.4,0.5c-0.5,0.1-1,0.1-1.4,0.2c-3.2,0.4-6.4,0.8-9.7,1.3
			c-0.7,0.1-1.3,0.2-2,0.3c-7,1.1-14.1,2.4-21.4,3.9c-0.6,0.1-1.1,0.3-1.7,0.4c-3.2,0.7-6.4,1.4-9.6,2.2c-0.5,0.1-1,0.2-1.5,0.4
			c-0.3,0.1-0.6,0.1-0.8,0.2c-2,0.5-4,1.1-5.9,1.8C897.4,247,897.7,247.4,898,247.7z"/>
		<path class="st0" d="M1027.7,244.2c3.1,1,6.2,2.1,9.5,3.3c0.2,0.1,0.4,0.1,0.6,0.2c0.6-0.2,1.1-0.5,1.7-0.7
			c-0.6-0.2-1.2-0.4-1.8-0.6c-3.8-1.3-7.4-2.6-10.9-3.8C1027.1,243.1,1027.4,243.6,1027.7,244.2z"/>
		<path class="st0" d="M1057.4,254.3c6.4,2,13.6,4.2,22,6.4c1.2,0.3,2.4,0.7,3.5,1c0.1-0.4,0.2-0.8,0.3-1.2c-1.1-0.4-2.3-0.7-3.5-1
			c-9-2.4-16.5-4.6-23.2-6.8C1056.8,253.2,1057.1,253.8,1057.4,254.3z"/>
		<path class="st0" d="M1001.1,237.5c2.6,0.4,5.2,0.8,7.6,1.3c0.6-0.3,1.2-0.6,1.8-0.9c-3.2-0.7-6.5-1.3-10-1.8
			C1000.8,236.6,1000.9,237,1001.1,237.5z"/>
		<path class="st0" d="M881.1,255.9c2.6-1.6,5.2-3.1,8-4.5c-0.2-0.4-0.3-0.7-0.5-1.1c-3.1,1.6-6.1,3.3-9,5.2
			C880.1,255.6,880.6,255.7,881.1,255.9z"/>
		<path class="st0" d="M842.3,283.6c1.4-1,2.9-1.9,4.3-2.8c0.1,0,0.1-0.1,0.2-0.1c0.1-0.5,0.1-1.1,0.2-1.6c-0.3,0.2-0.7,0.5-1,0.7
			c-1.9,1.2-3.9,2.5-5.8,3.8C840.8,283.6,841.6,283.6,842.3,283.6z"/>
		<path class="st0" d="M839.5,284.8c2.1,0.1,4.4,0,6.8-0.1c0-0.4,0.1-0.8,0.1-1.2c-1.4,0.1-2.8,0.1-4.1,0.1c-0.8,0-1.5,0-2.2,0
			c-1.4,0-2.8-0.1-3.8-0.3c0.5,0.3,1.1,0.5,1.6,0.8C838.4,284.3,839,284.6,839.5,284.8z"/>
		<path class="st0" d="M830.7,291.9c-0.8,5.7-1.4,11.6-0.2,15.2c0.3-0.3,0.7-0.5,1-0.8c-1-3.6-0.3-9.7,0.5-15.1
			c-0.1-0.5-0.3-1-0.4-1.6c-0.1-0.5-0.2-1-0.4-1.6l-0.1,0.7c-0.1,0.4-0.1,0.9-0.2,1.3C830.8,290.7,830.7,291.3,830.7,291.9z"/>
		<path class="st0" d="M831.6,289.6c0.1,0.6,0.3,1.1,0.4,1.6c0.3,1.2,0.6,2.2,1.1,3h0c0.7,1.2,2.1,2.1,3.8,2.3
			c0.3,0,0.6,0.1,0.9,0.1c1.6,0,3.2-0.6,4.3-1.6c1.5-1.4,2.4-3.3,2.3-5c-0.1-1.3-0.6-2.4-1.6-3.2c-0.8-0.7-1.9-1.2-3.2-1.9
			c-0.5-0.3-1-0.5-1.6-0.8c-0.5-0.2-1-0.5-1.6-0.8c-2-1-4.3-2.2-6.8-3.8c-0.2-0.1-0.5-0.1-0.7,0c-0.2,0.2-0.3,0.5-0.2,0.7
			c1.4,3.2,2.1,5.7,2.6,7.8C831.3,288.6,831.5,289.1,831.6,289.6z M837.3,285.1c2,1,3.6,1.7,4.6,2.5c0.7,0.6,1.1,1.3,1.2,2.3
			c0.1,1.4-0.7,2.9-1.9,4.1c-1,1-2.6,1.4-4.2,1.2c-1.3-0.2-2.3-0.8-2.9-1.7h0c-0.6-1-1-2.4-1.4-4.3c-0.5-1.9-1.1-4.5-2.3-7.8
			C833,283.1,835.4,284.2,837.3,285.1z"/>
		<path class="st0" d="M856.2,270.3c0.8,0,1.6,0.1,2.4,0.1c-0.1-0.4-0.2-0.8-0.2-1.2c-2,0-3.9-0.2-5.3-0.5c0.5,0.3,1.1,0.5,1.6,0.8
			C855.2,269.8,855.7,270,856.2,270.3z"/>
		<path class="st0" d="M846.7,280.7c-0.1,0.9-0.2,1.9-0.3,2.8c0,0.4-0.1,0.8-0.1,1.2c-0.3,4.2,0,7.8,1.6,9.8c0.3-0.3,0.7-0.5,1-0.8
			c-2.3-2.8-1.3-10.5-0.2-17.2c-0.1-0.5-0.2-1-0.4-1.6c-0.1-0.5-0.2-1-0.4-1.6l-0.1,0.7c-0.3,1.6-0.6,3.4-0.8,5.1
			C846.9,279.7,846.8,280.2,846.7,280.7z"/>
		<path class="st0" d="M848.6,276.5c0.3,1.2,0.6,2.2,1.1,3c0.7,1.2,2.1,2.1,3.7,2.4c0.3,0.1,0.7,0.1,1,0.1c1.6,0,3.1-0.6,4.2-1.5
			c1.1-1,1.9-2.3,2.2-3.6c-0.7-1.5-1.3-3.2-1.8-5c-0.8-0.6-1.7-1.1-2.8-1.7c-0.5-0.3-1-0.5-1.6-0.8c-0.5-0.2-1-0.5-1.6-0.8
			c-2-1-4.2-2.2-6.7-3.9c-0.2-0.2-0.5-0.1-0.7,0c-0.2,0.2-0.3,0.5-0.2,0.7c1.3,3.2,2,5.8,2.4,7.8c0.1,0.6,0.2,1.1,0.4,1.6
			C848.4,275.5,848.5,276,848.6,276.5z M857.8,279.6c-1,0.9-2.6,1.4-4.2,1.1c-1.3-0.2-2.3-0.8-2.8-1.8c-0.6-1.1-0.9-2.4-1.3-4.3
			c-0.4-2-1-4.5-2.2-7.8c2.6,1.6,4.9,2.8,6.8,3.7c2,1,3.5,1.8,4.6,2.6c0.7,0.6,1.1,1.4,1.1,2.3C859.8,276.9,859.1,278.4,857.8,279.6
			z"/>
		<path class="st0" d="M858.7,270.4c0.1,0.5,0.2,1.1,0.4,1.6c0.5,1.8,1.1,3.4,1.8,5c0.8,1.7,1.8,3.2,2.8,4.4
			c0.3,0.3,0.5,0.5,0.8,0.8c0.3-0.2,0.7-0.5,1.1-0.7c-0.4-0.3-0.7-0.6-1-0.9c-3.6-3.8-5.8-11.8-5.3-18.1c-0.3-0.5-0.7-1-1-1.6
			c-0.4,2.6-0.3,5.5,0.2,8.4C858.5,269.6,858.6,270,858.7,270.4z"/>
		<path class="st0" d="M869.6,254.6c0.6,0.1,1.3,0.3,2,0.4c7.4,1.4,16.7,3.1,16.7,8.5c0,1.8-0.3,3.6-0.9,5.2c0.5-0.2,1-0.5,1.5-0.7
			c0.4-1.4,0.6-2.9,0.7-4.5c0-4-3.7-6.2-8.4-7.6c-0.5-0.2-1-0.3-1.6-0.5c-2.5-0.7-5.2-1.2-7.7-1.6c-1.2-0.2-2.3-0.4-3.3-0.6
			C868.9,253.7,869.2,254.2,869.6,254.6z"/>
		<path class="st0" d="M859.3,262.3c0.7,1,1.1,1.6,1.1,1.6c2.6,3.1,5.5,6.2,8.9,6.2c1.4,0,3-0.6,4.6-1.9c1.4-1.2,2.1-2.6,2.1-4.1
			c0-3.6-3.8-7.2-6-9c-0.1-0.1-0.3-0.3-0.4-0.4c-0.4-0.4-0.7-0.9-1.1-1.5c-0.2-0.3-0.4-0.6-0.6-0.8c-0.1-0.1-0.1-0.2-0.2-0.3
			c0,0.7-0.1,1.3-0.2,1.9c0.6,0.9,1.2,1.6,1.8,2.1c1.7,1.4,5.5,4.9,5.5,8.1c0,1.2-0.6,2.3-1.7,3.2c-4.2,3.4-7.5,1.1-11.8-4.1
			c-0.8-1-2-2.7-3-4.7c-0.6-0.2-1.2-0.5-1.8-0.8c0.5,1.1,1.1,2.2,1.6,3.1C858.6,261.3,858.9,261.9,859.3,262.3z"/>
		<path class="st0" d="M858.4,258.5c1.9,0.7,3.8,0.9,5.3,0.3c2.2-0.9,3.4-2.7,3.8-4.9c0.1-0.6,0.2-1.2,0.2-1.9
			c0.1-2.9-0.6-6.3-1.5-9.4c-2.3-8.5-17.4-6.3-17.5,3c0,5,3.7,9.7,7.8,12.1C857.2,258,857.8,258.2,858.4,258.5z M851.6,244.4
			c-0.7-1.1,0.5-2.9,2.6-3.8c2.1-1,4.4-0.8,5,0.3c0.7,1.1-0.5,2.9-2.6,3.8C854.5,245.7,852.2,245.5,851.6,244.4z"/>
		<path class="st0" d="M1037.8,247.6c-1.5,0.6-3,1.2-4.4,1.8c-0.8,0.3-1.5,0.6-2.2,0.9c0.2,0.4,0.3,0.8,0.5,1.1
			c0.7-0.3,1.5-0.6,2.2-0.9c3.8-1.5,7.6-3,10.5-4.6c0.2-0.2,0.3-0.3,0.5-0.5c0.6-0.5,1.1-1.1,1.7-1.7l-0.4-0.1
			c-0.2-0.1-0.4,0-0.6,0.1c-1.5,1.1-3.8,2.1-6.2,3.2C1038.9,247.2,1038.3,247.4,1037.8,247.6z"/>
		<path class="st0" d="M1053.4,250c4.4,7,9.1,15.3,5.2,17.8c0,0-0.1,0.1-0.1,0.1c0.4,0.2,0.9,0.4,1.3,0.6c3.1-2.7,1-8.3-2.4-14.2
			c-0.3-0.5-0.6-1-0.9-1.6c-1-1.7-2-3.3-3.1-4.9C1053.4,248.6,1053.4,249.4,1053.4,250z"/>
		<path class="st0" d="M1044.9,245.5c-0.2,0.2-0.4,0.3-0.5,0.5c-1.5,1.5-2.8,2.7-3.4,3.8c-0.6,1.2-0.7,2.5-0.2,3.7
			c0.7,1.7,2.3,3.1,4.3,3.8c0.6,0.2,1.3,0.3,1.9,0.3c1.2,0,2.5-0.4,3.6-1c1.5-0.9,2.4-2.3,2.6-3.8c0.1-0.9,0.2-1.8,0.2-2.8
			c0-0.7,0-1.4,0-2.2c0-2.1-0.1-4.8-0.2-8.6l0-1.6c0-0.3-0.2-0.5-0.4-0.6c-0.3-0.1-0.5,0-0.7,0.3c-1.7,2.6-3.7,4.7-5.5,6.5
			C1046,244.4,1045.4,244.9,1044.9,245.5z M1052.1,239.5c0.2,7.1,0.2,10.4-0.1,13.2c-0.1,1.1-0.9,2.2-2,2.9
			c-1.4,0.9-3.1,1.1-4.5,0.6c-1.7-0.6-3.1-1.8-3.6-3.1c-0.4-0.9-0.3-1.8,0.1-2.7c0.6-1.1,2-2.5,3.7-4
			C1047.6,244.5,1050,242.3,1052.1,239.5z"/>
		<path class="st0" d="M1008.7,238.8c-1.6,0.7-3.2,1.4-4.7,2.1c-0.5,0.2-1.1,0.5-1.6,0.7c0.1,0.4,0.2,0.8,0.3,1.2
			c0.6-0.3,1.2-0.5,1.8-0.8c2.4-1,4.9-2.1,7.1-3.2c0,0,0-0.1,0.1-0.1c0.3-0.6,0.7-1.2,1.1-1.8c-0.7,0.4-1.4,0.7-2.2,1.1
			C1010,238.3,1009.3,238.5,1008.7,238.8z"/>
		<path class="st0" d="M1024,240.7c4.2,6.2,8.7,13.5,6.8,16.8c0.4,0.1,0.8,0.2,1.3,0.3c0.8-1.7,0.5-3.9-0.5-6.4
			c-0.1-0.4-0.3-0.8-0.5-1.1c-0.9-2-2-4-3.4-6.1c-0.3-0.5-0.7-1.1-1.1-1.6c-1-1.5-2-3-3-4.4C1023.9,239,1024,239.9,1024,240.7z"/>
		<path class="st0" d="M1011.6,238.7c0,0,0,0.1-0.1,0.1c-0.5,1.2-0.5,2.4,0,3.6c0.7,1.7,2.4,3,4.4,3.7c0.6,0.2,1.1,0.3,1.7,0.3
			c1.3,0,2.7-0.4,3.8-1.2c1.4-1,2.3-2.4,2.5-3.8c0-0.2,0-0.4,0-0.7c0-0.8-0.1-1.7-0.3-2.6c-0.1-0.5-0.2-1.1-0.4-1.7
			c-0.5-2.5-1.2-5.6-1.5-10.2c0-0.3-0.2-0.5-0.5-0.6c-0.3-0.1-0.5,0-0.7,0.3c-2.1,3.4-4.1,6-5.8,8.1c-0.9,1.1-1.6,2-2.2,2.9
			C1012.3,237.5,1011.9,238.1,1011.6,238.7z M1020.8,228.1c0.3,3.7,0.9,6.4,1.4,8.5c0.4,2,0.7,3.4,0.6,4.6c-0.1,1.1-0.8,2.2-1.9,2.9
			c-1.4,0.9-3.1,1.2-4.5,0.8c-1.7-0.5-3.1-1.7-3.7-3c-0.4-0.9-0.4-1.8,0.1-2.7c0.6-1.3,1.7-2.7,3.2-4.5
			C1017.3,233,1019,230.8,1020.8,228.1z"/>
		<path class="st0" d="M976.8,235.9c-5.2,4.4-9.8,9.3-7.3,13.5c0.7,1.1,1.6,2.2,2.6,3.1c0.6,0,1.2-0.1,1.7-0.1
			c-1.3-1-2.4-2.3-3.3-3.7c-2.5-4.2,4.8-10.1,10.6-14.9c1.1-0.9,2.1-1.7,3.1-2.5c0,0,0-0.1,0.1-0.1c0.2-0.5,0.5-1.2,0.8-2.1
			c-0.1,0-0.3,0-0.4,0.1c-1.2,1.1-2.7,2.4-4.4,3.7c-0.7,0.6-1.4,1.1-2.1,1.7C977.8,235.1,977.3,235.5,976.8,235.9z"/>
		<path class="st0" d="M997.4,233c3.5,5.2,5.5,12.9,4.4,17.9c-0.2,0.7-0.4,1.5-0.9,2.2c0.4,0.1,0.9,0.1,1.3,0.1
			c0.3-0.6,0.6-1.3,0.7-2.1c0.5-2.4,0.4-5.4-0.3-8.4c-0.1-0.4-0.2-0.8-0.3-1.2c-0.3-1.4-0.8-2.7-1.3-4.1c-0.2-0.4-0.4-0.9-0.6-1.3
			c-0.8-1.7-1.7-3.3-2.7-4.6C997.7,232.1,997.6,232.6,997.4,233z"/>
		<path class="st0" d="M984.3,231.2c0,0,0,0.1-0.1,0.1c-1.1,2.2-2.8,8-1.1,11.8c0.7,1.7,2,2.8,3.8,3.3c0.7,0.2,1.4,0.3,2,0.3
			c4.5,0,5.9-5.1,7.4-10.5l0.2-0.8c0.1-0.3,0.2-0.8,0.4-1.3c0.1-0.4,0.2-0.7,0.4-1.2c0.1-0.5,0.3-1,0.4-1.5c0.3-1,0.5-2.2,0.7-3.3
			c-0.5,0.4-1,0.8-1.4,1.2c-0.3,1.7-0.9,3.2-1.2,4.4c-0.2,0.5-0.3,1-0.4,1.3l-0.2,0.8c-1.9,6.9-3.2,10.7-7.9,9.4
			c-1.4-0.4-2.4-1.3-3-2.6c-1.5-3.3,0-8.7,1.1-10.9c0.3-0.6,0.7-1.6,1.1-2.7c0.2-0.5,0.4-1.1,0.6-1.7c-0.3-0.5-0.5-1.1-0.6-1.7
			c-0.4,1-0.8,2.1-1.1,3c-0.1,0.2-0.1,0.3-0.2,0.5C984.8,230,984.5,230.7,984.3,231.2z"/>
		<path class="st0" d="M987,227.4c0.9,1.9,2.4,3.3,4.6,3.7c1.7,0.3,3.7-0.4,5.5-1.6c0.5-0.3,1-0.7,1.4-1.2c3.4-3.2,6-8.5,4.9-13.2
			c-2-9.1-17.2-8-17.7,0.7c-0.2,3.3-0.2,7,0.6,9.9C986.6,226.3,986.8,226.8,987,227.4z M992.3,212.6c0.4-1.3,2.6-1.9,4.8-1.4
			c2.3,0.5,3.8,1.9,3.4,3.2c-0.4,1.3-2.6,1.9-4.8,1.4C993.4,215.3,991.9,213.8,992.3,212.6z"/>
		<path class="st0" d="M894.7,265.5C894.7,265.5,894.8,265.5,894.7,265.5c-1.2-2.3-2.2-6.2-2.5-9.1c0,0,0,0,0,0
			c-0.4-0.3-0.8-0.9-1.3-1.6c0.1,3.3,1.2,8.2,2.8,11.2C894,265.8,894.4,265.6,894.7,265.5z"/>
		<path class="st0" d="M911.6,260.7c0.4-0.1,0.8-0.2,1.2-0.3c-0.2-1.4-0.9-2.7-2-3.7c-2.2-2-5.8-4.9-11.5-7.5c0.4,0.5,0.8,0.8,1,1.1
			c0.5,0.5,0.9,1,1.2,1.4c3.9,2.1,6.5,4.2,8.4,5.9C910.9,258.5,911.5,259.6,911.6,260.7z"/>
		<path class="st0" d="M889,251.4c0.6,1.3,1.2,2.4,1.9,3.3c0.5,0.7,0.9,1.2,1.3,1.6c0,0,0,0,0,0c0.2,0.2,0.4,0.4,0.7,0.6
			c0.9,0.9,2.1,2.2,4,2.2c0.7,0,1.6-0.2,2.6-0.7c1.6-0.8,2.6-2.3,2.8-3.9c0.1-0.7,0-1.7-0.7-2.8c-0.3-0.5-0.7-0.9-1.2-1.4
			c-0.3-0.2-0.6-0.6-1-1.1c-0.4-0.4-0.9-1-1.4-1.5c0,0,0,0,0,0c-0.3-0.3-0.6-0.7-0.9-1c-2.4-2.7-4.7-5.1-6.6-6.2
			c0.4,0.8,0.6,1.5,0.7,2c2,1.7,4.3,4.3,5.8,6c1.1,1.2,1.9,2.2,2.5,2.7h0c1.1,1,1.6,2.1,1.5,3.2c-0.1,1.1-1,2.3-2.2,2.9
			c-2.5,1.4-3.8,0.1-5.1-1.2c-0.3-0.3-0.5-0.5-0.8-0.7c-1.6-1.3-4-6.6-5-10.5c-0.4-0.4-1-1.2-1.6-2.3c0.1,2,1,5,2.2,7.7
			C888.7,250.7,888.9,251,889,251.4z"/>
		<path class="st0" d="M888,244.9c0.1,0.1,0.3,0.2,0.4,0.3c0.2,0.1,0.3,0.1,0.5,0.1c0.1,0,0.2,0,0.3-0.1c0.9-0.4,1.7-0.7,2-1.7
			c0.1-0.3,0.1-0.7,0.1-1.1c-0.1-0.5-0.3-1.2-0.7-2c-0.5-0.9-1.1-2.1-2-3.5c-6.4-10-14.2-29.8-18.9-41.6
			c-4.6-11.5-4.6-11.4-5.4-11.2c-0.6,0.2-0.5,0.9-0.4,1.5c1.8,11.3,16.7,46.9,22.7,57C887,243.7,887.6,244.4,888,244.9z
			 M868.4,195.8c5,12.6,12.6,31.7,19.1,41.8c1.3,2.1,2.9,4.7,2.6,5.6c-0.1,0.3-0.5,0.5-1.1,0.8c-2.8-2.3-18.9-38.6-23.2-54.9
			C866.4,191,867.4,193.3,868.4,195.8z"/>
		<path class="st0" d="M946.8,251c-0.7,1.3-0.9,2.7-0.6,4c0.4-0.1,0.8-0.1,1.2-0.2c-0.2-1.1-0.1-2.2,0.5-3.2
			c1.1-2.1,2.7-4.8,5.2-7.8c0.2-0.7,0.6-1.6,1.2-2.5c0.2-0.3,0.4-0.8,0.7-1.4C950.7,244.2,948.4,248.1,946.8,251z"/>
		<path class="st0" d="M965,253c0.4,0,0.8-0.1,1.2-0.1c0.3-3.3-0.4-7.9-1.4-10.8c-0.2,0.7-0.4,1.4-0.6,1.9c0,0,0,0.1,0,0.1
			C964.8,246.8,965.2,250.4,965,253z"/>
		<path class="st0" d="M956.3,236.3c-0.1,0.2-0.1,0.4-0.2,0.6c-0.4,1.1-0.8,2.1-1.1,2.9c-0.3,0.6-0.5,1.1-0.7,1.4
			c-0.6,0.9-1,1.8-1.2,2.5c-0.3,1-0.3,1.9,0,2.5c0.6,1.3,2.1,1.6,3.4,1.8c0.4,0.1,0.8,0.1,1.1,0.1c3.3,0,5.5-2.1,6.4-4.1
			c0,0,0-0.1,0-0.1c0.2-0.5,0.4-1.1,0.6-1.9c0.5-1.6,0.8-3.7,1.1-5.9c0-0.4,0.1-0.8,0.1-1.2c0.2-3.1,0.1-6.2-0.7-8
			c-0.2,1-0.4,1.9-0.5,2.7c0.5,4.1-0.4,11-1.7,13.8c-0.8,1.8-3,3.8-6.3,3.4c-1.5-0.2-2.2-0.5-2.5-1.1c-0.3-0.7,0.1-2.1,1.2-3.9
			c0.6-0.9,1.3-2.9,2.1-5.2c0.7-2.1,1.6-4.6,2.6-6.6c-0.1-0.7,0-1.7,0.2-2.9c-1.4,2-2.6,5.3-3.7,8.4
			C956.5,235.8,956.4,236.1,956.3,236.3z"/>
		<path class="st0" d="M960.1,230.1c0.1,0.7,0.2,1.2,0.5,1.6c0.6,0.8,1.6,0.8,2.5,0.8c0,0,0,0,0,0c0.2,0,0.4-0.1,0.7-0.3
			c0.3-0.4,0.6-1.3,0.9-2.6c0.2-0.8,0.4-1.7,0.5-2.7c1-5.7,2-15,2.6-23.5c1.3-17,1.4-30.6,0.2-36.4c-0.1-0.5-0.3-1.2-0.9-1.2
			c-0.9,0.1-1,0.1-2.1,16.4c-0.9,13.4-2.1,31.7-4.3,42.3c-0.2,1-0.4,1.9-0.5,2.7C960.1,228.4,960,229.4,960.1,230.1z M962.9,231.3
			c-0.7,0-1.2-0.1-1.4-0.4c-0.6-0.8-0.1-3.7,0.4-6.2c2.2-10.7,3.4-29,4.3-42.5c0.3-5.1,0.6-10,0.9-12.9
			C969.2,185.4,964.7,228.3,962.9,231.3z"/>
		<path class="st0" d="M1053.1,368.7c-3.3,2.2-6.5,4.3-9.8,6.4c-19,12.2-36.7,19.2-75.9,21.8c-38.5,2.5-63.7-4.4-86.2-11.7
			c-0.7,0.2-1.4,0.4-2.1,0.6c0.4,0.1,0.7,0.3,1.1,0.4c8.6,2.8,17.6,5.6,27.5,7.8c1.3,0.3,2.5,0.5,3.8,0.8c11,2.2,23.2,3.7,37.3,3.9
			c0.9,0,1.8,0,2.7,0c0.1,0,0.1,0,0.2,0c5,0,10.3-0.2,15.8-0.5c7.9-0.5,14.9-1.2,21.3-2.1c0.7-0.1,1.4-0.2,2.1-0.3
			c9.5-1.4,17.4-3.3,24.5-5.6c0.8-0.3,1.7-0.6,2.5-0.8c9.7-3.4,17.8-7.8,26.2-13.2c3.7-2.4,7.5-4.8,11.2-7.4
			C1054.4,368.8,1053.7,368.8,1053.1,368.7z"/>
		<path class="st0" d="M839.6,302c2.9-2,5.9-4.1,8.7-6.3c13.8-10.9,27.8-21.3,46.9-29.1c14.3-5.8,59.7-13.3,89.5-13.3
			c5.2,0,9.9,0.2,14,0.7c3.5,0.4,6.7,0.8,9.8,1.1c9.4,0.9,17.6,1.7,29.6,6c7.5,2.7,15.3,6,24.2,9.8c5.1,2.2,10.4,4.4,16.1,6.8
			c0.2-0.3,0.5-0.6,0.7-0.9c0,0,0-0.1,0-0.1c-5.9-2.4-11.2-4.7-16.4-6.9c-1-0.4-2-0.9-3-1.3c-0.4-0.2-0.9-0.4-1.3-0.6
			c-7.2-3.1-13.7-5.8-20-8c-2.3-0.8-4.4-1.5-6.5-2.1c-0.4-0.1-0.8-0.2-1.3-0.3c-8.2-2.2-14.8-2.9-22.2-3.6c-2-0.2-4.1-0.4-6.3-0.6
			c-0.4,0-0.9-0.1-1.3-0.1c-0.7-0.1-1.4-0.2-2.1-0.3c-6.7-0.8-15.4-0.9-25-0.4c-0.6,0-1.2,0.1-1.7,0.1c-1.9,0.1-3.9,0.2-5.9,0.4
			c-0.4,0-0.8,0.1-1.2,0.1c-5.7,0.4-11.7,1-17.5,1.8c-0.4,0-0.8,0.1-1.2,0.2c-12,1.5-23.8,3.5-33.4,5.6c-0.4,0.1-0.8,0.2-1.2,0.3
			c-7.2,1.6-13.1,3.2-16.8,4.7c0,0,0,0,0,0c-0.4,0.1-0.7,0.3-1.1,0.5c-1.6,0.7-3.2,1.4-4.8,2.1c-0.5,0.2-1,0.5-1.5,0.7
			c-8,3.8-15.1,8.1-21.8,12.6c-0.4,0.2-0.7,0.5-1.1,0.7c-5.4,3.7-10.6,7.7-15.6,11.7c-0.3,0.3-0.7,0.5-1,0.8
			c-0.1,0.1-0.2,0.2-0.3,0.3c-2.7,2.2-5.7,4.2-8.6,6.3c-2.5,1.8-5,3.5-7.4,5.3c-0.4,0.3-0.7,0.5-1,0.8c-6.4,5-11.2,10.4-11.3,17.5
			c0,0.7,0,1.4,0.1,2.1c0.4,0.2,0.9,0.4,1.3,0.7C818.8,316.5,828.9,309.4,839.6,302z"/>
		<path class="st0" d="M868.8,332.5c3.3-0.2,6.7-0.3,10.3-0.5c8.1-0.4,15.3-1.3,21.5-2.2c16.1-2.2,27.7-3.8,42.3,6.1l0.7,0.5
			l0.3-0.8c6.3-19.6,31.7-19.5,56.3-19.5l3.7,0c7.6,0,18.2-0.4,29.7-1.1c0.6-0.4,1.3-0.9,2-1.3c-1.6,0.1-3.1,0.2-4.7,0.3
			c0.1,0.1,0.1,0.3,0.2,0.4l-1.2,0.4c-0.1-0.2-0.2-0.5-0.3-0.8c-9.4,0.5-18.3,0.8-25.7,0.8l-3.7,0c-7.4,0-15,0-22,0.5l-0.1,0.7
			c-0.6-0.1-1.1-0.3-1.6-0.6c-15.6,1.4-28.7,5.7-33.4,18.9c-14.7-9.6-26.4-8-42.5-5.8c-1,0.1-2.1,0.3-3.1,0.4
			c-0.3,0.2-0.5,0.4-0.8,0.6l-0.2-0.5c-5.2,0.7-10.9,1.3-17.2,1.6c-3.6,0.2-7,0.3-10.3,0.5c-3.5,0.2-6.8,0.3-10,0.5
			c-0.1,0.1-0.2,0.3-0.3,0.4l-0.4-0.4c-11.2,0.5-20.6,0.6-29.1-0.3c1.1,0.5,2.3,1,3.4,1.5C842.6,333.8,854.2,333.2,868.8,332.5z"/>
		<path class="st0" d="M867.9,326c1.2-0.2,3.3,0.1,5.4,0.4c5.3,0.8,12.6,1.9,15.3-4c1.4-3.1-0.5-9.9-2.5-17.1
			c-1.8-6.3-3.6-12.8-3.1-16.5c-0.2-0.1-0.5-0.2-0.7-0.3l0.5-1.1c0.2,0.1,0.4,0.1,0.5,0.2c1.9-5.5,12.1-10.1,30.3-13.7
			c3.3,1.2,4.7,5.7,6.4,10.9c0.4,1.1,0.7,2.2,1.1,3.4c0.3,0,0.5-0.1,0.8-0.1l0.1,1.2c-0.1,0-0.3,0-0.5,0.1c2.3,6.1,5.5,11.8,13,12.9
			l0.1-0.6l-0.6,0.1c0-0.3-0.1-0.6-0.2-0.9c-7.9-1.6-10.5-9.5-12.7-16.4c-1.5-4.6-2.9-8.9-5.7-10.9c-0.2,0.2-0.4,0.4-0.6,0.7l-1-0.7
			c0.1-0.2,0.3-0.4,0.5-0.6c-0.2-0.1-0.4-0.2-0.5-0.2l-0.2,0l-0.2,0c-19.4,3.7-30,8.8-31.6,15.1c-1,3.9,1,11,2.9,17.8
			c1.9,6.7,3.8,13.6,2.6,16.3c-2.3,5-8.8,4-14,3.2c-2.4-0.4-4.4-0.7-5.9-0.4c-5.3,1-8.5,4.6-10.2,6.5l0.5,0.5l0.4,0.4
			c0.1-0.1,0.2-0.3,0.3-0.4C860.4,329.9,863.3,326.9,867.9,326z"/>
		<path class="st0" d="M899.5,318.6c-0.7-3.5-1.4-7-2-10.4c-0.9-5-1.8-9.4-2.6-12.4c-0.3-1.1-0.8-2-1.5-2.8
			c-1.3-0.5-2.6-0.9-3.8-1.4c2,1.1,3.6,2.5,4.2,4.6c0.8,2.9,1.7,7.5,2.6,12.3c0.6,3.4,1.3,6.9,2,10.4c0.9,4.4-0.1,8.4-2.4,9.7
			l0.3,0.6l0.2,0.5c0.3-0.2,0.6-0.4,0.8-0.6C899.6,327.1,900.5,323.1,899.5,318.6z"/>
		<path class="st0" d="M884.4,288.1c0.3,0.1,0.6,0.2,0.9,0.4c1.2,0.5,2.9,1.2,4.7,1.9c-1.5-0.8-3.2-1.5-4.8-2.1
			C884.9,288.2,884.7,288.2,884.4,288.1z"/>
		<path class="st0" d="M883,288.8l0.4-1.1c0,0,0,0,0,0c-0.2-0.1-0.4-0.1-0.5-0.2l-0.5,1.1C882.6,288.7,882.8,288.7,883,288.8
			c0.4,0.2,0.7,0.3,1,0.4C883.6,289,883.2,288.9,883,288.8z"/>
		<path class="st0" d="M922,288.2c-0.2,0-0.5,0.1-0.8,0.1c-4.8,0.5-11.4,2.6-16.8,4.4c-1.1,0.3-2.1,0.7-3.1,1
			c-3.7-0.5-7.8-1.9-11.3-3.2c-1.8-0.7-3.4-1.4-4.7-1.9c-0.3-0.1-0.6-0.3-0.9-0.4c-0.4-0.2-0.8-0.3-1-0.4l0,0l-0.4,1.1
			c0.3,0.1,0.6,0.2,1,0.4c0.3,0.1,0.5,0.2,0.8,0.4c1.3,0.5,2.9,1.2,4.7,2c1.2,0.5,2.5,1,3.8,1.4c2.6,0.9,5.3,1.6,7.9,1.9l0.1,0
			l0.1,0c1-0.3,2.1-0.7,3.3-1c5.5-1.7,12.2-3.9,16.9-4.3c0.1,0,0.3,0,0.5-0.1L922,288.2z"/>
		<path class="st0" d="M913.9,273.6l1,0.7c0.2-0.2,0.4-0.4,0.6-0.7c2.1-1.9,7-3.3,10.6-2.4c2.2,0.6,3.3,1.9,3.5,3.9
			c0.5,5.7,1.8,12.9,3.1,19.2c0.5,2.4,0.9,4.6,1.2,6.5c0.1,0.3,0.1,0.6,0.2,0.9l0.6-0.1l-0.2-0.6c0.2-0.1,0.4-0.2,0.7-0.3
			c-0.3-2-0.8-4.3-1.2-6.7c-1.2-6.3-2.6-13.4-3-19.1c0,0,0-0.1,0-0.1l-1.2,0.3c-0.2-1.1-0.2-2.1,0.2-3c-0.8-1-1.9-1.8-3.4-2.2
			c-3.9-1-9.7,0.4-12,2.9C914.2,273.2,914,273.4,913.9,273.6z"/>
		<path class="st0" d="M1012.7,304.7c-1.3,0.1-3.4,0.9-6.1,2c-6.7,2.5-16.8,6.3-20,1.5c-1.3-2-1.7-8.9-2-15.6
			c-0.4-8.5-0.9-17.4-3.1-21.1c-4-6.7-19.4-5.2-34.3-3.6l-0.7,0.1l-0.1,0.1c-0.4,0.3-0.7,0.5-1,0.9c0,0,0,0,0.1,0l-0.8,1
			c0,0,0,0,0,0c-1.7,2.8-1.8,7.2-1.8,11.9c-0.1,8-0.2,16.2-7.7,19.2c-0.2,0.1-0.4,0.2-0.7,0.3l0.2,0.6l0.2,0.6
			c7.7-2.6,8.9-9.8,9.1-17c-0.2,0-0.4,0.1-0.6,0.1l-0.3-1.2c0.3-0.1,0.6-0.1,0.9-0.2c0-0.8,0-1.6,0-2.4c0.1-5.4,0.1-10.6,2.9-12.6
			l0.3,0c13.5-1.4,28.7-2.9,32.9,2.6c0.2-0.1,0.3-0.3,0.5-0.4l0.7,1c-0.2,0.1-0.4,0.3-0.6,0.5c1.8,3.8,2.2,12.3,2.6,19.9
			c0.4,7.5,0.7,14,2.2,16.2c3.7,5.6,14.4,1.6,21.5-1.1c2.5-1,4.7-1.8,5.8-1.9c8.6-0.9,14.7,4.5,16.6,8.1c0.1,0.3,0.3,0.5,0.3,0.8
			l1.2-0.4c0-0.1-0.1-0.3-0.2-0.4C1028.8,309.4,1021.7,303.8,1012.7,304.7z"/>
		<path class="st0" d="M973.4,307.7c-0.3-3.5-0.7-7.1-1-10.6c-0.5-4.9-1-9.5-1.1-12.5c-0.1-3.7,3.4-6.4,6.7-8.9
			c0.7-0.5,1.4-1.1,2-1.6l-0.4-0.5c-1.8,1.4-4.5,3.6-7.5,5.6c-1.3,1.6-2.1,3.3-2.1,5.4c0.1,3.1,0.5,7.5,1.1,12.6
			c0.4,3.4,0.7,7,1,10.5c0.3,3.9,1.7,6.5,4.1,7.7c0.5,0.2,1,0.5,1.6,0.6l0.1-0.7l0.1-0.5C975.3,314.3,973.8,311.9,973.4,307.7z"/>
		<path class="st0" d="M964.5,283.6l0.1,0l0.1-0.1c2.4-1,5-2.6,7.4-4.3c3-2.1,5.7-4.2,7.5-5.6c0.2-0.1,0.4-0.3,0.5-0.4
			c0.2-0.2,0.4-0.3,0.6-0.5c0.2-0.2,0.4-0.3,0.6-0.5l-0.7-1c-0.1,0.1-0.3,0.2-0.5,0.4c-0.2,0.2-0.5,0.4-0.8,0.6
			c-2.9,2.3-9.6,7.8-15,10.1c-5.8,0-14.5,0.5-20.3,1.7c-0.3,0.1-0.6,0.1-0.9,0.2l0.3,1.2c0.2,0,0.4-0.1,0.6-0.1
			C949.8,284.1,958.6,283.6,964.5,283.6z"/>
		<path class="st0" d="M929.7,275.2l1.2-0.3l0,0c-0.4-2,0.3-3.6,2.2-4.8c3.5-2.2,9.5-2,11.6-0.4c0,0,0,0,0,0l0.8-1c0,0,0,0-0.1,0
			c-2.7-2.1-9.3-1.9-13,0.3c-1.3,0.8-2.2,1.9-2.6,3.1C929.5,273.2,929.4,274.2,929.7,275.2z"/>
		<path class="st0" d="M881.2,385.2c3.2-0.9,6.2-1.9,8.6-2.8c2.7-1.1,4.4-4.2,3.9-7.1c-0.4-2-1.8-3.4-3.8-4.1
			c-0.7,0.3-1.6,0.6-2.4,0.8c2.8,0.1,4.7,1.4,5.1,3.5c0.4,2.3-1,4.9-3.1,5.7c-20.8,8.1-81.7,17.7-89.1,17.1c-2.2-0.2-3.9-1-5.3-2.1
			c-0.5,0.1-1,0.2-1.6,0.2c1.7,1.6,3.9,2.8,6.8,3.1c0.2,0,0.5,0,0.9,0c9,0,52.7-6.7,78.1-13.8C879.8,385.6,880.5,385.4,881.2,385.2z
			"/>
		<path class="st0" d="M789.7,376.2c0.1-0.4,0.3-0.7,0.5-1c0,0,0.1-0.1,0.1-0.1c-0.5-0.1-0.9-0.1-1.4-0.2c-0.2,0.4-0.4,0.8-0.6,1.3
			C788.8,376.2,789.2,376.2,789.7,376.2z"/>
		<path class="st0" d="M794.9,396.2c6.4-1.1,10.5-2.9,12.3-5.5c1.2-1.7,1.4-3.8,0.5-6.1c-1.5-4.1-5.4-6.8-11.5-7.9
			c-2.1-0.4-4.3-0.5-6.6-0.5c-0.4,0-0.9,0-1.3,0c-8.6,0.2-17,2.7-18.7,4.5c-1.8,2.1-2.7,6.8-0.9,10.7c0.1,0.2,0.2,0.4,0.3,0.5
			c0-1.2,0-2.4,0.1-3.5c-0.5-2.8,0.2-5.6,1.4-7c1.4-1.6,10.4-4.1,19.1-4.1c2.2,0,4.3,0.2,6.3,0.5c5.6,1,9.2,3.4,10.5,7.1
			c0.7,2,0.6,3.6-0.4,5c-1.5,2.2-5.9,4.7-17.3,5.7c0.1,0.4,0.1,0.8,0.2,1.2c1.5-0.1,2.9-0.3,4.2-0.5
			C793.9,396.4,794.4,396.3,794.9,396.2z"/>
		<path class="st0" d="M789,395.7c-0.2-0.9-0.3-1.8-0.6-2.7c-0.8-3-7.8-9.7-12.9-10.9c-2.3-0.5-3.6,0.2-4.3,1
			c-1.1,1.2-1.7,3.1-1.9,5.4c-0.1,1.1-0.1,2.2-0.1,3.5c0.2,8.8,3.6,20.9,5.5,27c3.6,11.8,17.1,38.1,20.2,38.1c0.3,0,0.6-0.1,0.7-0.4
			c0.5-0.7,0.1-1.8-1.1-5.4c-1.7-4.9-4.5-13.2-5.4-23.5c-0.6-7.5-0.3-13.6,0-18.9c0.3-4.5,0.5-8.4,0-12
			C789.1,396.5,789,396.1,789,395.7z M787.9,408.8c-0.3,5.3-0.7,11.4,0,19c0.9,10.5,3.7,18.8,5.4,23.8c0.5,1.5,1,3,1.2,3.8
			c-2.9-2.9-14.5-23.2-18.7-36.9c-5.5-17.9-7-31.3-3.8-34.8c0.7-0.7,1.7-1,3.1-0.6c4.8,1.1,11.3,7.7,12,10.1
			C788.5,398,788.2,402.8,787.9,408.8z"/>
		<path class="st0" d="M790.3,375.1c13.3,1.8,28.4,3.3,40.9,3.3c0.1,0,0.1,0,0.2,0c23.8,0,45.2-3,56-6.3c0.9-0.3,1.7-0.5,2.4-0.8
			c0.1-0.1,0.3-0.1,0.4-0.2c1.7-0.7,2.5-2.2,2.2-4.2c-0.3-1.8-1.4-3.7-3-5.2c-0.2,0.4-0.4,0.8-0.6,1.1c1.3,1.4,2.2,3,2.4,4.3
			c0.2,1,0,2.3-1.4,2.9c-9.3,3.6-32.4,7.2-58.4,7.2c-0.1,0-0.1,0-0.2,0c-20.5,0-47.7-4-63.1-6.7c-0.1,0.4-0.1,0.8-0.2,1.2
			c5.7,1,13,2.2,21.1,3.3C789.4,375,789.8,375,790.3,375.1z"/>
		<path class="st0" d="M749.4,351.9c0.2-3.8,1.5-7.5,4.7-9.6c0.2-0.1,0.5-0.2,0.9-0.2c2.8,0,10.5,2.3,18,4.6
			c8.6,2.6,19.3,5.8,28.9,7.7c13.6,2.7,26.7,4.5,37.8,5.3c-3.1-0.7-6.2-1.4-9.4-2.1c-8.7-1-18.3-2.5-28.1-4.4
			c-9.5-1.9-20.2-5.1-28.8-7.7c-11.9-3.6-18.2-5.4-19.9-4.3c-4.8,3.2-5.8,9.6-5,14.9C748.7,354.5,749.1,353.1,749.4,351.9z"/>
		<path class="st0" d="M768,370.4c0.9-6,1.3-11.6,1-15.4c-0.2-2.6-1.6-5.1-3.9-6.9c-2.6-2.1-6.1-3-9.7-2.5c-3.4,0.5-4.9,2.7-6,6.3
			c-0.4,1.3-0.7,2.7-1,4.2c-0.2,0.8-0.3,1.7-0.5,2.5c-1,5.4-2.3,12.1-5.7,19.8c-2.7,6.2-5.8,11.2-8.2,15.1c-4.1,6.6-6.8,11-4,15
			c0.7,1.1,2,2,3.6,2.9c-0.2-0.6-0.4-1.2-0.5-1.7c-0.9-0.6-1.6-1.2-2-1.8c-2.3-3.3,0.1-7.2,4-13.7c2.5-4,5.5-9,8.3-15.3
			c3.4-7.8,4.7-14.6,5.8-20c1.4-7.1,2.2-11.4,6.5-12c0.6-0.1,1.2-0.1,1.8-0.1c2.6,0,5.1,0.8,7,2.4c2,1.6,3.3,3.9,3.4,6.1
			c0.6,7.6-2,22.8-4.6,33.7c-2.2,9.3-4.8,13.9-7.9,18.6c0.3,0.3,0.5,0.7,0.8,1.1c3.3-5,6-9.7,8.3-19.4c1.3-5.3,2.5-11.5,3.4-17.5
			C767.9,371.2,768,370.8,768,370.4z"/>
		<path class="st0" d="M755.4,407.5c-0.6-0.8-1.4-1.6-2.3-2.3c-2.3-1.9-12.1-4.6-17.1-3c-1.7,0.5-2.7,1.5-3,2.8
			c-0.4,1.3-0.3,2.9,0.1,4.8c0.1,0.6,0.3,1.1,0.5,1.7c2,5.8,7.4,13.4,15.6,21.9c9.8,10.2,35.2,23.7,39.4,23.7c0.2,0,0.3,0,0.4-0.1
			c0.2-0.1,0.4-0.3,0.4-0.6c0.1-0.8-0.8-1.7-4.2-4.9c-5.6-5.3-16-15.1-22.5-27.8c-1.7-3.3-2.7-6.1-3.5-8.5c-0.9-2.5-1.7-4.7-3-6.7
			C756,408.2,755.7,407.8,755.4,407.5z M787.8,455.7c-4.7-1.3-27.7-12.9-37.7-23.3c-11.4-11.9-17.4-22.1-16-27.3
			c0.3-0.9,1-1.6,2.2-1.9c0.9-0.3,2.1-0.4,3.3-0.4c4.7,0,10.9,1.8,12.6,3.3c3.3,2.7,4.3,5.6,5.7,9.5c0.9,2.4,1.9,5.2,3.6,8.6
			c6.6,12.9,17.1,22.8,22.7,28.1C785.8,453.7,787.2,455,787.8,455.7z"/>
		<path class="st0" d="M839.7,359.7c16.9,3.6,32.2,5.7,41.2,5.7c1.7,0,3.2-0.1,4.4-0.2h0c1.4-0.2,2.7-1.1,3.5-2.4
			c0.2-0.4,0.4-0.7,0.6-1.1c0.3-0.7,0.4-1.4,0.4-2.2c0-0.8-0.1-1.6-0.4-2.4c0,0.1,0,0.1,0,0.1c0,0.8-0.3,1.4-0.9,2
			c0,0.1,0,0.2,0,0.2c-0.1,2.3-1.6,4.3-3.5,4.5c-11.7,1.5-48.3-4.4-79.9-14.6c-28.3-9.1-50.3-17.8-57.4-22.8c-1.7-1.2-3-2.5-4-3.9
			c-0.5,0-1,0-1.5,0c1.1,1.8,2.6,3.5,4.7,5c7.2,5,29.3,13.8,57.7,22.9c8.3,2.7,16.9,5,25.4,7.1C833.5,358.3,836.6,359.1,839.7,359.7
			z"/>
		<path class="st0" d="M743.9,322.7c0.4,0,0.8,0,1.2,0c1.2,0,2.4-0.1,3.5-0.2c-0.6-0.4-1.2-0.7-1.7-1.1c-3.8,0.2-8.6-0.3-13.6-1
			c-2-0.2-4-0.5-6-0.7c-6.1-0.7-11.1-0.6-16-0.5c-3.7,0.1-7.2,0.1-10.9-0.2c-0.5,0-1.1-0.1-1.6-0.2c-0.6,0.3-1.2,0.6-1.8,0.9
			c1,0.3,2.1,0.5,3.3,0.6c3.8,0.3,7.3,0.2,11,0.2c4.8-0.1,9.8-0.1,15.8,0.5c0,0,0,0,0,0c2,0.2,4,0.5,5.9,0.7c3.3,0.4,6.4,0.8,9.3,1
			C742.9,322.6,743.4,322.6,743.9,322.7z"/>
		<path class="st0" d="M693.2,302.1c3.8-4.7,15.1-4.7,27-3.3c-0.4-0.5-0.9-0.9-1.3-1.4c-13-1.3-24.3-0.9-27.4,5.2
			C692,302.4,692.6,302.2,693.2,302.1z"/>
		<path class="st0" d="M698.9,318.8c3-1.5,5.3-3,6.8-4.3c1.8-1.6,2.4-4.1,1.6-7c-0.9-3.3-3.4-6.1-5.7-6.4c-2.4-0.4-5.1,0.1-8.3,0.9
			c-0.6,0.1-1.2,0.3-1.8,0.5c-0.8,0.2-1.6,0.4-2.5,0.7c-6.1,1.7-13.7,3.9-23.7,4.5l-0.3,0c-16.6,0.9-32.3,1.8-38.8,0
			c-1.9-0.5-3.1-0.5-3.6,0.1c-0.2,0.3-0.4,0.8-0.1,1.6c1.9,4,21.3,16.6,44.9,16.6c11.9,0,22.4-3,29.6-6.3
			C697.7,319.4,698.3,319.1,698.9,318.8z M623.5,308.6c0.1,0,0.5-0.2,2.4,0.3c6.6,1.9,21.7,1,39.2,0l0.3,0c10.2-0.6,17.8-2.8,24-4.5
			c5-1.4,8.9-2.5,12-2.1c1.8,0.3,3.9,2.8,4.7,5.6c0.4,1.4,0.8,4-1.2,5.7h0c-4.2,3.6-18.9,11.2-37.4,11.2c-21.5,0-39.4-10.6-43.2-15
			C623.6,309,623.5,308.7,623.5,308.6z"/>
		<path class="st0" d="M794.1,122.5c-4.1,2.8-7.6,5.2-8.8,6.2l-0.3,0.3l0.1,0.4c0.4,1.6,0.8,5.3,0.8,7c-0.8-0.8-1.9-2.1-2.5-2.8
			c-1.1-1.2-1.1-1.3-1.2-1.3l-0.4-0.2l-0.3,0.3c-5.1,4.8-9.4,9.6-13.3,14.6l-0.2,0.3l0.1,0.3c0.8,1.8,1.5,4.8,1.6,6.1
			c-0.1,0-0.1-0.1-0.2-0.1c-1.1-0.8-2.7-2-3.8-2.5l-0.5-0.2l-0.3,0.4c-4.1,5.8-7.5,11.9-10.4,18.6l-0.1,0.2l0.2,0.5
			c1.3,3.5,1.8,5,1.9,5.7c-0.3-0.1-0.6-0.2-0.9-0.2c-1.1-0.3-2.3-0.6-3-0.6l-0.4,0l-0.1,0.4c-1.5,4.2-2.6,8.5-3.5,12.3
			c-0.4,1.6-0.8,3.2-1.2,4.7c0.6-0.5,1.1-1,1.7-1.6c0.2-0.9,0.5-1.9,0.7-2.8c1-3.8,2-7.8,3.4-11.7c0.6,0.1,1.5,0.3,2.2,0.5
			c1.5,0.4,2.2,0.6,2.5-0.1c0.1-0.3,0.2-0.7-2.1-7c2.8-6.3,6.1-12.1,9.9-17.7c1,0.5,2.3,1.5,3.1,2.1c1.1,0.8,1.4,1,1.8,0.6
			c1.1-1.2-0.7-6.3-1.2-7.7c3.7-4.7,7.8-9.2,12.5-13.7c0.2,0.2,0.4,0.5,0.7,0.8c3.4,3.8,3.5,3.8,4,3.8l0.3,0l0.2-0.3
			c0.6-1-0.1-6.4-0.5-8.4c1.3-1.1,4.8-3.4,8.4-5.9c4.5-3.1,8.3-5.6,10.8-7.5c0.1-0.2,0.2-0.4,0.3-0.6c0.3-0.5,0.5-1,0.7-1.5
			c-0.2,0.1-0.4,0.1-0.6,0.2C803.1,116.4,797.9,119.9,794.1,122.5z"/>
		<path class="st0" d="M783.8,132c0.1,0,0.2,0,0.2,0c0.2,0,0.4-0.2,0.5-0.5c0.3-0.9,0-4.3-0.9-6.7c-0.3,0.2-0.7,0.5-1,0.7
			c0.6,1.8,0.9,4,0.9,5.1c-0.3-0.2-0.7-0.5-1-0.8c-0.8-0.6-1.8-1.4-2.9-2.1c-0.3,0.3-0.7,0.5-1,0.8c1.2,0.7,2.3,1.6,3.1,2.2
			C782.8,131.6,783.3,132,783.8,132z"/>
		<path class="st0" d="M741.3,190.6c0.3,0,0.5-0.1,0.7-0.2c0.1-0.1,0.3-0.3,0.2-0.8c-0.2-1-3-4.9-5.7-7.2c-0.2,0.4-0.3,0.8-0.5,1.2
			c2,1.8,4,4.5,4.7,5.7c-0.4-0.1-0.8-0.2-1.2-0.3c-1.4-0.4-3.2-0.9-5.2-1c-0.1,0.4-0.3,0.8-0.4,1.2c2,0.1,3.9,0.6,5.2,1
			C740.2,190.5,740.9,190.6,741.3,190.6z"/>
		<path class="st0" d="M751.5,170.4c0.2,0,0.3,0,0.4-0.1c0.1-0.1,0.4-0.3,0.4-0.7c0-1.2-2.5-5.8-4.9-8.3c-0.2,0.4-0.4,0.7-0.7,1.1
			c1.8,1.9,3.6,5.1,4.2,6.6c-0.3-0.1-0.8-0.3-1.2-0.5c-1.4-0.6-3.3-1.5-5.4-2c-0.2,0.4-0.4,0.8-0.6,1.1c2.1,0.4,4.1,1.3,5.5,2
			C750.3,170.1,751,170.4,751.5,170.4z"/>
		<path class="st0" d="M765.9,149.9c0.1,0,0.2,0,0.4-0.1c0.1-0.1,0.4-0.2,0.4-0.7c0.1-1-1.4-4.7-3.2-7.4c-0.3,0.3-0.6,0.6-0.9,0.9
			c1.3,2,2.4,4.5,2.8,5.8c-0.3-0.2-0.7-0.4-1.1-0.6c-1.2-0.7-2.8-1.6-4.5-2.2c-0.3,0.3-0.6,0.6-0.9,1c1.9,0.6,3.6,1.6,4.9,2.3
			C764.7,149.5,765.4,149.9,765.9,149.9z"/>
		<path class="st0" d="M716.5,174.6c5.2-10.5,16.6-27.6,34.3-41.1c17.4-13.3,37-21.6,47.4-22.8c1.7-0.2,3.3-0.3,4.7-0.3
			c3.1,0,5.1,0.5,5.8,0.8c0.3-0.2,0.5-0.2,0.8-0.2c0.3,0,0.5,0.2,0.7,0.4c0-0.2,0-0.3-0.1-0.4c-0.8-1.9-6.8-2.2-12.1-1.6
			c-10.5,1.3-30.4,9.6-48,23.1c-17.7,13.5-29.2,30.7-34.5,41.4l0.5,0.1C716.3,174,716.4,174.1,716.5,174.6z"/>
		<path class="st0" d="M790.4,119.3c-9.2,4.3-28.3,20.2-39.2,34.1c-7.1,9.2-17.9,29.7-20.5,42.8c0.4,0.1,0.8,0.2,1.2,0.3
			c0.4-2.2,1.1-4.7,2-7.3c0.1-0.4,0.3-0.8,0.4-1.2c0.5-1.4,1.1-2.9,1.7-4.3c0.2-0.4,0.3-0.8,0.5-1.2c2.1-5,4.6-10.1,7.2-14.8
			c0.2-0.4,0.4-0.8,0.6-1.1c0.8-1.4,1.6-2.8,2.4-4.1c0.2-0.4,0.4-0.7,0.7-1.1c1.7-2.8,3.4-5.3,4.9-7.2c1.9-2.5,4.2-5.1,6.5-7.6
			c0.3-0.3,0.6-0.6,0.9-1c0.9-1,1.9-2,2.9-3c0.3-0.3,0.6-0.6,0.9-0.9c5-4.9,10.2-9.5,15.1-13.2c0.3-0.3,0.7-0.5,1-0.8
			c1-0.8,2.1-1.6,3.1-2.3c0.4-0.3,0.7-0.5,1-0.7c2.8-1.9,5.3-3.4,7.3-4.4c5.5-2.6,10.6-4.5,14-5.8c0.4-0.2,0.8-0.3,1.1-0.4
			c0.2-0.1,0.4-0.1,0.6-0.2c0.3-0.7,0.7-1.3,1-1.7c-0.8,0.3-1.9,0.7-3.1,1.2C801.1,114.7,795.9,116.7,790.4,119.3z"/>
		<path class="st0" d="M706,266.6c-2.5-10.5-4.2-22.2-5.3-32.3c-2.1-19.3,1.9-46.9,5.4-52.6c2.7-4.3,6.8-5.5,8.7-6.1
			c0.2-0.1,0.3-0.1,0.5-0.1c0,0.3,0,0.7,0.1,1c0.3,6.4,1,13.2,3.2,15.2c4.5,3.9,18.4,9.1,24.1,6c6.3-3.4,15.5-14.5,24.3-25.1
			c3.2-3.9,6.2-7.5,9.1-10.8c8.6-9.8,24-33.3,30.2-44.3c0.2-0.4,0.5-0.9,0.8-1.5c0.5-1.1,1.7-3.5,2.1-3.7c0.1,0,0.6,0.5,0.9,4.7
			c0.5,10.1-3.9,24.5-5.8,30.6l-0.1,0.2c-1.9,6.2-10.7,22.3-19.2,37.9c-6.2,11.5-12.1,22.3-15.3,29.1c-6.1,13.1-7.7,22.6-9.2,33.1
			c0.5-0.4,0.9-0.8,1.4-1.2l0,0c1.4-9.9,3.2-19.1,8.9-31.4c3.2-6.8,9.1-17.6,15.3-29.1c8.5-15.6,17.3-31.8,19.3-38.1l0.1-0.2
			c1.9-6.2,6.4-20.6,5.9-31c-0.2-3-0.5-4.7-1.1-5.4c-0.2-0.2-0.4-0.4-0.7-0.4c-0.3-0.1-0.6,0-0.8,0.2c-0.3,0.2-0.7,0.5-1,1
			c-0.3,0.5-0.6,1-1,1.7c-0.2,0.5-0.5,1-0.7,1.5c-0.1,0.2-0.2,0.4-0.3,0.6c-0.2,0.3-0.3,0.6-0.4,0.9c-6.2,11-21.5,34.4-30.1,44.1
			c-2.9,3.3-5.9,6.9-9.1,10.8c-5.8,7.1-11.8,14.3-17,19.3c-0.6,0.6-1.1,1.1-1.7,1.6c-1.9,1.7-3.7,3.1-5.3,3.9
			c-2.2,1.2-6.2,0.9-10.2-0.2c-0.4-0.1-0.8-0.2-1.2-0.3c-4.7-1.4-9.3-3.6-11.3-5.4c-2.2-1.9-2.6-10.9-2.8-14.3
			c0-0.9-0.1-1.5-0.1-1.8c-0.1-0.5-0.2-0.6-0.5-0.7l-0.5-0.1l0,0l-0.1,0.3c-0.2,0.1-0.5,0.2-0.8,0.3c-2.1,0.6-6.4,1.9-9.4,6.6
			c-4,6.4-7.6,35-5.6,53.3c1.1,10.1,2.8,21.8,5.3,32.3C705.2,266.7,705.6,266.6,706,266.6z"/>
		<path class="st0" d="M720.2,298.7c8.3,8.7,17.6,16.8,26.7,22.7c0.6,0.4,1.2,0.7,1.7,1.1c2.1,1.3,4.2,2.5,6.3,3.5
			c5.2,2.6,71.5,25.7,88.8,29.1c2,0.4,4.1,0.8,6.3,1.3c11,2.3,23,4.7,30.9,4.7c3.4,0,5.9-0.4,7.4-1.6c0.2-0.1,0.3-0.3,0.4-0.4
			c0.5-0.6,0.8-1.2,0.9-2c0-0.1,0-0.1,0-0.1c0.2-7.4-12.6-10.1-26.2-12.9l-0.9-0.2c-7.7-1.6-18.6-5.7-30.1-10.9
			c-1.1-0.5-2.3-1-3.4-1.5c-2.8-1.3-5.5-2.6-8.3-4c-0.4-0.2-0.9-0.4-1.3-0.7c-0.2-0.1-0.5-0.2-0.7-0.3
			c-17.8-8.9-34.6-19.1-40.9-25.3c-6-5.9-11-33.2-14-49.5c-0.3-1.6-0.6-3.2-0.8-4.6l-0.2-1.1l-0.8,0.7l0,0c-0.4,0.4-0.9,0.8-1.4,1.2
			c-6.3,5.2-14.4,8.4-23,11.8l-2.4,0.9c-9.7,3.8-21,5.6-29,6.1c-0.4,0-0.8,0-1.2,0.1c-3.2,0.1-5.8,0.1-7.4-0.2l-1.2-0.2l0.5,1.1
			c4.5,8.8,12.6,19.7,22.1,30C719.3,297.8,719.7,298.3,720.2,298.7z M698.3,267.9c6.8,0.6,23.4-0.8,37.1-6.2l2.4-0.9
			c8.9-3.5,17.4-6.8,23.9-12.4c0.2,1.1,0.4,2.3,0.6,3.5c3,16.5,8,44,14.3,50.2c12.5,12.2,62.2,38.2,85.3,43l0.9,0.2
			c13.2,2.7,25.6,5.3,25.2,11.8c0,0.6-0.3,1.1-0.8,1.5c-4.3,3.4-23.4-0.6-37.3-3.4c-2.2-0.5-4.3-0.9-6.3-1.3
			c-17.2-3.4-83.2-26.5-88.5-29C733.8,314.2,708.3,286.6,698.3,267.9z"/>
		<path class="st0" d="M1166.3,394.8c2.1,5.3,2.1,19.4-5.3,33.7c-6.8,13.1-21.1,29.7-24,31.3c0.2-0.9,1.1-3,2-5.1
			c2.5-5.7,6.6-15.2,7.9-25.2c0.6-4.6,1-8.6,1.4-12.4c0.5-5.4,1-10.1,1.9-15.6c-0.5,0.1-0.9,0.1-1.3,0.1c-0.9,5.4-1.4,10.2-1.9,15.3
			c-0.4,3.8-0.8,7.7-1.3,12.3c-1.3,9.9-5.4,19.3-7.8,24.9c-1.9,4.3-2.4,5.7-2,6.5c0.1,0.2,0.3,0.4,0.6,0.4c0,0,0.1,0,0.1,0
			c3,0,18.9-19.4,25.5-32.1c7.5-14.4,7.8-29.2,5.2-35C1167,394.2,1166.6,394.5,1166.3,394.8z"/>
		<path class="st0" d="M1143.6,352.2c17.3,12.1,23.9,35,24.7,38c0.2,0.8-0.7,2-2.5,3.3c-5.4,4-16.1,7.4-17.6,6.8
			c-0.7-5.9-3.5-23-14.8-36.9c-0.4,0.2-0.7,0.4-1.1,0.6c11.3,13.7,14.1,30.8,14.7,36.5c0,0.4,0.3,0.7,0.7,0.9
			c0.2,0.1,0.6,0.1,0.9,0.1c0.1,0,0.1,0,0.2,0c0.4,0,0.8-0.1,1.3-0.1c4.2-0.7,11.8-3.7,16.1-6.7c0.4-0.3,0.7-0.5,1-0.8
			c0.1-0.1,0.3-0.2,0.4-0.4c1.5-1.3,2.1-2.6,1.8-3.7c-0.8-3.1-7.5-26.6-25.3-38.9c0,0.1-0.1,0.2-0.1,0.3
			C1143.9,351.7,1143.8,351.9,1143.6,352.2z"/>
		<path class="st0" d="M1124.9,346.2c9.3-0.2,16.5,0.4,18,2.7c0.2,0.3,0.5,0.9,0,1.9c-5.3,11.2-14,14.6-26.3,16.5
			c-6.9,1-77.5,1.7-103.7-3.2c-4.1-0.8-4.2-4-4.1-5.4c0.3-2.9,2.4-6.1,4.9-6.9c-0.4-0.3-0.7-0.6-1-1c-2.8,1.2-4.9,4.6-5.2,7.7
			c-0.3,3.5,1.6,6,5.1,6.7c9.4,1.8,24.5,2.8,40.4,3.4c0.7,0,1.4,0,2.1,0.1c10.9,0.4,22,0.5,31.8,0.5c15.3,0,27.2-0.3,29.9-0.7
			c6-0.9,11.1-2.2,15.5-4.5c0.4-0.2,0.7-0.4,1.1-0.6c4.2-2.5,7.6-6,10.2-11.3c0.1-0.3,0.3-0.5,0.4-0.8c0.1-0.1,0.1-0.2,0.1-0.3
			c0.4-1.1,0.4-2-0.2-2.8c-1.6-2.2-6.7-3.2-14.4-3.3C1128,345.4,1126.5,345.8,1124.9,346.2z"/>
		<path class="st0" d="M1139.2,339.6c-0.9,0.8-1.9,1.5-3.1,1.9c-34.8,13.1-108.4,12.2-118.4,10.6c-4.3-0.7-5-3.2-4.9-5.3
			c0.2-2,1.2-4.1,2.6-5.8c-0.3-0.2-0.7-0.5-0.9-0.8c-1.6,1.9-2.7,4.3-2.9,6.5c-0.1,1.7,0.3,3.1,1.2,4.2c0.3,0.4,0.6,0.7,1,1
			c1,0.7,2.2,1.2,3.7,1.4c3,0.5,11.6,0.9,23.1,0.9c23.5,0,59.1-1.7,84.3-8c1.6-0.4,3.1-0.8,4.6-1.2c2.5-0.7,4.8-1.5,7-2.3
			c1.4-0.5,2.6-1.3,3.7-2.4C1139.9,340.1,1139.6,339.8,1139.2,339.6z"/>
		<path class="st0" d="M1096.5,327.5c11.6-2.8,22.3-5.7,31-8.1c7-1.9,12.6-3.4,16.1-4.2c1-0.2,1.6,1,1.9,2c0.1,0.2,0.1,0.5,0.1,0.7
			c0.4,0,0.9,0.1,1.3,0.1c-0.1-0.4-0.2-0.8-0.3-1.2c-0.9-2.9-2.5-3.1-3.3-2.9c-3.6,0.8-9.2,2.3-16.2,4.2c-5.2,1.4-11.1,3-17.5,4.7
			C1105.4,324.5,1101.1,326,1096.5,327.5z"/>
		<path class="st0" d="M1145.7,317.9c-2.5-0.2-4.9,0.1-7.2,1.2c-6.1,2.8-7.5,9.1-6.1,13.8c0.5,1.9,3.3,4.2,6.9,6.7
			c0.3,0.2,0.7,0.5,1,0.7c1.1,0.8,2.3,1.6,3.5,2.4c4.5,3,9.1,6.1,11.7,8.9c8.3,9,15.6,18.7,20,26.5c0.4,0.8,1,1.4,1.8,2
			c0.1-0.4,0.2-0.9,0.3-1.3c-0.4-0.4-0.8-0.8-1.1-1.2c-4.5-7.9-11.8-17.6-20.2-26.7c-2.7-2.9-7.4-6.1-11.9-9.1
			c-5.1-3.4-10.3-6.9-10.9-9.1c-1.2-4.2,0-9.9,5.5-12.4c12-5.5,30.6,11.2,36,16.5c7.6,7.4,20.8,21.2,24.4,30.5
			c0.9,2.3,0.5,4.1-0.6,5.7c0.1,0.5,0.2,1.1,0.2,1.7c1.8-2,2.8-4.5,1.5-7.8c-3.7-9.6-17.1-23.5-24.7-31
			c-5.6-5.5-17.9-16.2-28.9-17.8C1146.5,318,1146.1,317.9,1145.7,317.9z"/>
		<path class="st0" d="M1198.8,372.9c-0.1-0.5-0.2-1-0.4-1.4c-0.9-2.3-5.6-2.6-7-2.7c-4.8-0.1-10.6,1.3-12,4.7
			c-0.7,1.6-1.3,3.3-1.8,5.1c-0.1,0.4-0.2,0.9-0.3,1.3c-2.1,8.3-2.4,18.5-1.1,31.5c2.3,22.6,10,42.8,19.6,51.6
			c0.2,0.2,0.4,0.2,0.6,0.2c0.2,0,0.3-0.1,0.3-0.1c0.7-0.4,0.6-1.4-0.4-8.9c-1.3-9.9-3.7-28.3-2.3-45.2c0.7-8.1,2.1-15,3.2-20.6
			c1.2-5.8,2.1-10.4,1.8-14C1199,374,1198.9,373.4,1198.8,372.9z M1196,388.3c-1.1,5.6-2.6,12.6-3.3,20.8c-1.4,17,1,35.5,2.3,45.4
			c0.4,3,0.8,5.7,0.8,7c-9-8.9-16.3-28.4-18.5-50.2c-1.7-16.4-0.7-28.3,3.1-37.4c1.1-2.7,6.5-4.1,10.9-3.9c3.1,0.1,5.5,0.8,5.9,1.9
			C1198.6,375.5,1197.5,380.9,1196,388.3z"/>
		<path class="st0" d="M1103,300.9c10-5,17.2-9.6,22.8-13.2c7.6-4.9,12.6-8.1,18.1-8.1c0.2,0,0.3,0,0.5,0c0.3-0.4,0.6-0.8,0.9-1.2
			c-0.5,0-0.9,0-1.3,0c-5.8,0-11,3.3-18.7,8.3c-1.8,1.2-3.8,2.4-6,3.8C1114,293.9,1108.4,297.5,1103,300.9z"/>
		<path class="st0" d="M1160.2,291.2c-0.5,2.7-2.5,5.5-6.1,8.3c-6.2,4.9-30.5,18.7-62.3,28.2c-27.6,8.3-55,13.2-73.2,13.2
			c-2.1,0-3.9-1.6-4.1-3.6c-0.1-0.6-0.1-2,1.2-3.5c-0.2-0.2-0.3-0.5-0.4-0.7c-0.1-0.2-0.1-0.3-0.1-0.5c-2,2.1-2,4.1-1.9,4.9
			c0.1,1.1,0.6,2,1.3,2.8c0.3,0.3,0.6,0.6,0.9,0.8c0.9,0.6,1.9,1,3.1,1c18.3,0,45.9-4.9,73.6-13.2c1.5-0.4,3-0.9,4.5-1.4
			c4.5-1.4,8.9-3,13.1-4.5c23.2-8.7,40.1-18.5,45.2-22.5c5.2-4,6.7-7.6,6.7-10.3C1161.1,290.5,1160.6,290.9,1160.2,291.2z"/>
		<path class="st0" d="M1195.5,227.7c2.7,5.6-6.7,21-16.6,37.3c-10.4,17-21.5,32.3-32.2,28.5c-3.1-1.1-4.8-2.4-5.3-4
			c-0.9-2.9,2.3-7.3,6.4-12.8c2.7-3.6,5.8-7.7,8.6-12.6c6.8-11.7,9.2-20.3,11.1-27.2c0.5-1.7,0.9-3.3,1.4-4.8
			c1.1-3.7,3.5-5.5,6.5-6.3c0-0.4,0-0.9,0.1-1.3c-3.4,0.9-6.4,2.9-7.7,7.3c-0.5,1.5-0.9,3.1-1.4,4.8c-1.9,6.8-4.3,15.3-11,26.9
			c-2.8,4.8-5.8,8.9-8.5,12.5c-0.6,0.8-1.2,1.6-1.8,2.4c-0.3,0.4-0.6,0.8-0.9,1.2c-3,4.2-4.8,7.5-4,10.3c0.6,2,2.5,3.5,6,4.8
			c1.3,0.5,2.6,0.7,3.9,0.7c3.3,0,6.6-1.5,9.9-4.1c0.4-0.4,0.9-0.7,1.3-1.1c5.8-5.1,11.9-13.7,18.5-24.5
			c10.7-17.5,20-32.7,16.5-38.8c-0.1-0.2-0.3-0.4-0.4-0.6C1195.9,226.8,1195.7,227.2,1195.5,227.7z"/>
		<path class="st0" d="M1240.6,164.8c-3.6-1.1-35,7-49.8,25.1c-9.3,11.4-14.3,22.7-15.3,34.5c0,0.4-0.1,0.9-0.1,1.3
			c-0.1,1.4-0.1,2.9-0.1,4.3c0,0.9,0.6,2.3,3.1,3.2c1.8,0.7,4.4,1.1,6.8,1.1c3.1,0,6.1-0.6,7.2-1.8c1.2-1.3,2.1-2.9,3-4.8
			c0.2-0.5,0.4-0.9,0.6-1.4c0.5-1.4,1-3.1,1.6-4.8c1.8-5.6,4-12.5,8.9-21.3c8.2-14.6,24.9-28.9,33.3-33.2c0.9-0.4,1.4-0.9,1.4-1.5
			C1241.3,165.4,1241.2,165,1240.6,164.8z M1196.5,221.1c-1.5,4.8-2.6,8.3-4.8,10.6c-1.6,1.7-8.9,2-12.7,0.5c-1-0.4-2.3-1.1-2.3-2.1
			c-0.3-13.5,4.6-26.4,15.2-39.3c13.6-16.7,41.6-24.5,47.5-24.8c-7.3,3.8-24.6,17.4-33.8,33.6
			C1200.5,208.4,1198.3,215.4,1196.5,221.1z"/>
		<path class="st0" d="M1090.5,115.3c0.1,0,0.2,0.1,0.3,0.1c-0.2-0.2-0.5-0.3-0.7-0.5l0.1,0.3L1090.5,115.3z"/>
		<path class="st0" d="M1113.3,169.5l0-0.3l-0.3-0.1c-0.3-0.1-0.6-0.2-1.1-0.2c-0.9,0-2,0.2-3.5,0.4c-0.4,0.1-0.8,0.1-1.1,0.2
			c0.5-0.9,1.7-2.7,3.4-5.3c0.3-0.4,0.5-0.7,0.6-0.8l0.1-0.2l0-0.2c-0.6-9.2-2.3-16.9-5.2-24.4l-0.2-0.5l-0.5,0.1
			c-1.2,0.2-3.1,1-4.3,1.6c-0.1,0-0.1,0.1-0.2,0.1c0.4-1.5,2.1-4.8,3.3-6.6l0.2-0.3l-0.1-0.3c-0.8-2.3-1.5-4.7-2.1-7.1
			c-0.2-0.8-0.5-1.7-0.7-2.5c-0.5-0.4-1.1-0.8-1.6-1.2c0.4,1.3,0.8,2.7,1.2,4c0.6,2.3,1.3,4.6,2,6.8c-0.8,1.2-4,6.5-3.3,8.1l0.1,0.2
			l0.2,0.1c0.3,0.1,0.4,0.1,1.6-0.4c1-0.4,2.5-1.1,3.6-1.4c2.8,7.2,4.3,14.4,5,23.3c-0.1,0.1-0.2,0.4-0.4,0.6c-3.7,5.5-4,6.2-4,6.6
			l0,0.3l0.2,0.2c0.3,0.3,0.8,0.2,2.6-0.1c1-0.2,2.7-0.5,3.5-0.4c0.7,6.2,0.2,12.9-0.3,18.8c-0.1,1.3-0.2,2.5-0.3,3.7
			c0.4,0.5,0.8,1,1.1,1.4c0.1-1.6,0.2-3.3,0.4-5C1113.6,182.9,1114.2,176,1113.3,169.5z"/>
		<path class="st0" d="M1093.4,107.3c0.2-0.5,0.4-1,0.6-1.4l0.1-0.2l0-0.2c-1.6-8.8-6.2-16.6-9.3-21.7c-0.5-0.9-1-1.7-1.4-2.4
			c-1.4-1.2-2.1-1.9-2.4-2.3c0,0,0-0.1-0.1-0.1c0.2,1.1,1.2,2.9,2.8,5.5c3,5,7.6,12.6,9.1,21.1c-0.1,0.3-0.3,0.6-0.4,1
			C1092.7,106.9,1093.1,107.1,1093.4,107.3z"/>
		<path class="st0" d="M1096.4,107.5c0.1,0.4,0.3,0.6,0.5,0.6c0.1,0,0.2,0.1,0.3,0.1c0.6,0,1.3-0.4,2.6-1.2c1.2-0.7,2.8-1.7,4.6-2.4
			c-0.2-0.4-0.5-0.7-0.7-1.1c-1.7,0.8-3.3,1.7-4.5,2.4c-0.6,0.3-1.2,0.7-1.6,0.9c0.2-1.5,1.4-5.9,3.1-7.7c-0.3-0.3-0.5-0.7-0.7-1
			C1097.7,100.3,1096.1,106.2,1096.4,107.5z"/>
		<path class="st0" d="M1121.8,188.3c-0.2,0.4-0.2,0.7-0.1,0.9c0.4,0.6,1.3,0.7,3.1,0.8c1.5,0.1,3.4,0.2,5.4,0.6c0-0.4,0-0.8,0-1.3
			c-2-0.4-3.9-0.5-5.3-0.6c-0.7,0-1.5-0.1-1.9-0.1c0.9-1.1,4.1-3.8,7-5.4c0-0.4,0-0.9-0.1-1.3
			C1126.5,183.7,1122.5,187.1,1121.8,188.3z"/>
		<path class="st0" d="M1117,160.9c-0.2,0.4,0,0.7,0.1,0.9c0.2,0.3,0.6,0.3,1.1,0.3c0.5,0,1.1-0.1,2-0.2c2-0.3,4.9-0.7,7.7-0.1
			c-0.1-0.4-0.1-0.9-0.2-1.3c-1-0.2-2-0.2-2.9-0.2c-1.8,0-3.5,0.2-4.8,0.4c-0.6,0.1-1.2,0.2-1.6,0.2c1-1.6,5.3-6.3,8-7.2
			c-0.1-0.4-0.2-0.8-0.3-1.2C1122.6,153.6,1117.6,159.5,1117,160.9z"/>
		<path class="st0" d="M1109.1,133c0.2,0.2,0.4,0.3,0.7,0.3c0.5,0,1.2-0.2,2.1-0.5c0.6-0.2,1.3-0.3,2-0.5c-0.4-0.3-0.9-0.6-1.3-0.9
			c-0.3,0.1-0.7,0.2-1,0.3c-0.4,0.1-0.9,0.3-1.3,0.3c0.2-0.4,0.5-0.9,1-1.6c-0.3-0.2-0.7-0.5-1-0.7c-0.7,1.1-1.3,2-1.4,2.5
			C1108.8,132.6,1108.9,132.8,1109.1,133z"/>
		<path class="st0" d="M1083.3,81.5c0.4,0.3,0.8,0.7,1.3,1.2c2.9,2.6,7.3,6.5,11.8,11.2c1.1,1.1,2.2,2.5,3.5,4.2
			c0.2,0.3,0.5,0.7,0.7,1c1,1.3,2,2.8,3,4.4c0.2,0.3,0.5,0.7,0.7,1.1c3.4,5.3,7,11.7,10.4,18.4c0.8,0.6,1.5,1.1,2.1,1.6
			c-6.6-13.6-14.5-26.2-19.6-31.5c-4.6-4.8-9-8.7-11.9-11.3c-1.8-1.6-3.2-2.8-3.4-3.2c-0.2-0.3-0.3-0.6-0.2-0.6
			c0.6-0.6,4.7-0.3,10.5,2.7c9.4,4.8,28,19.6,40.9,40.8c9.6,15.8,17.1,37.6,20.5,52.1c0.3-0.4,0.5-0.6,0.8-0.6c0.1,0,0.2,0,0.3,0
			c-3.4-14.5-10.6-35.8-20.5-52.1c-13.1-21.5-31.9-36.4-41.4-41.3c-4.7-2.4-10.5-4-12-2.4c-0.3,0.3-0.6,1,0,2c0,0,0,0.1,0.1,0.1
			C1081.2,79.5,1082,80.2,1083.3,81.5z"/>
		<path class="st0" d="M1125.3,144.4c-1-3.1-2.3-6.3-3.6-9.5c-0.3,0.3-0.7,0.5-1.1,0.6c1.3,3.2,2.5,6.3,3.5,9.3
			c0.7,2.2,1.4,4.8,2.1,7.7c0.1,0.4,0.2,0.8,0.3,1.2c0.5,2.2,0.9,4.5,1.3,6.8c0.1,0.4,0.1,0.9,0.2,1.3c1,6.5,1.7,13.5,2.1,20.1
			c0,0.4,0,0.9,0.1,1.3c0.1,2.1,0.2,4.1,0.2,6.1c0,0.4,0,0.8,0,1.3c0,2.5,0,5-0.2,7.2c0.4-0.1,0.8-0.3,1.2-0.5
			C1132.1,181.9,1129.5,157,1125.3,144.4z"/>
		<path class="st0" d="M1069.9,98.2C1020.8,61.2,952.2,8.9,951.8,8.5c-0.4-0.4-0.6-0.8-0.5-1.1c0.1-0.5,0.7-1,1.1-1.3
			c5.8,4.8,64.1,47,111.1,81.1c2.5,1.8,5,3.6,7.4,5.4c0.1-0.4,0.2-0.9,0.3-1.3c-2.3-1.7-4.6-3.4-7-5.1
			C1016,51.3,956.1,7.8,952.9,4.9l-0.3-0.3l-0.4,0.2c-0.2,0.1-1.9,0.9-2.2,2.3c-0.1,0.5,0,1.3,0.8,2.2c0.4,0.4,69.6,53.2,118.9,90.3
			C1069.8,99.1,1069.9,98.6,1069.9,98.2z"/>
		<path class="st0" d="M1080.7,99.7c22.1,16,38.9,28.2,39.9,29.1c1.7,1.5,1.4,3.8,0.5,4.9c-0.4,0.4-1.3,1.3-2.7,0.1
			c-2.9-1.7-17.2-12.3-36.4-26.6c0.1,0.6,0.2,1.2,0.3,1.8c2.7,2,5.3,4,7.8,5.8c0.2,0.2,0.5,0.3,0.7,0.5c3.2,2.4,6.3,4.7,9.1,6.7
			c0.6,0.4,1.1,0.8,1.6,1.2c3.4,2.5,6.3,4.6,8.7,6.4c0.3,0.2,0.7,0.5,1,0.7c0.5,0.3,0.9,0.7,1.3,1c0.5,0.3,0.9,0.6,1.3,0.9
			c1.8,1.3,3.1,2.1,3.8,2.5c0.7,0.6,1.4,0.8,2.1,0.8c0.3,0,0.5-0.1,0.8-0.1c0.4-0.1,0.7-0.3,1.1-0.6c0.1-0.1,0.3-0.3,0.4-0.4
			c1.4-1.7,1.5-4.8-0.6-6.6c-0.3-0.3-1.9-1.5-4.6-3.4c-0.6-0.5-1.4-1-2.1-1.6c-4.9-3.6-12.3-9-21.4-15.5c-0.3-0.2-0.7-0.5-1-0.7
			c-3.7-2.7-7.7-5.6-11.9-8.6C1080.6,98.6,1080.7,99.1,1080.7,99.7z"/>
		<path class="st0" d="M1097.6,232.3c-0.4-1.8-0.8-3.8-1.2-5.9c-0.8-4.2-1.8-9-3.3-14.1l-1.6-5.2c-3.3-11-5.7-18.9-9.8-34.7
			l-0.4-1.5c-6.8-26.1-13.2-50.8-10.2-72.7c1.6-12,5.4-17.1,6.6-17.8c-0.3,15.6,8.2,58.2,17.7,82.1c7.3,18.5,16,38.2,26,38.2
			c0.3,0,0.6,0,0.9-0.1c20.8-2.4,28.4-18.5,31.3-24.6c0.4-0.9,0.9-1.8,1.1-2.1c0,0,0,0,0,0c0.4,0,0.9,0.2,1.3,0.6
			c2.4,2,4,8.3,4.4,16.6c0.6,14,0.4,28-5.1,36.5c0.8-0.5,1.6-1,2.3-1.6c4.2-8.1,4.7-20,4-35c-0.4-8.8-2.2-15.2-4.8-17.5
			c-0.7-0.6-1.4-0.9-2.1-0.9c-0.1,0-0.2,0-0.3,0c-0.3,0-0.6,0.2-0.8,0.6c-0.3,0.4-0.6,1.1-1.1,2.2c-2.3,4.9-7.9,16.5-21.2,21.7
			c-0.4,0.2-0.8,0.3-1.2,0.5c-2.4,0.8-5,1.4-7.9,1.8c-3.2,0.4-6.4-1.8-9.4-5.5c-0.4-0.5-0.8-0.9-1.1-1.4c-6.2-8.2-11.6-21.8-15-30.5
			c-5.7-14.3-11-35.3-14.3-53.1c-0.1-0.6-0.2-1.2-0.3-1.8c-0.5-2.6-0.9-5.1-1.2-7.5c-0.1-0.6-0.2-1.1-0.3-1.7
			c-1-7.2-1.6-13.4-1.5-17.6c0-0.9-0.5-1.3-0.9-1.3c0,0,0,0-0.1,0c-1.6,0-4.7,4-6.7,12.2c-0.1,0.4-0.2,0.9-0.3,1.3
			c-0.4,1.7-0.7,3.5-1,5.5c0,0,0,0.1,0,0.1c-0.1,0.5-0.1,1-0.2,1.4c-2.5,21.8,3.7,46,10.4,71.6l0.4,1.5c4.1,15.8,6.5,23.7,9.8,34.7
			l1.6,5.2c1.5,5.1,2.5,9.8,3.3,14c0.4,1.9,0.7,3.6,1.1,5.2C1096.7,232,1097.2,232.1,1097.6,232.3z"/>
		<path class="st0" d="M1082.9,261.7c-1.3,6.1-2.6,11.6-3.7,15c0,0,0,0.1,0,0.1c-0.2,0.3-0.5,0.6-0.7,0.9
			c-9.9,13.4-28.8,26.5-43.1,35.9c-0.7,0.4-1.3,0.9-2,1.3c-0.8,0.5-1.5,1-2.2,1.5c-8.6,5.7-13.1,8.7-14,10.4l-0.3,0.6
			c-1.2,2.3-2,3.7-1.8,5c0,0.2,0.1,0.3,0.1,0.5c0.1,0.2,0.2,0.5,0.4,0.7c0.6,0.8,1.7,1.4,3.6,2.2c0.3,0.1,0.7,0.2,1.2,0.2
			c9.5,0,54.5-19.8,68.2-27c4.4-2.3,9.3-5.2,14.3-8.2c5.5-3.3,11-6.9,16.2-10.5c10.7-7.4,19.7-14.5,22.1-18.3
			c4-6.3,16-33.1,20.2-47.5c0.1-0.3,0-0.5-0.2-0.7c-0.2-0.1-0.5-0.1-0.7,0c-0.9,0.8-1.8,1.5-2.8,2.1c-0.8,0.6-1.5,1.1-2.3,1.6
			c-9.3,5.8-19.5,7.3-34.5,7.7c-9.7,0.3-17.8-1.4-23.3-3.1c-0.5-0.1-0.9-0.3-1.4-0.4c-4.2-1.4-6.6-2.6-6.6-2.7
			c-0.2-0.1-0.4-0.1-0.6,0c-0.2,0.1-0.3,0.3-0.3,0.5c0,0.2-2.7,16.8-5.6,30.8C1083.1,260.9,1083,261.3,1082.9,261.7z M1159.7,226.2
			c-4.7,14.6-15.7,39.3-19.5,45.3c-4.4,7-33.1,26.5-52.2,36.5c-17.4,9.2-63.6,28.7-68.4,26.8c-2-0.8-3-1.5-3.3-2.2
			c-0.3-0.9,0.4-2.4,1.6-4.5l0.3-0.6c0.8-1.5,6.4-5.2,13.6-9.9c14.9-9.9,37.5-24.7,48.3-40c0,0,0.1-0.1,0.1-0.2
			c3.6-10.3,8.7-41.2,9.5-46.7c3,1.4,14.9,6.4,31.1,6C1138.1,236.1,1149.1,234.3,1159.7,226.2z"/>
		<path class="st0" d="M916.4,361.9c0.6,4.3,1.2,8.1,1.2,8.1s19-7.6,25.6-13.2c-0.4-0.9-0.7-2.1-1.1-3.3
			C935.2,357.2,923.9,360.3,916.4,361.9z"/>
		<path class="st0" d="M905.1,352.7c2.8,10.3,3.1,10.3,3.7,10.3c0.1,0,0.1,0,0.2,0c1.1,0,3.8-0.4,7.4-1.2c7.6-1.6,18.8-4.6,25.7-8.4
			c-0.1-0.4-0.3-0.9-0.4-1.4c-9.6,5.3-28.9,9.4-32.6,9.5c-1-2.3-5.1-17.9-6-21.7c0.8-0.8,8.1,0.2,13.9,1c7.1,1,15.9,2.2,23.2,2.1
			c0-0.6,0.1-1,0.2-1.4c-7.2,0.1-16-1.1-23.1-2.1c-9.3-1.3-13.9-1.9-15.1-0.6c-0.3,0.3-0.4,0.7-0.3,1.2
			C902.3,341.9,903.6,347.4,905.1,352.7z"/>
		<path class="st0" d="M958.3,351.5c0.1,1.4,0.1,2.7,0,3.9c8.2,3.1,29.4,3.7,29.4,3.7s-0.6-3.8-1.4-8.1c-5,0.6-11.7,1.1-17.9,1.1
			C964.6,352.1,961.1,351.9,958.3,351.5z"/>
		<path class="st0" d="M956.8,342.5l-0.2-1.3c7.1-2.2,15.5-6.4,22.3-9.8c5.3-2.7,11.8-6,12.8-5.5c0.5,3.9,1.6,20,1.4,22.5
			c-3.5,1-24,3.3-34.8,1.6c0,0.5,0.1,0.9,0.1,1.4c2.8,0.4,6.3,0.6,10,0.6c6.2,0,12.9-0.5,17.9-1.1c3.8-0.5,6.7-1,7.6-1.3
			c0.6-0.2,0.8-0.3,0.2-11c-0.4-5.5-0.8-11.1-1-12.9c-0.1-0.4-0.3-0.8-0.7-1c-1.6-0.9-5.7,1.2-14.1,5.4c-6.9,3.4-15.4,7.7-22.4,9.8
			C956.1,340.7,956.5,341.6,956.8,342.5z"/>
		<path class="st0" d="M940.3,343.1C940.3,343.1,940.3,343.1,940.3,343.1c0,2.2,0.6,5.8,1.5,9.1c0.1,0.5,0.2,0.9,0.4,1.4
			c0.4,1.2,0.7,2.3,1.1,3.3c0.5,1.3,1,2.2,1.4,2.5c0.6,0.4,2,0.6,3.6,0.6c2.5,0,5.5-0.4,7.4-0.9c1.1-0.3,1.8-0.7,2-1.2
			c0.4-0.5,0.6-1.3,0.7-2.3c0.1-1.1,0.1-2.5,0-3.9c0-0.5-0.1-0.9-0.1-1.4c-0.1-1.5-0.3-2.9-0.5-3.9c-0.2-1.2-0.5-2.5-0.9-3.6
			c-0.3-1-0.6-1.8-1-2.5c-0.3-0.4-0.6-0.8-0.9-1c-3-1.8-11.4,0-13.6,1.4c-0.4,0.2-0.6,0.6-0.8,1.2
			C940.4,342.1,940.3,342.5,940.3,343.1z M942,341.6c2.1-1.3,9.8-2.8,12.2-1.4c0.5,0.3,1.4,2.4,2.1,6.2c0.9,5.2,0.9,9.6,0.2,10.4
			l-0.1,0.1c-0.8,1-9.7,1.9-11,1.1c-0.9-0.8-3.8-10.1-3.7-14.9C941.7,341.9,941.9,341.6,942,341.6z"/>
	</g>
</g>
</svg>
