<?xml version="1.0" encoding="utf-8"?>
<!-- Generator: Adobe Illustrator 22.1.0, SVG Export Plug-In . SVG Version: 6.00 Build 0)  -->
<svg version="1.1" id="Layer_1" xmlns="http://www.w3.org/2000/svg" xmlns:xlink="http://www.w3.org/1999/xlink" x="0px" y="0px"
	 viewBox="0 0 1129.4 375.1" style="enable-background:new 0 0 1129.4 375.1;" xml:space="preserve">
<style type="text/css">
	.st0{fill:#FFFFFF;}
</style>
<g>
	<g>
		<g>
			<g>
				<path class="st0" d="M255.6,277.6c-6.4,5.9-12.2,11.9-16,19.8c-1,2-2.6,5.5-0.9,8.5c1.6,2,6.6,0.1,9.4-1.2
					c11.4-5.1,24.6-17.2,28.6-22.1c0.1-0.1,0.2-0.1,0.3,0c0.1,0.1,0.2,0.9,0.1,0.9c-4.3,5.4-14.2,15.5-28.8,22.7
					c-2.9,1.2-7.9,3.3-10.2,1.4c-2.7-2.4-2.3-7.1-0.2-11.4c3.1-6,8.9-14,14.8-18.6C253,277.3,255.8,277.3,255.6,277.6z"/>
			</g>
			<g>
				<path class="st0" d="M210.8,297.9c-1,1.9-1.9,3.8-2.4,5.8c-0.2,1-0.3,2.1-0.1,2.7c0.2,0.5,0.6,1.2,1.4,1.2
					c1.7-0.1,3.3-1.7,4.7-3.2c1.4-1.5,2.5-3.3,3.4-5.2c2.4-4.5,3.4-14.3,3.5-15c0-0.3,0.1-0.7,0.2-0.8c0.2-0.4,0.6,0.1,1.4,0.5
					c2.7,1.3,6.6,2.3,8.5,2.4c8.1,0.7,15-2.9,21.3-8.6l0.3,0.3c-3,3.1-6.2,5.8-9.9,7.5c-3.7,1.8-7.9,2.6-11.9,2.1
					c-2-0.2-4-0.7-5.9-1.4c-1-0.4-1.9-0.8-2.8-1.4c-0.2-0.1-0.3-0.2-0.3-0.1c0,0.5,0,7.8-3.1,14.9c-0.9,2.1-2.2,4-3.6,5.8
					c-1.4,1.7-3.1,3.3-5.4,3.8c-0.6,0.1-1.2,0.1-1.9-0.2c-0.7-0.3-1.3-0.9-1.6-1.7c-0.6-1.6-0.3-2.9-0.2-4.1
					c0.5-2.5,1.4-4.7,2.5-6.7c2.2-4,4.9-7.4,7.8-10.7c2.9-3.2,7.3-7.9,8.5-8.6c0.1-0.1,0.2,0,0.7,0c0.5,0,0.7,0.1,0.5,0.2
					C226.1,277.8,215,290.5,210.8,297.9z"/>
			</g>
			<g>
				<path class="st0" d="M509.9,302.6c3.7-4.3,6.4-6,10.1-9.4c3.7-3.3,7.6-6.5,11.9-9.1c2.1-1.3,4.3-2.4,6.8-3
					c1.2-0.2,2.5-0.5,4,0.3c0.7,0.4,1.3,1.2,1.6,2.2c0.3,0.9,0.3,1.8,0.2,2.6c-0.3,3.3-1.5,5.9-2.6,8.5c-1.2,2.5-2.5,4.9-4,7.1
					c-1.5,2.2-3.3,4.2-5.2,5.8c-1,0.8-2,1.5-3.2,2c-1.1,0.4-2.5,0.8-3.8,0c-0.7-0.4-1.2-1.3-1.2-2.2c-0.1-0.9,0.2-1.7,0.5-2.4
					c0.7-1.4,1.6-2.4,2.6-3.2c2-1.7,4.4-2.4,6.7-2.7c4.6-0.4,9.1-0.2,13.6-0.9c4.5-0.5,9-1.6,13.4-3.2c0.2-0.1,0.4,0.1,0.4,0.3
					c0,0.2-0.1,0.5-0.3,0.5c-4.4,1.6-8.9,2.8-13.5,3.5c-4.5,0.7-9.1,0.6-13.6,1.1c-2.2,0.3-4.4,1-6.1,2.5c-0.9,0.7-1.7,1.7-2.1,2.7
					c-0.5,1.1-0.4,2.1,0.3,2.5c0.7,0.4,1.8,0.2,2.7-0.2c1-0.4,1.9-1.1,2.7-1.9c1.7-1.6,3.2-3.7,4.5-5.8c1.3-2.2,2.5-4.5,3.7-6.9
					c1.1-2.4,2.2-4.9,2.6-7.3c0.1-1.2,0-2.1-0.6-2.5c-0.7-0.5-1.8-0.5-2.8-0.2c-2.1,0.4-4.3,1.5-6.3,2.7c-4.1,2.4-8,5.4-11.8,8.5
					c-3.8,3.1-7.3,6-11,9.7C509.7,304.3,509.9,302.6,509.9,302.6z"/>
			</g>
			<g>
				<path class="st0" d="M939.4,281.6c0.1-0.5,0.3-1.9-0.3-2.5c-0.6-0.6-1.4-0.7-2.2-0.7c-1.6,0-3.3,0.6-4.9,1.3
					c-3.2,1.4-6.2,3.3-9.1,5.5c-5.6,4.4-11.1,9.6-14.9,16.1c-0.9,1.6-1.7,3.5-1.6,4.9c0.1,0.6,0.1,1.3,0.8,1.4
					c0.6,0.1,1.6,0.1,2.4-0.1c3.2-1,6.1-3.3,9.3-5.5c6.1-4,13.7-10.2,17.8-14.7l-1.2,2.1c-5,5.5-9.8,9.5-15.8,13.9
					c-3.1,2.1-6,4.3-9.6,5.6c-0.9,0.3-1.9,0.5-3,0.4c-0.5-0.1-1.2-0.3-1.7-0.9c-0.5-0.5-0.8-1.3-0.9-2c-0.2-2.7,0.8-4.6,1.7-6.5
					c1.9-3.7,4.3-6.6,6.8-9.5c2.6-3,5.5-5.5,8.6-7.7c3.1-2.1,6.3-4.1,9.9-5.1c1.8-0.4,3.6-0.8,5.5-0.5c0.9,0.2,1.9,0.5,2.6,1.4
					c0.7,1,0.6,2.4,0.3,3.2C939.8,282.3,939.3,282.3,939.4,281.6z"/>
			</g>
			<g>
				<path class="st0" d="M937,306.1c-1.3,0.8-4.5,2.6-7.7,2.9c-2.5,0.2-3.2-4.9,1.4-12.1c1.9-3.6,4-6.7,6.2-10c1.1-1.6,4.8-7,5-7.3
					s1.8-0.7,1.2,0.2c-3.7,6.1-8,13.3-11.3,19.9c-1.7,3.3-3.8,8-2,7.9c2.3,0,5.9-2.2,7.2-3c12.4-7.7,29.6-25.7,30.6-26.5
					c1.6-1.4,2.2-0.3,2.2,0.3c-0.2,2.8-13.4,25.7-16.4,30.8c-0.1,0.1-0.3,0.4-0.6,0.3c-0.3-0.1-1.4,0.2-1.7-0.1
					c-0.3-0.2-0.4,0-0.1-0.5c3.7-5.9,18.2-29.1,17.5-29.9C967.7,278.1,953,296.5,937,306.1z"/>
			</g>
			<g>
				<path class="st0" d="M334.5,280.9c0.1-0.5,0.2-1.9-0.5-2.5c-1.6-1.2-5-0.1-6.6,0.6c-3.2,1.4-6.2,3.4-9,5.6
					c-5.6,4.4-11,9.7-14.7,16.3c-0.8,1.6-1.6,3.5-1.5,4.9c0.1,0.6,0.1,1.3,0.8,1.4c0.6,0.1,1.6,0.1,2.4-0.2c3.2-1,6.1-3.4,9.3-5.6
					c6-4.1,13.6-10.4,17.6-14.9l-0.9,2.4c-5,5.5-10,9.3-15.9,13.8c-3,2.1-6,4.4-9.5,5.7c-0.9,0.3-1.9,0.6-3,0.4
					c-0.5-0.1-1.2-0.3-1.7-0.9c-0.5-0.5-0.8-1.3-0.9-2c-0.2-2.7,0.8-4.6,1.6-6.5c1.8-3.7,4.2-6.6,6.7-9.6c2.5-3,5.5-5.6,8.5-7.7
					c3.1-2.1,6.3-4.2,9.8-5.2c1.8-0.5,3.6-0.8,5.5-0.6c0.9,0.1,1.9,0.5,2.7,1.4c0.7,1,0.7,2.4,0.4,3.2
					C335.2,281.5,334.3,281.5,334.5,280.9z"/>
			</g>
			<g>
				<path class="st0" d="M339.2,305.2c-7.4,3.9-10.5,4.2-12.5,3.7c-5-1.1-1.3-9.6-0.3-12.1c1-2.5,9.6-16.9,10.4-18.1
					c0.8-1.2,2.3-0.6,1.8,0.2c-3.3,5.9-8.3,14.4-10.7,20c-1.2,2.9-2.9,8.1-0.2,8.2c3,0.2,6.6-0.7,10.9-3.2
					c13.1-7.6,21.9-17.8,25.9-24.2c0.3-0.6,1.2-0.4,0.9,0.4C360.8,288.7,349.5,299.8,339.2,305.2z"/>
			</g>
			<g>
				<path class="st0" d="M625.8,284.7c-2.6,3.9-5.1,7.8-7.2,12c-1,2.1-5.2,9.9-1.9,12.2c2.4,1.7,7,0.2,10.3-1.4
					c12.1-6.3,24-17.6,26.3-20.2c0.3-0.3,0.2-0.8-0.4-0.4c-2.5,2.1-14.9,13.5-26.2,19.3c-3.2,1.6-7.4,3-9,1.4
					c-2.6-2.6,5.3-14.5,7.6-18.4c2.3-4,4.7-6.9,7.1-10.6c0.4-0.7-1.5-0.6-1.9-0.3c-4.8,4.9-9.8,10-14.9,14.7
					c-5.1,4.7-10.5,9-16.1,13c-1.4,1-2.7,1.6-4.3,2.1c-1.5,0.4-2.8,0.1-2.5-1.9c0.4-3.2,1.8-6.4,3.5-9.4c2.5-5.2,9.9-14.6,11.5-17.4
					c0.4-0.8-1.9-1-2.3-0.5c-0.5,0.6-1.9,2.6-2.3,3.2c-1.2,1.6-2.1,2.8-3.1,4.4c-2,3.1-3.8,6.1-5.5,9.3c-0.9,1.6-1.7,3.3-2.3,5.1
					c-0.6,1.8-1.2,3.6-1,5.7c0.1,2.1,1.6,3.6,4,2.8c1.4-0.4,3.3-1.3,4.7-2.3c5.7-3.9,11.2-8.5,16.2-13.2
					C619.6,290.9,622.6,287.8,625.8,284.7z"/>
			</g>
			<g>
				<path class="st0" d="M160,283.7c-2.6,3.9-13.7,22.6-15.7,26.8c-1,2.1,13-18.4,15.3-22.3c2.3-3.9,4.8-6.8,7.1-10.5
					c0.4-0.7-2-0.9-2.5-0.3c-4.9,4.9-9.3,10-14.4,14.7c-5.1,4.7-10.5,9-16.1,12.9c-1.4,1-2.7,1.6-4.3,2c-1.5,0.4-2.8,0.1-2.5-1.9
					c0.4-3.2,1.9-6.4,3.5-9.4c2.5-5.2,10-14.5,11.6-17.4c0.5-0.8-1.8-1-2.3-0.5c-0.5,0.6-1.9,2.6-2.3,3.2c-1.2,1.6-2.1,2.8-3.1,4.4
					c-2,3.1-3.9,6-5.6,9.3c-0.9,1.6-1.7,3.3-2.3,5.1c-0.6,1.8-1.2,3.6-1.1,5.7c0.1,2.1,1.5,3.6,4,2.8c1.4-0.4,3.3-1.3,4.7-2.3
					c5.7-3.9,11.2-8.5,16.3-13.1C153.7,289.9,156.7,286.8,160,283.7z"/>
			</g>
			<g>
				<path class="st0" d="M560.3,295.4c4-1,10.6-3.2,15.5-6.5c9.1-6.1,5.2-10,1.6-8.6c-2.5,1-4.2,2.3-6.1,4c-1.9,1.8-3.7,3.6-5.3,5.7
					c-3.2,4-6.3,9.2-7.9,14c-0.9,2.3-1.5,5.1,1,5.2c1.1,0.1,2.4-0.2,3.6-0.6c1.2-0.3,2.4-1,3.6-1.5c4.7-2.3,9.1-5.2,13.4-8.2
					c8.6-6,17.4-12.9,25.6-19.6l0,1.7c-8.1,6.7-16.4,12.8-25,18.9c-4.3,3-8.8,5.9-13.5,8.4c-1.2,0.5-2.4,1.2-3.7,1.6
					c-1.3,0.4-2.6,0.9-4.1,0.9c-0.7,0-1.6-0.2-2.3-0.8c-0.7-0.6-1.1-1.5-1.2-2.3c-0.2-1.6,0-3.1,0.4-4.4c1.9-5.3,4.9-10.6,8.3-14.8
					c3.5-4.1,6.7-7.3,11.9-9.4c2.3-0.9,4.5-0.7,5.8,0.6c2.3,3.3,0,6.6-5.1,9.9c-5.9,4-13.1,5.9-16.7,6.9L560.3,295.4z"/>
			</g>
			<g>
				<path class="st0" d="M725.5,283.3c-1.1,1.5-1.2,1.7-2.2,3.4c-2,3.2-3.8,6.6-5.4,10.1c-0.8,1.8-1.5,3.6-2,5.6
					c-0.2,1-0.4,2-0.4,3.2c0,1.1,0.5,2.6,1.6,3.2c2.1,0.9,3.8,0.2,5.5-0.2c1.7-0.5,3.3-1.2,4.9-2c6.3-3.2,12-7.5,17.5-11.9
					c2.8-2.2,5.4-4.8,5.5-4.9c0.1-0.2,0.1-0.3,0-0.4c-0.1-0.1-0.2-0.1-0.4,0.1c-5.9,5.1-16.3,12.8-23.1,16c-1.5,0.7-3.1,1.4-4.7,1.8
					c-0.8,0.2-3.3,0.8-4.5,0c-1-0.5-0.7-2.5-0.3-4.2c0.5-1.7,1.2-3.5,2-5.1c1.6-3.4,3.2-6.1,5.3-9.8c2.1-3.7,3.8-5.9,6.4-9.6
					c0.4-0.5-1.1-0.5-1.1-0.5c-0.4,0-0.9,0.1-1.1,0.3c-4.6,5.1-9.3,9.5-14.2,14.2c-5,4.6-9.9,9.2-15.3,13c-1.4,0.9-2.7,1.8-4.2,2.3
					c-0.7,0.2-1.5,0.4-2,0.2c-0.5-0.1-0.7-0.6-0.9-1.3c-0.3-1.4,0.2-3.2,0.7-4.8c0.5-1.6,1-3,1.8-4.5c2.9-6.4,6.7-11.3,9.9-17.9
					c0.1-0.3,0.1-0.6,0.1-0.9c-0.1-0.4-0.4-0.6-0.7-0.7c-1-0.1-2.7,1-3.3,1.4c-1,0.7-2,1.4-3,2.1c-2,1.5-3.9,3.1-5.7,4.7
					c-3.7,3.3-7.3,6.7-10.7,10.5c-0.1,0.1-0.1,0.2,0,0.3c0.1,0.1,0.2,0.1,0.3,0c3.4-3.6,7.1-6.9,10.9-10c1.9-1.5,3.8-3,5.8-4.4
					c1-0.7,1.9-1.4,2.8-1.9c0.7-0.5,1.9-1.1,1.8-1c-0.1,0.1-3.8,5.6-4.8,7c-1.9,3-3.6,6.2-5,9.5c-0.7,1.7-1.4,3.4-1.8,5.3
					c-0.4,1.8-0.8,3.8-0.3,6c0.1,0.5,0.4,1,0.7,1.5c0.4,0.5,0.9,0.8,1.4,0.9c1,0.2,1.9-0.2,2.7-0.4c1.6-0.6,3-1.5,4.4-2.4
					c5.5-3.8,10.5-8.4,15.4-13.2C719.1,290.1,725.5,283.3,725.5,283.3z"/>
			</g>
			<g>
				<path class="st0" d="M532.1,267.9l-3.9,5.2c-2.5,3.5-5.1,7-7.5,10.6c-4.9,7.1-9.8,14.4-14.3,21.8c-4.6,7.5-8.7,15.3-12.8,23.1
					l-6.1,11.7c0,0-3.4,6.4-4.4,7.9c-0.7,1.1-0.9,1.5-1.2,1.9c-0.2,0.3-0.5,0.5-0.6,0.1c-0.1-0.3-0.6-1.4-0.6-5.4
					c0.1-2.9,0.8-5.6,1.8-7.9c1.9-4.8,4.8-9.1,7.8-13.2c3.1-4.1,6.2-7.4,9.7-11c3.4-3.7,10.4-10.1,10.4-10.1c0,0,0-1.5,0-1.5
					c-3.9,3.1-7.3,6.8-10.9,10.3c-3.5,3.6-6.9,7.4-10,11.5c-3.1,4.1-6,8.4-8.1,13.4c-1,2.5-1.8,5.2-2.1,8c-0.3,2.8,0,6,1.5,8.6
					c0.5,0.7,1.6,0.9,1.9,0.6c0.3-0.3,1-1.3,1.1-1.5c0.3-0.5,0.6-1,0.9-1.4l1.7-2.9l3.2-5.8l6.2-11.7c4.1-7.8,8-15.6,12.5-23.1
					c4.5-7.4,9.2-14.7,14.1-21.8l7.3-10.7l5.6-8l0.9-1.3c0.3-0.5,1.4-1.8,0.2-1.8c-0.6,0-0.7,0-1.1,0.3c0,0-22.6,24-35.7,25.9
					c-2.8,0.5-7.7,0.8-8.6-2.1c-1-3.7,4.5-8.8,5.4-5.6c0.4,1.4,0.2,2.5-0.1,4.1c-0.3,1.7-0.7,3.3-1.3,4.9c-1.1,3.2-2.7,6.1-4.5,8.8
					c-1.8,2.7-3.9,5.2-6.3,7.2c-2.3,2-5.1,3.9-7.9,3.7c-1.4-0.2-1.8-1.6-1.7-3.1c0.1-1.5,0.5-3.1,1.1-4.6c1.1-3,2.7-5.9,4.4-8.6
					c1.6-2.8,3.6-5.4,5.6-7.9c1-1.2,2.1-2.4,3.3-3.5c1.1-1.1,2.3-2,3.8-2.2c0,0,0.2,0,0.2-0.2s-0.1-0.2-0.1-0.2
					c-1.7-0.2-3.1,0.7-4.5,1.5c-1.4,0.9-2.6,1.9-3.8,3c-2.4,2.2-4.6,4.8-6.6,7.6c-1.9,2.8-3.6,6-4.5,9.6c-0.4,1.8-0.9,3.6-0.7,5.6
					c0.1,1,0.4,2.1,1,2.9c0.7,0.9,1.6,1.3,2.5,1.3c1.7,0.2,3.3-0.5,4.7-1.2c1.4-0.7,2.8-1.6,4-2.7c2.5-2.1,4.8-4.6,6.7-7.3
					c1.9-2.8,3.5-5.9,4.5-9.3c0.5-1.7,1-3.4,1.2-5.2c0.2-1.7,0.3-3.4-0.1-4.7c-0.4-1.1-0.9-1.6-1.5-1.9c-0.8-0.3-1.8,0-2.6,0.5
					c-1.9,1.3-5,4.1-3.7,8c0.7,1.5,2.7,3.9,10.4,2.5c12.7-2.3,29.1-19.6,32.1-22.5L532.1,267.9"/>
			</g>
			<g>
				<path class="st0" d="M849.7,277.7c-0.6,0-10.8,9.7-24.4,11.5c-2.8,0.5-9.1-0.1-10.2-3.6c-0.9-3.7,4-8.8,4.9-5.6
					c0.4,1.4,0.2,2.5-0.1,4.1c-0.3,1.7-0.8,3.3-1.3,4.9c-1.2,3.2-2.8,6.1-4.7,8.7c-1.9,2.7-4,5.1-6.4,7.1c-2.4,1.9-5.2,3.8-7.9,3.6
					c-1.4-0.2-1.8-1.6-1.6-3.1c0.1-1.5,0.6-3.1,1.1-4.6c1.2-3,2.8-5.8,4.5-8.6c1.7-2.8,3.6-5.4,5.7-7.8c1-1.2,2.1-2.4,3.3-3.4
					c1.2-1,2.4-2,3.8-2.2c0,0,0.2,0,0.2-0.2c0-0.2-0.1-0.2-0.1-0.2c-1.7-0.3-3.2,0.7-4.5,1.4c-1.4,0.9-2.7,1.9-3.9,3
					c-2.5,2.2-4.6,4.8-6.7,7.5c-2,2.8-3.6,5.9-4.6,9.5c-0.5,1.8-0.9,3.6-0.8,5.6c0.1,1,0.4,2.1,1,3c0.7,0.9,1.6,1.3,2.4,1.4
					c1.7,0.2,3.3-0.4,4.7-1.1c1.4-0.7,2.8-1.6,4.1-2.6c2.6-2,4.8-4.5,6.8-7.2c1.9-2.8,3.5-5.9,4.7-9.2c0.6-1.7,1-3.4,1.3-5.1
					c0.2-1.7,0.4-3.4-0.1-4.7c-0.4-1.1-0.9-1.7-1.5-2c-0.8-0.4-1.8,0-2.6,0.5c-1.9,1.3-4.4,4.2-3.2,8.1c0.9,2.2,4.2,5,11.9,4
					c13.6-1.7,22.8-10.6,22.8-10.6"/>
				<path class="st0" d="M856,266.5"/>
			</g>
			<g>
				<path class="st0" d="M1053.7,278.4c-0.6,0-11,8.5-22.1,10.1c-2.8,0.5-8.5,0-9.6-3.4c-0.9-3.7,4-8.8,4.9-5.6
					c0.4,1.4,0.2,2.5-0.1,4.1c-0.3,1.7-0.8,3.3-1.3,4.9c-1.2,3.2-2.8,6.1-4.7,8.7c-1.9,2.7-4,5.1-6.4,7.1c-2.4,1.9-5.2,3.8-7.9,3.6
					c-1.4-0.2-1.8-1.6-1.6-3.1c0.1-1.5,0.6-3.1,1.1-4.6c1.2-3,2.8-5.8,4.5-8.6c1.7-2.8,3.6-5.4,5.7-7.8c1-1.2,2.1-2.4,3.3-3.4
					c1.2-1,2.4-2,3.8-2.2c0,0,0.2,0,0.2-0.2c0-0.2-0.1-0.2-0.1-0.2c-1.7-0.3-3.2,0.7-4.5,1.4c-1.4,0.9-2.7,1.9-3.9,3
					c-2.5,2.2-4.6,4.8-6.7,7.5c-2,2.8-3.6,5.9-4.6,9.5c-0.5,1.8-0.9,3.6-0.8,5.6c0.1,1,0.4,2.1,1,3c0.7,0.9,1.6,1.3,2.4,1.4
					c1.7,0.2,3.3-0.4,4.7-1.1c1.4-0.7,2.8-1.6,4.1-2.6c2.6-2,4.8-4.5,6.8-7.2c1.9-2.8,3.5-5.9,4.7-9.2c0.6-1.7,1-3.4,1.3-5.1
					c0.2-1.7,0.4-3.4-0.1-4.7c-0.4-1.1-1-1.4-1.7-1.5c-3.6-0.6-6.8,4.2-5.6,8.1c0.9,2.2,4.2,5.1,11.9,4c11.8-1.6,20-9.4,20-9.4"/>
				<path class="st0" d="M1062.7,266"/>
			</g>
			<g>
				<path class="st0" d="M784.1,297.8c5-5.6,14.4-11.5,17.6-13.2c1.6-0.8,3.2-1.6,4.8-2.4l2.5-1.1l2-0.9l0.9,1.1l-2.5,0.9l-2.4,1
					c-1.6,0.7-3.2,1.5-4.8,2.3c-3.2,1.6-12.7,7.1-17.7,12.6c-0.1,0.1-0.2,0.1-0.3,0C784,298,784,297.9,784.1,297.8z"/>
			</g>
			<path class="st0" d="M848.3,279.1c-0.7,0.9-0.6,0.8-1.4,1.9c-0.8,1.1-1.4,2-2.6,3.8c-1.2,1.8-3.4,5-5.1,7.3
				c-1.7,2.3-3.7,4.9-5.6,7.5c-1.9,2.6-4.6,6.2-6.3,8.9c-0.4,0.6-0.6,0.6,0,0.8c0.6,0.2,2.1,0.2,2.9,0.1c0.8-0.2,0.6-0.2,1.4-1
				c0.7-0.8,1.6-2.1,2.8-3.4c1.2-1.3,3.8-3.9,5.1-5.2c3.5-3.6,6.8-7.1,10.1-10.4c3.3-3.3,6.5-6.4,10.1-9c1.8-1.3,3.5-2.3,5.6-2.5
				c1-0.1,1.9,0.2,2.5,1.1c0.6,0.9,0.7,1.7,0.6,3.2c0,0.7,0.5,0.6,0.6,0.1c0.1-1.2,0-2.7-0.7-3.9c-0.7-1.1-2-1.7-3.1-1.6
				c-2.3,0.3-4.1,1.3-6,2.5c-3.8,2.5-7,5.6-10.4,8.9c-3.4,3.3-6.7,6.7-10.3,10.2c-0.6,0.6-1.7,1.6-2.3,2.3c1.6-2.3,3.2-4.7,4.8-7
				c1.5-2.3,3.7-5.6,4.8-7.5c1.2-1.9,1.5-2.5,2.5-4c0.9-1.5,1.7-2.7,2.6-4.2c0.2-0.3-0.6-0.3-0.7-0.3c-0.2,0-0.6-0.1-0.8,0"/>
			<g>
				<path class="st0" d="M875.5,297.4c0,0-8.5,8.9-15,10.9c-6.1,1.8-8.1-0.6-9.8-2.7c-3.1-4.3-3.7-10.3-4-12.8
					c0-0.3,0.2-0.6,0.4-0.7c0.5-0.1,0.5,0.3,0.5,0.3c0,0,0.9,8,3.7,11.8c2.7,2.9,4.7,4.1,9,2.7c6.3-2,14.8-10.7,14.8-10.7
					s10.3-4.5,13.4-6.5c4.5-2.7,8.9-8.2,5.8-10.2c-3.6-2.4-11.2,7.1-12.9,9c-1.6,1.9-3,4.4-4.2,6.7c-1.2,2.3-2.1,5.1-2.7,7.7
					c-0.3,1.3-0.4,2.5,0,3.6c0.4,1.2,1.1,1.5,2.2,1.7s2.1-0.1,3.2-0.4c1.1-0.3,2.1-0.6,3.2-1.1c4.4-1.9,8.5-4,12.7-6.6
					c8.4-5.1,16.9-10.6,24.9-16.5c0.2,0.3,0.3,0.6,0.4,0.9c-8,6-16.4,11.6-24.9,16.8c-4.2,2.6-8.4,4.7-12.8,6.8
					c-1.1,0.5-2.1,0.9-3.3,1.2c-1.2,0.3-2.2,0.7-3.6,0.6c-1.4-0.1-2.8-0.8-3.4-2.3c-0.6-1.5-0.8-3.9-0.5-5.4c0.6-3.1,1.6-6,2.9-8.7
					c1.3-2.7,2.7-5,4.5-7.2c3.7-4.4,10.9-10.7,14.7-8.5c4.9,3.7,0.2,9.7-5.5,13C885.7,293,875.5,297.4,875.5,297.4z"/>
			</g>
			<path class="st0" d="M279.3,278.9c-0.7,0.9-0.6,0.8-1.4,1.9c-0.8,1.1-1.3,2-2.5,3.8c-1.2,1.8-3.4,5.1-5,7.4
				c-1.7,2.3-3.6,5-5.5,7.6c-1.9,2.6-4.5,6.2-6.2,8.9c-0.4,0.6-0.6,0.6,0,0.8c0.6,0.2,2.1,0.2,2.9,0c0.8-0.2,0.6-0.2,1.3-1.1
				c0.7-0.8,1.6-2.1,2.8-3.5c1.1-1.3,3.7-3.9,5-5.3c3.5-3.6,6.7-7.1,10-10.5c3.2-3.4,6.4-6.5,10-9.1c1.7-1.3,3.5-2.3,5.6-2.6
				c1-0.1,2.9,0.4,2.8,4.6c0,0.8,0.9,0.5,1-0.2c0.2-1.2,0-2.7-0.7-3.9c-0.7-1.1-2-1.7-3.1-1.5c-2.3,0.3-4.1,1.3-5.9,2.6
				c-3.7,2.6-7,5.7-10.3,9c-3.4,3.4-6.7,6.8-10.2,10.4c-0.6,0.6-1.6,1.6-2.3,2.3c1.5-2.3,3.2-4.8,4.7-7.1c1.5-2.3,3.6-5.7,4.8-7.6
				c1.2-1.9,1.5-2.5,2.4-4c0.9-1.5,1.6-2.8,2.5-4.2c0.2-0.3-0.6-0.3-0.7-0.3c-0.2,0-0.6,0-0.8,0"/>
			<path class="st0" d="M304.5,299c-2.9,2.8-8.3,7.5-12.8,8.9c-6.1,1.9-8.1-0.5-9.8-2.6c-3.1-4.3-3.8-10.4-4.2-12.9
				c0-0.2,0.2-0.5,0.6-0.5c0.3,0,0.6,0.1,0.6,0.3c0,0,0.8,7.8,3.7,11.6c2.7,2.9,4.7,4.1,9.1,2.6c4.3-1.4,9.5-5.9,12.4-8.7"/>
			<g>
				<path class="st0" d="M991.6,277.8c-0.4,1.1-3.6,6.3-4.2,7.4c-1.6,2.8-3.3,5.7-4.8,8.3c-1.5,2.6-3.2,6.2-4.3,8.3
					c-1.4,2.8-2,6.2,1.2,5.9c7.7-0.7,25.2-16.6,30.5-20.2c0.2,0.2,0.3,0.5,0.4,0.7c-5.4,3.7-21.6,19.6-31,20.9c-4.6,0.7-4.8-4-3-8.2
					c1-2.3,2.8-6.1,4.3-8.8c1.5-2.7,7.3-13.1,8.5-14.5C989.5,277.2,991.9,277.3,991.6,277.8z"/>
			</g>
			<g>
				<path class="st0" d="M1069.2,282.9c4.2,0.5,8.4,0.5,12.6,0.1s9.1-1.8,13-3.7c0.2-0.1,0.2-0.3,0.1-0.4c0-0.1-0.2-0.2-0.3-0.1
					c-3.9,1.8-8.1,2.8-13,3.2c-4.8,0.4-7.6,0.5-12.7-0.1c-5.3-0.6-12.1-2.8-12.4-2.9c-0.3-0.1-0.6-0.2-0.3,0.7
					c0.8,2.2,1.4,5.4,1.4,8.1c-0.1,2.7-0.8,5.2-1.7,7.7c-0.9,2.4-2.2,4.7-3.7,6.8c-1.5,2-3.3,4-5.3,4.8c-0.9,0.4-2,0.2-2.6-0.5
					c-0.6-0.7-0.8-2-0.8-3.3c0-2.5,0.7-5.1,1.6-7.6c1.8-5,4-9.6,6.8-14c2.7-4.4,5.8-8.6,8.9-12.7c3.1-4.2,6.3-8.2,9.5-12.2
					c6.6-7.9,13.3-15.7,20.3-23c3.5-3.7,7.2-7.2,11-10.5c1.9-1.6,3.8-3.2,5.9-4.6c1-0.7,2.1-1.3,3.1-1.8c1-0.5,2.4-0.7,2.6,0.3
					c0.2,1.1-0.3,2.5-0.7,3.7c-0.5,1.2-1.1,2.4-1.7,3.6c-1.2,2.3-2.7,4.5-4.1,6.7c-2.9,4.3-6.1,8.4-9.5,12.2
					c-3.3,3.9-7,7.3-10.7,10.7c-3.8,3.3-7.6,6.5-11.6,9.6c-7.9,6.1-16.1,11.7-24.5,16.8c-0.3,0.2-0.4,0.5-0.3,0.9
					c0.1,0.3,0.5,0.5,0.8,0.3c8.7-4.7,16.9-10.3,24.9-16.4c7.9-6.1,15.9-12.5,22.5-20.6c3.3-4,6.4-8.3,9.2-12.7
					c1.4-2.2,2.8-4.5,4-6.9c0.6-1.2,1.2-2.4,1.7-3.7c0.4-1.3,1-2.6,0.8-4.3c-0.2-0.9-1.1-1.4-1.7-1.3c-0.7,0-1.3,0.2-1.9,0.4
					c-1.2,0.4-2.2,1.1-3.3,1.7c-2.1,1.3-4.1,2.9-6.1,4.4c-3.9,3.1-7.8,6.4-11.5,9.9c-7.5,6.9-14.6,14.4-21.2,22.3
					c-6.6,8-13.1,16.2-18.6,25.3c-2.8,4.5-5.5,9.6-6.9,15c-0.7,2.7-1.4,5.5-1.3,8.5c0,1.5,0.5,3.1,1.7,4.4c1.1,1.3,2.9,1.4,4.1,0.8
					c2.5-1.2,4.2-3.2,5.8-5.4c1.6-2.2,2.8-4.6,3.8-7.2c1.8-4.9,2.4-10.8,0.5-15.9C1057.8,280.4,1063.5,282.2,1069.2,282.9z"/>
			</g>
			<g>
				<path class="st0" d="M616,274.4c2.1-5.8,5.7-11.2,10.4-14.9c4.6-3.8,9.8-6.3,14.9-8.9c5.1-2.4,10.2-5,14.8-8.4
					c4.7-3.3,8.9-7.6,12.5-12.5c-3.2,5.2-6.8,10.1-11.5,13.7c-4.7,3.7-9.8,6.3-14.9,8.8c-5.1,2.4-10.2,4.9-14.8,8.4
					C622.8,264.1,618.6,268.8,616,274.4z"/>
			</g>
			<path class="st0" d="M105.1,286.4c-2,3-3.7,6.3-5.3,9.8c-0.7,1.8-1.4,3.6-1.8,5.6c-0.2,1-0.3,2.1-0.3,3.2
				c0.1,1.1,0.5,2.4,1.4,3.3c0.6,0.6,1.5,1.2,2.8,1.2c1.3,0.1,2.7-0.3,2.7-0.3c1.7-0.5,3.3-1.1,4.8-1.9c11.8-7.1,25-20.4,25-20.4
				l-0.5-0.8c0,0-16.8,15.5-25.1,19.7c-1.5,0.7-3,1.4-4.5,1.6c0,0-1.1,0.2-2.2,0.1c-0.9-0.1-1.3-0.3-1.8-1c-0.6-0.9-0.5-2.5-0.1-4.1
				c0.4-1.6,1.1-3.3,1.8-4.9c2.6-6.1,7.3-13.1,9.3-16.2c0.8-1.2,1.3-2.1,1.5-2.5c0.2-0.4-0.4-0.6-0.9-0.6c-0.5,0-0.5,0-0.9,0.3
				c-0.7,0.5-6.2,7-6.2,7c-2.2,2.4-4.2,4.7-6.5,7c-4.6,4.6-9.3,9.1-14.3,12.9c-1.3,0.9-2.6,1.8-3.9,2.4c-0.7,0.3-1.4,0.5-1.9,0.4
				c-0.5-0.1-0.6-0.3-0.7-1c-0.1-1,0.6-4,0.8-4.8c0.4-1.7,0.9-3.3,1.4-4.9c1.1-3.2,2.4-6.2,3.9-9.2c0.7-1.5,1.5-2.9,2.3-4.4l1.2-2.2
				c0.2-0.4,1.1-1.9,1.2-2.2s0.1-0.7-0.8-0.8c-0.6,0-0.8,0-1,0.2c0,0-1.6,1.1-3.1,2.4c-3.9,3.6-19.2,19.4-26.4,23.4
				c-2.5,1.6-7.1,4.3-11.1,3.6c-1.4-0.3-2.4-0.9-3.1-2.3c-0.5-1-0.9-4.4,0.1-7.5c0.4-1.3-1.2-0.8-1.5-0.1c-0.5,1.2-0.8,2.7-0.8,3.8
				c0,1.7,0.1,3.2,0.9,4.7c0.7,1.6,2.1,2.6,3.6,3c1.5,0.3,3,0.3,4.5,0c2.9-0.8,5.8-2.3,8.4-3.9c10.2-6.1,24.9-21.7,24.9-21.7
				s-1,1.2-2.8,4.9c-1.9,3.9-3.6,11.1-3.9,12.8c-0.7,4-0.2,6.2,0.3,7c0.4,0.5,1,0.8,1.5,0.9c1,0.1,1.8-0.2,2.6-0.6
				c1.5-0.7,2.8-1.6,4.1-2.6c5.1-4,9.7-8.6,14.3-13.3C101.3,290.9,105.1,286.4,105.1,286.4z"/>
			<path class="st0" d="M456,285.3c-2,3-3.7,6.3-5.2,9.8c-0.7,1.8-1.4,3.6-1.8,5.6c-0.2,1-0.3,2.1-0.2,3.2c0.1,1.1,0.5,2.4,1.4,3.3
				c0.6,0.6,1.5,1.2,2.8,1.2c1.3,0.1,2.7-0.4,2.7-0.4c1.7-0.5,3.3-1.2,4.8-1.9c11.8-7.1,24.9-20.5,24.9-20.5l-0.5-0.8
				c0,0-16.7,15.6-25,19.8c-1.5,0.7-3,1.4-4.5,1.7c0,0-1.1,0.2-2.2,0.1c-0.9-0.1-1.4-0.3-1.8-1c-0.6-0.9-0.6-2.5-0.1-4.1
				c0.4-1.6,1.1-3.3,1.8-4.9c2.6-6.1,7.2-13.1,9.3-16.2c0.8-1.2,1.3-2.1,1.5-2.5c0.2-0.4-0.4-0.6-0.9-0.6c-0.5,0-0.5,0-0.9,0.3
				c-0.7,0.5-6.2,7-6.2,7c-2.2,2.4-4.2,4.7-6.5,7c-4.6,4.6-9.2,9.1-14.3,12.9c-1.3,0.9-2.6,1.8-3.9,2.4c-0.7,0.3-1.4,0.5-1.9,0.4
				c-0.5-0.1-0.6-0.3-0.7-1c-0.1-1,0.6-4,0.8-4.8c0.4-1.7,0.8-3.3,1.4-4.9c1.1-3.2,2.4-6.2,3.9-9.2c0.7-1.5,1.5-2.9,2.3-4.4l1.2-2.2
				c0.2-0.4,1-1.9,1.1-2.3c0.1-0.3,0.1-0.7-0.8-0.8c-0.6,0-0.8,0-1,0.2l-3,2.4l-3.5,2.9l-7,5.9c-4.6,4-14.3,12.2-18,14.7
				c-2.5,1.6-5,3.3-7.7,4.1c-1.4,0.4-2.5,0.3-3.9,0.1c-1.4-0.3-2-1.3-2.7-2.7c-0.5-1-0.7-4.6,0.2-7.7c0.4-1.3-1.2-0.8-1.5-0.1
				c-0.5,1.2-0.8,2.7-0.8,3.8c0,1.7,0.2,3.2,0.9,4.7c0.7,1.6,2.2,2.6,3.6,3c1.5,0.3,3,0.3,4.5-0.1c2.9-0.8,5.5-2.4,8.1-4
				c2.5-1.6,1.6-1.1,4-3c4.9-3.6,9.6-7.6,14.2-11.7l9.9-8.5c0,0-1.1,1.2-2.9,5c-1.6,3.1-2.3,5.5-3.3,9.1c-0.5,1.7-0.9,3.3-1.2,5.1
				c-0.7,4-0.1,6.2,0.4,7c0.4,0.5,1,0.8,1.5,0.9c1,0.1,1.8-0.2,2.6-0.6c1.5-0.7,2.8-1.6,4.1-2.6c5.1-4,9.7-8.7,14.2-13.4
				C452.2,289.8,456,285.3,456,285.3z"/>
			<path class="st0" d="M958.6,298.5c0.5-1.2,1.2-2.2,2-3.3c0.8-1,1.9-1.8,3.1-2.4c2.4-1.2,5-1.3,7.5-1.5c2.5-0.1,5,0.1,7.2-0.6
				c2.3-0.6,4.2-2.3,5.9-4.1c-0.6,1.1-1.4,2.1-2.2,3.1c-0.9,0.9-2,1.7-3.3,2.2c-2.5,1-5.1,0.9-7.6,1c-2.4,0.2-4.9,0.3-7.1,1.1
				C961.9,294.7,960.1,296.5,958.6,298.5z"/>
			<path class="st0" d="M180.3,287.1c-3.9,3.1-7.7,6.5-11.6,9.5c-4,3.1-8.1,6-12.3,8.8c-8.4,5.5-17.4,10.3-26.5,14.4
				c-9.2,4.2-18.7,7.4-27.3,12.3c-4.3,2.4-8.6,5-12.3,8.3c-1.8,1.6-3.6,3.4-5,5.4c-1.3,2-2.4,4.4-1.8,6.6c0.3,1,1.1,1.9,2.1,2.3
				c1,0.4,2.2,0.5,3.4,0.4c2.3-0.3,4.8-1,7.1-1.9c4.6-1.7,9-4.1,13.2-6.8c8.3-5.5,15.7-12.2,22.3-19.7c3.3-3.7,6.4-7.6,9.3-11.7
				c2.9-4.1,5.7-8.3,8.4-12.4c5.5-8.4,11-16.8,16.4-25.2c0.2-0.2,0.5-0.3,0.7-0.2c0.2,0.1,0.3,0.5,0.2,0.7
				c-5.2,8.6-10.4,17.2-15.9,25.6c-2.7,4.2-5.5,8.4-8.4,12.6c-2.9,4.1-6,8.1-9.3,11.9c-6.6,7.6-14,14.7-22.6,20.2
				c-4.3,2.7-8.9,5-13.7,6.6c-2.5,0.8-4.9,1.4-7.5,1.7c-1.3,0.1-2.7,0-4-0.6c-1.3-0.5-2.4-1.7-2.8-3.1c-0.4-1.4-0.2-2.8,0.2-4
				c0.4-1.3,1-2.4,1.7-3.5c1.4-2.2,3.1-4.1,4.9-5.9c3.7-3.5,7.9-6.5,12.3-9c4.4-2.5,9-4.7,13.6-6.7l7-2.8l3.5-1.4l3.4-1.5
				c9.2-4,18.1-8.5,26.5-13.9c4.2-2.7,8.3-5.5,12.3-8.5c4-3,7.8-6.3,11.8-9.3c0.2-0.2,0.6-0.1,0.8,0.1
				C180.6,286.5,180.6,286.9,180.3,287.1L180.3,287.1z"/>
			<path class="st0" d="M178.3,287.4c3-2.6,6.1-5.1,9.6-7.3c1.8-1,3.5-2.1,5.7-2.5c0.6-0.1,1.2-0.1,1.9,0.1c0.6,0.2,1.2,0.5,1.6,1
				c1,1,1.3,2.3,1.3,3.4c0,2.4-1.1,4.3-2.2,6.1c-1.2,1.7-2.7,3.2-4.3,4.5c-3.3,2.5-7.1,4-10.9,5.4l0,0l-0.2-0.9
				c1.9-0.3,3.9,0.2,5.5,1.2c0.8,0.5,1.6,1.1,2.2,1.8c0.6,0.7,1.2,1.5,1.6,2.4c0.8,1.8,0.9,3.8,0.7,5.7c-0.2,1.9-0.8,3.6-1.4,5.4
				c-1.3,3.4-3.2,6.5-5.2,9.5c-2,3-4.2,5.8-6.6,8.5c-4.8,5.3-10.2,10.1-16.3,13.9c-1.5,0.9-3.1,1.8-4.8,2.5c-1.7,0.7-3.5,1.4-5.5,1
				c-1-0.2-2-0.9-2.4-1.9c-0.4-1-0.4-2-0.2-2.9c0.3-1.9,1.1-3.5,2-5.1c3.7-6.3,9.3-11.2,15.5-14.8c3-1.9,6.3-3.4,9.5-4.9
				c3.2-1.5,6.3-3.1,9.3-4.9c6-3.6,11.4-8.2,16.7-12.8c5.3-4.7,10.3-9.7,15.2-14.7c0.2-0.2,0.5-0.2,0.7,0c0.2,0.2,0.2,0.5,0,0.7l0,0
				c-10,10-20,20.2-31.9,28c-3,2-6.1,3.7-9.3,5.3c-3.2,1.6-6.3,3.2-9.2,5.1c-2.9,1.9-5.8,3.9-8.4,6.2c-2.6,2.2-5.1,4.7-7,7.6
				c-0.9,1.4-1.7,3-2,4.6c-0.1,0.8-0.1,1.6,0.2,2.3c0.3,0.7,0.9,1.1,1.6,1.2c1.5,0.3,3.2-0.4,4.7-1.1c1.6-0.7,3-1.7,4.5-2.7
				c5.7-4,10.7-9.1,15.3-14.2c4.6-5.2,8.9-10.8,11.7-17.1c0.7-1.6,1.2-3.2,1.5-4.8c0.3-1.6,0.2-3.3-0.3-4.8
				c-0.3-0.7-0.7-1.4-1.2-2.1c-0.5-0.7-1.1-1.2-1.8-1.7c-1.3-0.9-3-1.5-4.6-1.4l-0.1,0c-0.3,0-0.5-0.2-0.5-0.4
				c0-0.2,0.1-0.4,0.3-0.5l0,0c3.6-1.5,7-3.6,9.9-6.1c1.4-1.3,2.8-2.6,3.8-4.2c1.1-1.5,1.9-3.2,2-4.9c0.1-0.8-0.1-1.6-0.6-2.1
				c-0.2-0.3-0.5-0.5-0.8-0.6c-0.3-0.1-0.7-0.2-1.1-0.1c-1.7,0.2-3.5,1-5.2,2c-3.4,2-6.6,4.3-9.5,6.9l0,0c-0.2,0.2-0.6,0.2-0.8-0.1
				C178,287.9,178,287.6,178.3,287.4z"/>
		</g>
		<g>
			<path class="st0" d="M147.2,182.4l0.7,1.2c-12.8,8.5-28.6,13.5-46.4,13.5c-49.2,0-85-38.1-85-85c0-46.9,35.7-85,85-85
				c17.8,0,33.6,5,46.4,13.5l-0.7,1.2c-13-9-29.4-13.7-45.7-13.7c-44,0-75.5,37.6-75.5,84c0,46.4,31.5,84,75.5,84
				C117.8,196.2,134.1,191.4,147.2,182.4z"/>
			<path class="st0" d="M272.7,113.3h-63.9L174,195H173l72.4-170.2L317.9,195h-10.2L272.7,113.3z M209.2,112.4h63l-31.5-73.6
				L209.2,112.4z"/>
			<path class="st0" d="M345,195l60.1-79.1L345,29.3h11.8l54.4,78.6l59.7-78.6h0.9l-60.1,79.1l60.1,86.6H460l-54.4-78.4L345.9,195
				H345z"/>
			<path class="st0" d="M599.6,113.3h-63.9L500.9,195H500l72.4-170.2L644.9,195h-10.2L599.6,113.3z M536.2,112.4h63l-31.5-73.6
				L536.2,112.4z"/>
			<path class="st0" d="M730.1,37.1L662.6,195h-0.9l72.4-170.2L806.5,195h-8.8L730.1,37.1z"/>
			<path class="st0" d="M849.5,183.9L956.9,24.5V195h-9.5V40.2L840,199.7V29.3h9.5V183.9z"/>
			<path class="st0" d="M1114.4,195h-9.5v-83.3H1014V195h-9.5V29.3h9.5v81.4h90.9V29.3h9.5V195z"/>
		</g>
	</g>
</g>
</svg>
