<?xml version="1.0" encoding="utf-8"?>
<!-- Generator: Adobe Illustrator 18.0.0, SVG Export Plug-In . SVG Version: 6.00 Build 0)  -->
<!DOCTYPE svg PUBLIC "-//W3C//DTD SVG 1.1//EN" "http://www.w3.org/Graphics/SVG/1.1/DTD/svg11.dtd">
<svg version="1.1" id="Слой_1" xmlns="http://www.w3.org/2000/svg" xmlns:xlink="http://www.w3.org/1999/xlink" x="0px" y="0px"
	 viewBox="0 0 85 40" enable-background="new 0 0 85 40" xml:space="preserve">
<g>
	<g>
		<path fill="#FFFFFF" d="M41.5,23.3c-0.1,0-0.3,0-0.4-0.1c-0.8-0.2-1.2-1-1-1.8L44.5,6c0.2-0.8,1-1.2,1.8-1c0.8,0.2,1.2,1,1,1.8
			l-4.4,15.5C42.7,22.9,42.1,23.3,41.5,23.3"/>
		<path fill="#FFFFFF" d="M72,10.3c-0.8,0-1.5-0.6-1.5-1.5c0-0.8,0.6-1.5,1.5-1.5l7.6,0h0C80.4,7.3,81,8,81,8.8
			c0,0.8-0.6,1.5-1.5,1.5L72,10.3L72,10.3z"/>
		<path fill="#FFFFFF" d="M83.6,0.3h-5.3l-0.2,0c0,0,0.1,0,0.1,0c-3.3,0-6.2,0-6.2,0c-0.1,0-0.9,0-1.7,0.1c0,0-0.5,0.1-0.9,0.4
			c-0.3,0.2-0.9,1-1.1,1.4c-0.1,0.1-3.8,12.9-3.8,12.9s-1.2,4.7-1.5,5c-0.3,0.3-1.4,0.3-1.9,0.3c-1.8,0-4.2,0-5.5,0
			c-0.5,0-0.7-0.1-0.7-0.1c-0.1-0.1-0.1-0.5,0.1-0.9c0.2-0.6,0.6-2.1,0.9-3l0.2-0.7c0.4-1.2-0.1-2-0.4-2.4c-0.9-1.1-2.3-1-2.5-1
			c0,0-0.6,0-1.4,0c1.4-0.6,3.1-1.2,4.6-1.9c0.2-0.1,4.7-1.8,4.7-5.9c0-1.1-0.4-2.1-1.1-2.9c-1.5-1.5-3.9-1.4-4.1-1.4
			c0,0-15.4,0-16,0c-2.4,0-4,1.7-4.5,2.6L26,18.8c-0.2,0.5-0.9,1.3-1.5,1.6c0-0.3,0.1-0.6,0.1-0.9l3.5-12.3c0.3-0.9,1.2-3.8,0.4-5.5
			c-0.3-0.6-0.8-1.1-1.4-1.3c-2.7-0.9-4.9,2.9-5.3,3.7l-8.4,14.4c-0.5,0.9-1.3,1.9-1.7,2c0-0.1,0-0.5,0.1-0.8
			c0-0.1,2.2-7.2,3.5-11.9c0.7-2.6,0.5-4.7-0.6-6c-1.5-1.7-3.8-1.5-3.9-1.5H1.6c-0.8,0-1.5,0.7-1.5,1.5c0,0.8,0.6,1.5,1.5,1.5l9.3,0
			c0,0,1-0.1,1.5,0.5c0.5,0.6,0.5,1.8,0,3.4C11.2,11.6,9,18.7,9,18.7c-0.1,0.3-0.6,1.8,0.1,3.1c0.3,0.5,0.8,1.2,1.9,1.4
			c2.6,0.6,4.5-2.7,4.9-3.3l8.4-14.4c0.5-0.9,1.2-1.8,1.7-2.2c0,0.7-0.2,1.9-0.6,3l-3.6,12.4c-0.2,0.5-0.6,2.4,0.3,3.7
			c0.5,0.6,1.2,1,2,1c2.8,0.1,4.3-2.9,4.4-3.1l9.6-15.9c0,0,0.6-1.1,1.9-1.1c0.5,0,16,0,16,0c0.5,0,1.6,0.1,2.1,0.6
			c0.1,0.1,0.3,0.3,0.2,0.7c0,2.1-2.8,3.2-2.9,3.2c-7.6,3-8.1,3.4-8.3,3.6c-0.7,0.6-1,1.5-0.7,2.3c0.3,0.9,1.1,1.5,2.3,1.6
			c0.2,0,1.7,0,4.6,0l-0.1,0.4c-0.3,1-0.7,2.5-0.9,3c-0.1,0.2-0.7,2,0.4,3.4c0.4,0.6,1.3,1.3,3,1.3c1.7,0,7.2,0,7.2,0
			c2.4-0.1,2.8-1.5,3-2.1l4.7-16.4c0.4-0.9,0.9-1.6,2.3-1.6c0,0,1.8,0,5.1,0H78h5.5h0c0.8,0,1.5-0.7,1.5-1.5
			C85,0.9,84.4,0.3,83.6,0.3"/>
	</g>
	<g>
		<path fill="#FFFFFF" d="M33.3,39.4h-7.4c0-0.9,0.2-1.7,0.7-2.4c0.4-0.7,1-1.3,1.7-1.8c0.4-0.3,0.7-0.5,1.1-0.8
			c0.4-0.2,0.7-0.5,1.1-0.8c0.3-0.3,0.6-0.6,0.8-0.9c0.2-0.3,0.3-0.7,0.3-1.1c0-0.2,0-0.4-0.1-0.6c0-0.2-0.1-0.4-0.3-0.6
			c-0.1-0.2-0.3-0.4-0.6-0.5c-0.2-0.1-0.6-0.2-0.9-0.2c-0.4,0-0.6,0.1-0.9,0.2c-0.2,0.1-0.4,0.3-0.6,0.6c-0.1,0.2-0.2,0.5-0.3,0.9
			c-0.1,0.3-0.1,0.7-0.1,1.1H26c0-0.6,0.1-1.2,0.2-1.7c0.2-0.5,0.4-1,0.7-1.3c0.3-0.4,0.7-0.7,1.2-0.9c0.5-0.2,1-0.3,1.6-0.3
			c0.7,0,1.2,0.1,1.7,0.3c0.4,0.2,0.8,0.5,1.1,0.8c0.3,0.3,0.5,0.7,0.6,1.1c0.1,0.4,0.2,0.8,0.2,1.1c0,0.4-0.1,0.8-0.2,1.2
			c-0.1,0.4-0.3,0.7-0.5,1c-0.2,0.3-0.5,0.6-0.8,0.8c-0.3,0.2-0.6,0.5-0.9,0.7c-0.3,0.2-0.6,0.4-0.9,0.6c-0.3,0.2-0.6,0.4-0.9,0.6
			c-0.3,0.2-0.5,0.4-0.7,0.6c-0.2,0.2-0.3,0.4-0.4,0.7h5.3V39.4z"/>
		<path fill="#FFFFFF" d="M38.2,28.3c0.8,0,1.4,0.2,1.9,0.5c0.5,0.4,0.9,0.8,1.2,1.4c0.3,0.6,0.5,1.2,0.6,1.8
			c0.1,0.7,0.1,1.3,0.1,1.9s0,1.3-0.1,1.9c-0.1,0.7-0.3,1.3-0.6,1.8c-0.3,0.6-0.7,1-1.2,1.4c-0.5,0.4-1.1,0.5-1.9,0.5
			c-0.8,0-1.4-0.2-1.9-0.5c-0.5-0.4-0.9-0.8-1.2-1.4c-0.3-0.6-0.5-1.2-0.6-1.8c-0.1-0.7-0.1-1.3-0.1-1.9s0-1.3,0.1-1.9
			c0.1-0.7,0.3-1.3,0.6-1.8c0.3-0.6,0.7-1,1.2-1.4C36.8,28.5,37.4,28.3,38.2,28.3 M38.2,38.1c0.4,0,0.7-0.1,1-0.3
			c0.3-0.2,0.5-0.5,0.6-0.9c0.2-0.4,0.3-0.8,0.3-1.3c0.1-0.5,0.1-1,0.1-1.6c0-0.6,0-1.1-0.1-1.6c-0.1-0.5-0.2-0.9-0.3-1.3
			c-0.2-0.4-0.4-0.7-0.6-0.9c-0.3-0.2-0.6-0.3-1-0.3c-0.4,0-0.7,0.1-1,0.3c-0.3,0.2-0.5,0.5-0.6,0.9c-0.2,0.4-0.3,0.8-0.3,1.3
			c-0.1,0.5-0.1,1-0.1,1.6c0,0.6,0,1.1,0.1,1.6c0.1,0.5,0.2,1,0.3,1.3c0.2,0.4,0.4,0.7,0.6,0.9C37.5,38,37.8,38.1,38.2,38.1"/>
		<path fill="#FFFFFF" d="M43.4,30.3c0.4,0,0.7,0,1.1-0.1c0.4-0.1,0.7-0.2,1-0.3c0.3-0.1,0.5-0.3,0.7-0.6c0.2-0.2,0.3-0.5,0.4-0.8
			H48v10.9H46v-7.7h-2.7V30.3z"/>
		<path fill="#FFFFFF" d="M55.5,28.3c0.8,0,1.4,0.2,1.9,0.5s0.9,0.8,1.2,1.4c0.3,0.6,0.5,1.2,0.6,1.8c0.1,0.7,0.1,1.3,0.1,1.9
			s0,1.3-0.1,1.9c-0.1,0.7-0.3,1.3-0.6,1.8c-0.3,0.6-0.7,1-1.2,1.4c-0.5,0.4-1.1,0.5-1.9,0.5c-0.8,0-1.4-0.2-1.9-0.5
			c-0.5-0.4-0.9-0.8-1.2-1.4c-0.3-0.6-0.5-1.2-0.6-1.8c-0.1-0.7-0.1-1.3-0.1-1.9s0-1.3,0.1-1.9c0.1-0.7,0.3-1.3,0.6-1.8
			c0.3-0.6,0.7-1,1.2-1.4C54.1,28.5,54.8,28.3,55.5,28.3 M55.5,38.1c0.4,0,0.7-0.1,1-0.3c0.3-0.2,0.5-0.5,0.6-0.9
			c0.2-0.4,0.3-0.8,0.3-1.3c0.1-0.5,0.1-1,0.1-1.6c0-0.6,0-1.1-0.1-1.6c-0.1-0.5-0.2-0.9-0.3-1.3c-0.2-0.4-0.4-0.7-0.6-0.9
			c-0.3-0.2-0.6-0.3-1-0.3c-0.4,0-0.7,0.1-1,0.3c-0.3,0.2-0.5,0.5-0.6,0.9c-0.2,0.4-0.3,0.8-0.3,1.3c-0.1,0.5-0.1,1-0.1,1.6
			c0,0.6,0,1.1,0.1,1.6c0.1,0.5,0.2,1,0.3,1.3c0.2,0.4,0.4,0.7,0.6,0.9C54.8,38,55.1,38.1,55.5,38.1"/>
	</g>
</g>
</svg>
